<svg width="391" height="192" viewBox="0 0 391 192" fill="none" xmlns="http://www.w3.org/2000/svg">
<circle cx="46" cy="162" r="8" stroke="white" stroke-opacity="0.5" stroke-width="2"/>
<g clip-path="url(#clip0_1846_701)">
<path d="M353.529 54.1296C353.444 53.6108 353.255 53.1082 353.123 52.6011C352.919 51.8173 352.705 51.0365 352.499 50.2538C352.132 48.8616 351.805 47.4461 351.388 46.0685C352.856 45.6816 354.321 45.2767 355.787 44.8845C356.733 44.6312 357.682 44.3941 358.626 44.1314C358.913 44.0515 359.647 43.952 359.821 43.7375C360.202 43.2699 359.874 42.595 359.272 42.6601C358.716 42.7202 357.846 43.0559 357.269 43.2056C356.322 43.452 355.377 43.7088 354.43 43.9587C353.316 44.253 352.194 44.5281 351.079 44.8269L351.025 44.7309C350.781 43.7486 350.494 42.7767 350.233 41.8C350.018 41.0004 349.807 40.1979 349.594 39.3981C349.456 38.8802 349.349 38.3529 349.208 37.8351C349.117 37.5033 349.02 36.9953 348.912 36.701C348.645 35.9707 347.622 36.1408 347.651 36.9482C347.653 37.0208 347.69 37.0578 347.696 37.096C347.782 37.6147 347.971 38.1173 348.102 38.6244C348.306 39.4082 348.52 40.189 348.726 40.9717C349.094 42.3639 349.42 43.7795 349.838 45.1571C348.369 45.544 346.905 45.9488 345.438 46.3411C344.492 46.5944 343.543 46.8314 342.599 47.0941C342.312 47.1741 341.578 47.2735 341.404 47.4881C341.023 47.9557 341.351 48.6305 341.953 48.5654C342.509 48.5053 343.379 48.1696 343.956 48.0198C344.904 47.7734 345.849 47.5166 346.795 47.2667C347.91 46.9724 349.032 46.6973 350.147 46.3985L350.201 46.4945C350.445 47.4768 350.732 48.4485 350.993 49.4254C351.207 50.225 351.418 51.0275 351.632 51.8273C351.77 52.3451 351.877 52.8725 352.018 53.3903C352.109 53.7221 352.206 54.2301 352.314 54.5244C352.581 55.2545 353.604 55.0842 353.575 54.2767C353.572 54.204 353.536 54.167 353.53 54.1289L353.529 54.1296Z" fill="white" fill-opacity="0.5"/>
</g>
<defs>
<clipPath id="clip0_1846_701">
<rect width="14.0659" height="14.0659" fill="white" transform="translate(348.06 36) rotate(30.1276)"/>
</clipPath>
</defs>
</svg>
