<svg width="418" height="774" viewBox="0 0 418 774" fill="none" xmlns="http://www.w3.org/2000/svg">
<g clip-path="url(#clip0_1855_2)">
<path d="M213.529 764.13C213.444 763.611 213.255 763.108 213.123 762.601C212.919 761.817 212.705 761.036 212.499 760.254C212.132 758.862 211.805 757.446 211.388 756.068C212.856 755.682 214.321 755.277 215.787 754.884C216.733 754.631 217.682 754.394 218.626 754.131C218.913 754.051 219.647 753.952 219.821 753.737C220.202 753.27 219.874 752.595 219.272 752.66C218.716 752.72 217.846 753.056 217.269 753.206C216.322 753.452 215.377 753.709 214.43 753.959C213.316 754.253 212.194 754.528 211.079 754.827L211.025 754.731C210.781 753.749 210.494 752.777 210.233 751.8C210.018 751 209.807 750.198 209.594 749.398C209.456 748.88 209.349 748.353 209.208 747.835C209.117 747.503 209.02 746.995 208.912 746.701C208.645 745.971 207.622 746.141 207.651 746.948C207.653 747.021 207.69 747.058 207.696 747.096C207.782 747.615 207.971 748.117 208.102 748.624C208.306 749.408 208.52 750.189 208.726 750.972C209.094 752.364 209.42 753.779 209.838 755.157C208.369 755.544 206.905 755.949 205.438 756.341C204.492 756.594 203.543 756.831 202.599 757.094C202.312 757.174 201.578 757.274 201.404 757.488C201.023 757.956 201.351 758.631 201.953 758.565C202.509 758.505 203.379 758.17 203.956 758.02C204.904 757.773 205.849 757.517 206.795 757.267C207.91 756.972 209.032 756.697 210.147 756.399L210.201 756.494C210.445 757.477 210.732 758.448 210.993 759.425C211.207 760.225 211.418 761.027 211.632 761.827C211.77 762.345 211.877 762.873 212.018 763.39C212.109 763.722 212.206 764.23 212.314 764.524C212.581 765.255 213.604 765.084 213.575 764.277C213.572 764.204 213.536 764.167 213.53 764.129L213.529 764.13Z" fill="white" fill-opacity="0.5"/>
</g>
<circle cx="332.5" cy="540.5" r="17" stroke="white" stroke-opacity="0.5" stroke-width="3"/>
<circle cx="351" cy="520" r="6" stroke="white" stroke-opacity="0.5" stroke-width="2"/>
<g clip-path="url(#clip1_1855_2)">
<path d="M294.529 370.13C294.444 369.611 294.255 369.108 294.123 368.601C293.919 367.817 293.705 367.036 293.499 366.254C293.132 364.862 292.805 363.446 292.388 362.068C293.856 361.682 295.321 361.277 296.787 360.884C297.733 360.631 298.682 360.394 299.626 360.131C299.913 360.051 300.647 359.952 300.821 359.737C301.202 359.27 300.874 358.595 300.272 358.66C299.716 358.72 298.846 359.056 298.269 359.206C297.322 359.452 296.377 359.709 295.43 359.959C294.316 360.253 293.194 360.528 292.079 360.827L292.025 360.731C291.781 359.749 291.494 358.777 291.233 357.8C291.018 357 290.807 356.198 290.594 355.398C290.456 354.88 290.349 354.353 290.208 353.835C290.117 353.503 290.02 352.995 289.912 352.701C289.645 351.971 288.622 352.141 288.651 352.948C288.653 353.021 288.69 353.058 288.696 353.096C288.782 353.615 288.971 354.117 289.102 354.624C289.306 355.408 289.52 356.189 289.726 356.972C290.094 358.364 290.42 359.779 290.838 361.157C289.369 361.544 287.905 361.949 286.438 362.341C285.492 362.594 284.543 362.831 283.599 363.094C283.312 363.174 282.578 363.274 282.404 363.488C282.023 363.956 282.351 364.631 282.953 364.565C283.509 364.505 284.379 364.17 284.956 364.02C285.904 363.773 286.849 363.517 287.795 363.267C288.91 362.972 290.032 362.697 291.147 362.399L291.201 362.494C291.445 363.477 291.732 364.448 291.993 365.425C292.207 366.225 292.418 367.027 292.632 367.827C292.77 368.345 292.877 368.873 293.018 369.39C293.109 369.722 293.206 370.23 293.314 370.524C293.581 371.255 294.604 371.084 294.575 370.277C294.572 370.204 294.536 370.167 294.53 370.129L294.529 370.13Z" fill="white" fill-opacity="0.5"/>
</g>
<path d="M414.064 117.511C412.334 118.788 410.092 121.591 408.464 123.207C405.792 125.863 403.15 128.548 400.489 131.213C397.353 134.353 394.158 137.442 391.034 140.595L390.668 140.381C387.966 137.576 385.141 134.89 382.39 132.139C380.138 129.886 377.891 127.618 375.641 125.364C374.184 123.904 372.812 122.352 371.346 120.899C370.406 119.967 369.104 118.461 368.179 117.688C365.886 115.77 362.818 118.316 364.469 120.954C364.617 121.191 364.811 121.243 364.904 121.359C366.188 122.923 367.785 124.234 369.199 125.67C371.384 127.891 373.601 130.08 375.794 132.291C380.494 137.027 385.061 141.995 390.059 146.378C390.976 146.857 391.904 146.508 392.669 145.921C397.413 141.214 402.071 136.419 406.777 131.675C409.431 128.999 412.124 126.372 414.753 123.669C415.552 122.846 417.798 121.094 417.963 120.041C418.325 117.745 415.937 116.128 414.063 117.511H414.064Z" fill="white" fill-opacity="0.5"/>
<path d="M414.064 134.962C412.334 136.238 410.092 139.042 408.464 140.657C405.793 143.313 403.15 145.999 400.489 148.664C397.354 151.804 394.159 154.892 391.034 158.046L390.668 157.832C387.967 155.026 385.141 152.341 382.39 149.589C380.138 147.337 377.891 145.069 375.641 142.814C374.184 141.355 372.813 139.803 371.346 138.349C370.406 137.418 369.104 135.912 368.179 135.139C365.886 133.22 362.817 135.769 364.469 138.406C364.617 138.643 364.811 138.696 364.904 138.811C366.188 140.376 367.785 141.686 369.199 143.122C371.385 145.343 373.601 147.532 375.794 149.743C380.494 154.48 385.062 159.447 390.059 163.831C390.976 164.309 391.904 163.96 392.669 163.373C397.413 158.666 402.071 153.871 406.777 149.127C409.431 146.451 412.124 143.825 414.753 141.121C415.552 140.299 417.798 138.546 417.963 137.493C418.325 135.197 415.937 133.581 414.063 134.963L414.064 134.962Z" fill="white" fill-opacity="0.5"/>
<path d="M414.064 152.413C412.334 153.689 410.092 156.493 408.464 158.108C405.793 160.765 403.15 163.45 400.489 166.115C397.354 169.255 394.159 172.343 391.034 175.497L390.668 175.283C387.967 172.477 385.141 169.792 382.39 167.041C380.138 164.788 377.891 162.52 375.641 160.266C374.184 158.806 372.813 157.254 371.346 155.8C370.406 154.869 369.104 153.363 368.179 152.59C365.886 150.671 362.817 153.22 364.469 155.857C364.617 156.094 364.811 156.147 364.904 156.262C366.188 157.827 367.785 159.137 369.199 160.574C371.385 162.794 373.601 164.983 375.794 167.195C380.494 171.931 385.062 176.898 390.059 181.282C390.976 181.761 391.904 181.411 392.669 180.824C397.413 176.117 402.071 171.323 406.777 166.579C409.431 163.903 412.124 161.276 414.753 158.572C415.552 157.75 417.798 155.997 417.963 154.944C418.325 152.648 415.937 151.032 414.063 152.414L414.064 152.413Z" fill="white" fill-opacity="0.5"/>
<path d="M414.064 170.004C412.334 171.281 410.092 174.085 408.464 175.7C405.792 178.356 403.15 181.041 400.489 183.707C397.353 186.846 394.158 189.935 391.034 193.088L390.668 192.874C387.966 190.069 385.141 187.383 382.39 184.632C380.138 182.379 377.891 180.111 375.641 177.857C374.184 176.397 372.812 174.845 371.346 173.392C370.406 172.46 369.104 170.954 368.179 170.181C365.886 168.263 362.818 170.81 364.469 173.447C364.617 173.684 364.811 173.737 364.904 173.852C366.188 175.417 367.785 176.727 369.199 178.163C371.384 180.384 373.601 182.573 375.794 184.784C380.494 189.521 385.061 194.488 390.059 198.872C390.976 199.35 391.904 199.001 392.669 198.414C397.413 193.707 402.071 188.912 406.777 184.168C409.431 181.492 412.124 178.866 414.753 176.162C415.552 175.34 417.798 173.587 417.963 172.534C418.325 170.238 415.937 168.622 414.063 170.004H414.064Z" fill="white" fill-opacity="0.5"/>
<path d="M414.064 187.455C412.334 188.731 410.092 191.535 408.464 193.15C405.793 195.807 403.15 198.492 400.489 201.157C397.354 204.297 394.159 207.385 391.034 210.539L390.668 210.325C387.967 207.519 385.141 204.834 382.39 202.083C380.138 199.83 377.891 197.562 375.641 195.308C374.184 193.848 372.813 192.296 371.346 190.842C370.406 189.911 369.104 188.405 368.179 187.632C365.886 185.713 362.817 188.262 364.469 190.899C364.617 191.136 364.811 191.189 364.904 191.304C366.188 192.869 367.785 194.179 369.199 195.616C371.385 197.836 373.601 200.025 375.794 202.237C380.494 206.973 385.062 211.94 390.059 216.324C390.976 216.803 391.904 216.453 392.669 215.866C397.413 211.159 402.071 206.365 406.777 201.621C409.431 198.945 412.124 196.318 414.753 193.614C415.552 192.792 417.798 191.039 417.963 189.986C418.325 187.69 415.937 186.074 414.063 187.456L414.064 187.455Z" fill="white" fill-opacity="0.5"/>
<path d="M414.064 204.906C412.334 206.183 410.092 208.986 408.464 210.602C405.793 213.258 403.15 215.943 400.489 218.608C397.354 221.748 394.159 224.837 391.034 227.99L390.668 227.776C387.967 224.971 385.141 222.285 382.39 219.534C380.138 217.281 377.891 215.013 375.641 212.759C374.184 211.299 372.813 209.747 371.346 208.294C370.406 207.362 369.104 205.856 368.179 205.083C365.886 203.165 362.817 205.713 364.469 208.35C364.617 208.588 364.811 208.64 364.904 208.755C366.188 210.32 367.785 211.63 369.199 213.067C371.385 215.287 373.601 217.477 375.794 219.688C380.494 224.424 385.062 229.391 390.059 233.775C390.976 234.254 391.904 233.904 392.669 233.318C397.413 228.611 402.071 223.816 406.777 219.072C409.431 216.396 412.124 213.769 414.753 211.065C415.552 210.243 417.798 208.491 417.963 207.437C418.325 205.142 415.937 203.525 414.063 204.908L414.064 204.906Z" fill="white" fill-opacity="0.5"/>
<path d="M414.064 10.5111C412.334 11.7876 410.092 14.5915 408.464 16.2067C405.792 18.8627 403.15 21.5481 400.489 24.2134C397.353 27.3529 394.158 30.4417 391.034 33.5951L390.668 33.3811C387.966 30.5756 385.141 27.8903 382.39 25.1388C380.138 22.8861 377.891 20.6181 375.641 18.3639C374.184 16.9042 372.812 15.3521 371.346 13.8986C370.406 12.967 369.104 11.4612 368.179 10.6882C365.886 8.76967 362.818 11.3164 364.469 13.954C364.617 14.1911 364.811 14.2435 364.904 14.359C366.188 15.9234 367.785 17.2337 369.199 18.6703C371.384 20.8906 373.601 23.0801 375.794 25.2912C380.494 30.0275 385.061 34.9947 390.059 39.3784C390.976 39.8573 391.904 39.5077 392.669 38.9211C397.413 34.2141 402.071 29.4193 406.777 24.6753C409.431 21.9992 412.124 19.3724 414.753 16.6686C415.552 15.8464 417.798 14.0941 417.963 13.0409C418.325 10.7452 415.937 9.12843 414.063 10.5111H414.064Z" fill="white" fill-opacity="0.5"/>
<path d="M414.064 27.9617C412.334 29.2382 410.092 32.0421 408.464 33.6573C405.793 36.3134 403.15 38.9987 400.489 41.664C397.354 44.8035 394.159 47.8923 391.034 51.0457L390.668 50.8317C387.967 48.0262 385.141 45.3409 382.39 42.5894C380.138 40.3367 377.891 38.0687 375.641 35.8145C374.184 34.3548 372.813 32.8027 371.346 31.3492C370.406 30.4176 369.104 28.9118 368.179 28.1388C365.886 26.2203 362.817 28.7686 364.469 31.4062C364.617 31.6433 364.811 31.6956 364.904 31.8111C366.188 33.3755 367.785 34.6858 369.199 36.1224C371.385 38.3427 373.601 40.5323 375.794 42.7434C380.494 47.4796 385.062 52.4469 390.059 56.8305C390.976 57.3094 391.904 56.9599 392.669 56.3732C397.413 51.6662 402.071 46.8714 406.777 42.1275C409.431 39.4514 412.124 36.8245 414.753 34.1207C415.552 33.2985 417.798 31.5463 417.963 30.4931C418.325 28.1973 415.937 26.5806 414.063 27.9633L414.064 27.9617Z" fill="white" fill-opacity="0.5"/>
<path d="M414.064 45.4129C412.334 46.6894 410.092 49.4933 408.464 51.1085C405.793 53.7645 403.15 56.4499 400.489 59.1152C397.354 62.2547 394.159 65.3435 391.034 68.4969L390.668 68.2828C387.967 65.4774 385.141 62.7921 382.39 60.0405C380.138 57.7879 377.891 55.5198 375.641 53.2656C374.184 51.806 372.813 50.2539 371.346 48.8004C370.406 47.8688 369.104 46.3629 368.179 45.59C365.886 43.6714 362.817 46.2197 364.469 48.8573C364.617 49.0945 364.811 49.1468 364.904 49.2623C366.188 50.8267 367.785 52.137 369.199 53.5736C371.385 55.7939 373.601 57.9834 375.794 60.1945C380.494 64.9308 385.062 69.898 390.059 74.2817C390.976 74.7606 391.904 74.4111 392.669 73.8244C397.413 69.1174 402.071 64.3226 406.777 59.5786C409.431 56.9025 412.124 54.2757 414.753 51.5719C415.552 50.7497 417.798 48.9974 417.963 47.9443C418.325 45.6485 415.937 44.0318 414.063 45.4144L414.064 45.4129Z" fill="white" fill-opacity="0.5"/>
<path d="M414.064 63.0043C412.334 64.2807 410.092 67.0846 408.464 68.6998C405.792 71.3559 403.15 74.0412 400.489 76.7065C397.353 79.8461 394.158 82.9348 391.034 86.0883L390.668 85.8742C387.966 83.0688 385.141 80.3835 382.39 77.6319C380.138 75.3793 377.891 73.1112 375.641 70.857C374.184 69.3973 372.812 67.8453 371.346 66.3917C370.406 65.4602 369.104 63.9543 368.179 63.1814C365.886 61.2628 362.818 63.8096 364.469 66.4472C364.617 66.6843 364.811 66.7367 364.904 66.8521C366.188 68.4165 367.785 69.7268 369.199 71.1634C371.384 73.3838 373.601 75.5733 375.794 77.7844C380.494 82.5206 385.061 87.4879 390.059 91.8716C390.976 92.3504 391.904 92.0009 392.669 91.4143C397.413 86.7072 402.071 81.9124 406.777 77.1685C409.431 74.4924 412.124 71.8656 414.753 69.1618C415.552 68.3395 417.798 66.5873 417.963 65.5341C418.325 63.2383 415.937 61.6216 414.063 63.0043H414.064Z" fill="white" fill-opacity="0.5"/>
<path d="M414.064 80.4549C412.334 81.7314 410.092 84.5352 408.464 86.1504C405.793 88.8065 403.15 91.4918 400.489 94.1572C397.354 97.2967 394.159 100.385 391.034 103.539L390.668 103.325C387.967 100.519 385.141 97.8341 382.39 95.0825C380.138 92.8299 377.891 90.5618 375.641 88.3076C374.184 86.8479 372.813 85.2959 371.346 83.8424C370.406 82.9108 369.104 81.4049 368.179 80.632C365.886 78.7134 362.817 81.2617 364.469 83.8993C364.617 84.1364 364.811 84.1888 364.904 84.3043C366.188 85.8687 367.785 87.179 369.199 88.6156C371.385 90.8359 373.601 93.0254 375.794 95.2365C380.494 99.9728 385.062 104.94 390.059 109.324C390.976 109.803 391.904 109.453 392.669 108.866C397.413 104.159 402.071 99.3646 406.777 94.6206C409.431 91.9445 412.124 89.3177 414.753 86.6139C415.552 85.7917 417.798 84.0394 417.963 82.9863C418.325 80.6905 415.937 79.0737 414.063 80.4564L414.064 80.4549Z" fill="white" fill-opacity="0.5"/>
<path d="M414.064 97.9061C412.334 99.1825 410.092 101.986 408.464 103.602C405.793 106.258 403.15 108.943 400.489 111.608C397.354 114.748 394.159 117.837 391.034 120.99L390.668 120.776C387.967 117.971 385.141 115.285 382.39 112.534C380.138 110.281 377.891 108.013 375.641 105.759C374.184 104.299 372.813 102.747 371.346 101.294C370.406 100.362 369.104 98.8561 368.179 98.0831C365.886 96.1646 362.817 98.7129 364.469 101.35C364.617 101.588 364.811 101.64 364.904 101.755C366.188 103.32 367.785 104.63 369.199 106.067C371.385 108.287 373.601 110.477 375.794 112.688C380.494 117.424 385.062 122.391 390.059 126.775C390.976 127.254 391.904 126.904 392.669 126.318C397.413 121.611 402.071 116.816 406.777 112.072C409.431 109.396 412.124 106.769 414.753 104.065C415.552 103.243 417.798 101.491 417.963 100.437C418.325 98.1417 415.937 96.5249 414.063 97.9076L414.064 97.9061Z" fill="white" fill-opacity="0.5"/>
<defs>
<clipPath id="clip0_1855_2">
<rect width="14.0659" height="14.0659" fill="white" transform="translate(208.06 746) rotate(30.1276)"/>
</clipPath>
<clipPath id="clip1_1855_2">
<rect width="14.0659" height="14.0659" fill="white" transform="translate(289.06 352) rotate(30.1276)"/>
</clipPath>
</defs>
</svg>
