<svg width="391" height="612" viewBox="0 0 391 612" fill="none" xmlns="http://www.w3.org/2000/svg">
<circle cx="107" cy="473" r="6" stroke="white" stroke-opacity="0.5" stroke-width="2"/>
<g clip-path="url(#clip0_1855_3)">
<path d="M334.648 581.895C334.152 578.888 333.055 575.973 332.292 573.033C331.112 568.489 329.87 563.961 328.673 559.423C326.544 551.351 324.652 543.143 322.23 535.155C330.744 532.912 339.236 530.565 347.739 528.29C353.225 526.822 358.726 525.447 364.2 523.924C365.865 523.46 370.12 522.884 371.132 521.64C373.337 518.929 371.438 515.016 367.946 515.393C364.722 515.742 359.677 517.688 356.334 518.556C350.84 519.985 345.361 521.474 339.873 522.923C333.409 524.629 326.904 526.224 320.443 527.956L320.126 527.4C318.715 521.704 317.049 516.069 315.533 510.406C314.292 505.77 313.068 501.117 311.83 496.479C311.029 493.477 310.409 490.419 309.59 487.417C309.065 485.493 308.501 482.547 307.876 480.841C306.326 476.606 300.397 477.593 300.562 482.274C300.578 482.695 300.791 482.91 300.826 483.131C301.322 486.139 302.419 489.053 303.182 491.993C304.361 496.538 305.604 501.065 306.801 505.603C308.93 513.676 310.822 521.883 313.244 529.871C304.73 532.114 296.238 534.462 287.735 536.736C282.249 538.205 276.748 539.579 271.274 541.102C269.609 541.566 265.354 542.142 264.342 543.386C262.137 546.098 264.036 550.011 267.528 549.633C270.751 549.285 275.797 547.338 279.143 546.469C284.637 545.041 290.116 543.552 295.604 542.103C302.068 540.397 308.573 538.802 315.034 537.069L315.351 537.625C316.762 543.321 318.426 548.955 319.944 554.619C321.185 559.256 322.409 563.909 323.647 568.546C324.448 571.549 325.068 574.607 325.887 577.609C326.412 579.533 326.976 582.478 327.601 584.185C329.149 588.418 335.081 587.43 334.914 582.748C334.898 582.327 334.685 582.112 334.65 581.891L334.648 581.895Z" fill="white" fill-opacity="0.5"/>
</g>
<g clip-path="url(#clip1_1855_3)">
<path d="M351.251 495.47C351.025 494.098 350.524 492.769 350.176 491.428C349.639 489.355 349.072 487.29 348.526 485.221C347.555 481.539 346.692 477.796 345.587 474.153C349.471 473.13 353.344 472.059 357.221 471.022C359.723 470.352 362.232 469.726 364.729 469.031C365.488 468.819 367.429 468.556 367.89 467.989C368.896 466.753 368.03 464.968 366.437 465.14C364.967 465.299 362.666 466.187 361.141 466.583C358.635 467.234 356.137 467.913 353.634 468.574C350.686 469.352 347.719 470.08 344.773 470.87L344.628 470.616C343.984 468.018 343.225 465.448 342.533 462.866C341.967 460.751 341.409 458.629 340.845 456.514C340.479 455.145 340.196 453.75 339.823 452.381C339.583 451.504 339.326 450.16 339.041 449.382C338.334 447.451 335.63 447.901 335.706 450.036C335.713 450.228 335.81 450.326 335.826 450.426C336.052 451.798 336.552 453.127 336.9 454.468C337.438 456.541 338.005 458.606 338.551 460.675C339.522 464.357 340.385 468.1 341.489 471.743C337.606 472.766 333.733 473.837 329.855 474.874C327.353 475.544 324.845 476.171 322.348 476.865C321.589 477.077 319.648 477.34 319.187 477.907C318.181 479.144 319.047 480.928 320.64 480.756C322.11 480.597 324.411 479.709 325.937 479.313C328.443 478.661 330.941 477.982 333.444 477.322C336.393 476.543 339.359 475.816 342.306 475.026L342.45 475.28C343.094 477.877 343.853 480.447 344.545 483.03C345.111 485.145 345.669 487.267 346.234 489.381C346.599 490.751 346.882 492.146 347.255 493.515C347.495 494.392 347.752 495.736 348.037 496.514C348.743 498.444 351.448 497.994 351.372 495.859C351.365 495.666 351.268 495.569 351.252 495.468L351.251 495.47Z" fill="white" fill-opacity="0.5"/>
</g>
<g clip-path="url(#clip2_1855_3)">
<path d="M273.179 579.421C273.104 578.963 272.936 578.518 272.82 578.069C272.64 577.376 272.45 576.685 272.268 575.993C271.943 574.761 271.654 573.509 271.285 572.29C272.584 571.948 273.879 571.59 275.177 571.243C276.014 571.019 276.853 570.809 277.688 570.577C277.942 570.506 278.591 570.418 278.746 570.228C279.082 569.815 278.792 569.218 278.26 569.275C277.768 569.329 276.998 569.626 276.488 569.758C275.65 569.976 274.814 570.203 273.977 570.424C272.99 570.684 271.998 570.928 271.012 571.192L270.964 571.107C270.748 570.238 270.494 569.379 270.263 568.515C270.074 567.807 269.887 567.097 269.698 566.39C269.576 565.932 269.481 565.465 269.356 565.007C269.276 564.714 269.19 564.264 269.095 564.004C268.858 563.358 267.954 563.508 267.979 564.223C267.981 564.287 268.014 564.32 268.019 564.353C268.095 564.812 268.262 565.257 268.379 565.705C268.559 566.399 268.748 567.089 268.931 567.782C269.256 569.013 269.544 570.266 269.914 571.484C268.615 571.827 267.319 572.185 266.022 572.532C265.185 572.756 264.346 572.965 263.511 573.198C263.257 573.269 262.607 573.356 262.453 573.546C262.117 573.96 262.406 574.557 262.939 574.499C263.431 574.446 264.201 574.149 264.711 574.017C265.549 573.799 266.385 573.571 267.223 573.35C268.209 573.09 269.201 572.847 270.187 572.582L270.235 572.667C270.451 573.536 270.704 574.396 270.936 575.26C271.125 575.967 271.312 576.677 271.501 577.385C271.623 577.843 271.718 578.309 271.843 578.767C271.923 579.061 272.009 579.51 272.104 579.771C272.34 580.417 273.245 580.266 273.22 579.552C273.218 579.487 273.185 579.455 273.18 579.421L273.179 579.421Z" fill="white" fill-opacity="0.5"/>
</g>
<g clip-path="url(#clip3_1855_3)">
<path d="M366.17 454.038C366.094 453.579 365.927 453.134 365.81 452.686C365.63 451.992 365.441 451.301 365.258 450.609C364.933 449.378 364.645 448.125 364.275 446.907C365.574 446.564 366.87 446.206 368.167 445.859C369.004 445.635 369.843 445.426 370.678 445.193C370.932 445.122 371.582 445.034 371.736 444.845C372.072 444.431 371.782 443.834 371.25 443.892C370.758 443.945 369.988 444.242 369.478 444.374C368.64 444.592 367.804 444.819 366.967 445.04C365.981 445.301 364.988 445.544 364.002 445.808L363.954 445.723C363.739 444.854 363.485 443.995 363.253 443.131C363.064 442.423 362.877 441.714 362.688 441.006C362.566 440.548 362.472 440.081 362.347 439.623C362.267 439.33 362.18 438.88 362.085 438.62C361.849 437.974 360.944 438.125 360.969 438.839C360.972 438.903 361.004 438.936 361.009 438.97C361.085 439.428 361.253 439.873 361.369 440.322C361.549 441.015 361.738 441.706 361.921 442.398C362.246 443.63 362.535 444.882 362.904 446.1C361.605 446.443 360.309 446.801 359.012 447.148C358.175 447.372 357.336 447.582 356.501 447.814C356.247 447.885 355.598 447.973 355.443 448.162C355.107 448.576 355.397 449.173 355.929 449.116C356.421 449.062 357.191 448.765 357.701 448.633C358.54 448.415 359.376 448.188 360.213 447.967C361.199 447.706 362.191 447.463 363.177 447.199L363.226 447.284C363.441 448.153 363.695 449.012 363.926 449.876C364.116 450.584 364.302 451.293 364.491 452.001C364.614 452.459 364.708 452.926 364.833 453.384C364.913 453.677 364.999 454.127 365.095 454.387C365.331 455.033 366.236 454.882 366.21 454.168C366.208 454.103 366.175 454.071 366.17 454.037L366.17 454.038Z" fill="white" fill-opacity="0.5"/>
</g>
<g clip-path="url(#clip4_1855_3)">
<path d="M370.529 90.1296C370.444 89.6108 370.255 89.1082 370.123 88.6011C369.919 87.8173 369.705 87.0365 369.499 86.2538C369.132 84.8616 368.805 83.4461 368.388 82.0685C369.856 81.6816 371.321 81.2767 372.787 80.8845C373.733 80.6312 374.682 80.3941 375.626 80.1314C375.913 80.0515 376.647 79.952 376.821 79.7375C377.202 79.2699 376.874 78.595 376.272 78.6601C375.716 78.7202 374.846 79.0559 374.269 79.2056C373.322 79.452 372.377 79.7088 371.43 79.9587C370.316 80.253 369.194 80.5281 368.079 80.8269L368.025 80.7309C367.781 79.7486 367.494 78.7767 367.233 77.8C367.018 77.0004 366.807 76.1979 366.594 75.3981C366.456 74.8802 366.349 74.3529 366.208 73.8351C366.117 73.5033 366.02 72.9953 365.912 72.701C365.645 71.9707 364.622 72.1408 364.651 72.9482C364.653 73.0208 364.69 73.0578 364.696 73.096C364.782 73.6147 364.971 74.1173 365.102 74.6244C365.306 75.4082 365.52 76.189 365.726 76.9717C366.094 78.3639 366.42 79.7795 366.838 81.1571C365.369 81.544 363.905 81.9488 362.438 82.3411C361.492 82.5944 360.543 82.8314 359.599 83.0941C359.312 83.1741 358.578 83.2735 358.404 83.4881C358.023 83.9557 358.351 84.6305 358.953 84.5654C359.509 84.5053 360.379 84.1696 360.956 84.0198C361.904 83.7734 362.849 83.5166 363.795 83.2667C364.91 82.9724 366.032 82.6973 367.147 82.3985L367.201 82.4945C367.445 83.4768 367.732 84.4485 367.993 85.4254C368.207 86.225 368.418 87.0275 368.632 87.8273C368.77 88.3451 368.877 88.8725 369.018 89.3903C369.109 89.7221 369.206 90.2301 369.314 90.5244C369.581 91.2545 370.604 91.0842 370.575 90.2767C370.572 90.204 370.536 90.167 370.53 90.1289L370.529 90.1296Z" fill="white" fill-opacity="0.5"/>
</g>
<g clip-path="url(#clip5_1855_3)">
<path d="M43.5293 309.13C43.4437 308.611 43.2545 308.108 43.1229 307.601C42.9195 306.817 42.7052 306.036 42.4988 305.254C42.1316 303.862 41.8052 302.446 41.3875 301.068C42.856 300.682 44.3206 300.277 45.7871 299.884C46.7332 299.631 47.6819 299.394 48.6261 299.131C48.9131 299.051 49.6471 298.952 49.8215 298.737C50.2019 298.27 49.8743 297.595 49.272 297.66C48.7161 297.72 47.846 298.056 47.2695 298.206C46.3218 298.452 45.3769 298.709 44.4304 298.959C43.3155 299.253 42.1937 299.528 41.0794 299.827L41.0246 299.731C40.7813 298.749 40.494 297.777 40.2325 296.8C40.0185 296 39.8075 295.198 39.594 294.398C39.4557 293.88 39.3488 293.353 39.2076 292.835C39.1171 292.503 39.0197 291.995 38.9119 291.701C38.6447 290.971 37.6221 291.141 37.6506 291.948C37.6533 292.021 37.69 292.058 37.6961 292.096C37.7817 292.615 37.9708 293.117 38.1024 293.624C38.3058 294.408 38.5202 295.189 38.7265 295.972C39.0937 297.364 39.4201 298.779 39.8378 300.157C38.3693 300.544 36.9047 300.949 35.4383 301.341C34.4921 301.594 33.5434 301.831 32.5992 302.094C32.3122 302.174 31.5782 302.274 31.4038 302.488C31.0235 302.956 31.351 303.631 31.9533 303.565C32.5092 303.505 33.3793 303.17 33.9564 303.02C34.9041 302.773 35.849 302.517 36.7954 302.267C37.9104 301.972 39.0322 301.697 40.1465 301.399L40.2012 301.494C40.4446 302.477 40.7316 303.448 40.9933 304.425C41.2074 305.225 41.4184 306.027 41.6319 306.827C41.7702 307.345 41.8771 307.873 42.0182 308.39C42.1088 308.722 42.2062 309.23 42.3139 309.524C42.5808 310.255 43.6039 310.084 43.5751 309.277C43.5724 309.204 43.5357 309.167 43.5297 309.129L43.5293 309.13Z" fill="white" fill-opacity="0.5"/>
</g>
<circle cx="51.5" cy="42.5" r="17" stroke="white" stroke-opacity="0.5" stroke-width="3"/>
<circle cx="70" cy="22" r="6" stroke="white" stroke-opacity="0.5" stroke-width="2"/>
<defs>
<clipPath id="clip0_1855_3">
<rect width="81.5567" height="81.5567" fill="white" transform="translate(302.936 476.777) rotate(30.1276)"/>
</clipPath>
<clipPath id="clip1_1855_3">
<rect width="37.1954" height="37.1954" fill="white" transform="translate(336.788 447.528) rotate(30.1276)"/>
</clipPath>
<clipPath id="clip2_1855_3">
<rect width="12.4428" height="12.4428" fill="white" transform="translate(268.341 563.384) rotate(30.1276)"/>
</clipPath>
<clipPath id="clip3_1855_3">
<rect width="12.4428" height="12.4428" fill="white" transform="translate(361.332 438) rotate(30.1276)"/>
</clipPath>
<clipPath id="clip4_1855_3">
<rect width="14.0659" height="14.0659" fill="white" transform="translate(365.06 72) rotate(30.1276)"/>
</clipPath>
<clipPath id="clip5_1855_3">
<rect width="14.0659" height="14.0659" fill="white" transform="translate(38.0601 291) rotate(30.1276)"/>
</clipPath>
</defs>
</svg>
