<svg width="399" height="533" viewBox="0 0 399 533" fill="none" xmlns="http://www.w3.org/2000/svg">
<circle cx="279" cy="142" r="8" stroke="white" stroke-opacity="0.5" stroke-width="2"/>
<g clip-path="url(#clip0_1857_4)">
<path d="M95.5293 93.1296C95.4437 92.6108 95.2545 92.1082 95.1229 91.6011C94.9195 90.8173 94.7052 90.0365 94.4988 89.2538C94.1316 87.8616 93.8052 86.4461 93.3875 85.0685C94.856 84.6816 96.3206 84.2767 97.7871 83.8845C98.7332 83.6312 99.6819 83.3941 100.626 83.1314C100.913 83.0515 101.647 82.952 101.821 82.7375C102.202 82.2699 101.874 81.595 101.272 81.6601C100.716 81.7202 99.846 82.0559 99.2695 82.2056C98.3218 82.452 97.3769 82.7088 96.4304 82.9587C95.3155 83.253 94.1937 83.5281 93.0794 83.8269L93.0246 83.7309C92.7813 82.7486 92.494 81.7767 92.2325 80.8C92.0185 80.0004 91.8075 79.1979 91.594 78.3981C91.4557 77.8802 91.3488 77.3529 91.2076 76.8351C91.1171 76.5033 91.0197 75.9953 90.9119 75.701C90.6447 74.9707 89.6221 75.1408 89.6506 75.9482C89.6533 76.0208 89.69 76.0578 89.6961 76.096C89.7817 76.6147 89.9708 77.1173 90.1024 77.6244C90.3058 78.4082 90.5202 79.189 90.7265 79.9717C91.0937 81.3639 91.4201 82.7795 91.8378 84.1571C90.3693 84.544 88.9047 84.9488 87.4383 85.3411C86.4921 85.5944 85.5434 85.8314 84.5992 86.0941C84.3122 86.1741 83.5782 86.2735 83.4038 86.4881C83.0235 86.9557 83.351 87.6305 83.9533 87.5654C84.5092 87.5053 85.3793 87.1696 85.9564 87.0198C86.9041 86.7734 87.849 86.5166 88.7954 86.2667C89.9104 85.9724 91.0322 85.6973 92.1465 85.3985L92.2012 85.4945C92.4446 86.4768 92.7316 87.4485 92.9933 88.4254C93.2074 89.225 93.4184 90.0275 93.6319 90.8273C93.7702 91.3451 93.8771 91.8725 94.0182 92.3903C94.1088 92.7221 94.2062 93.2301 94.3139 93.5244C94.5808 94.2545 95.6039 94.0842 95.5751 93.2767C95.5724 93.204 95.5357 93.167 95.5297 93.1289L95.5293 93.1296Z" fill="white" fill-opacity="0.5"/>
</g>
<circle cx="359" cy="7" r="6" stroke="white" stroke-opacity="0.5" stroke-width="2"/>
<circle cx="97.7651" cy="524" r="8" stroke="white" stroke-opacity="0.5" stroke-width="2"/>
<g clip-path="url(#clip1_1857_4)">
<path d="M132.294 446.13C132.209 445.611 132.02 445.108 131.888 444.601C131.685 443.817 131.47 443.036 131.264 442.254C130.897 440.862 130.57 439.446 130.153 438.068C131.621 437.682 133.086 437.277 134.552 436.884C135.498 436.631 136.447 436.394 137.391 436.131C137.678 436.051 138.412 435.952 138.587 435.737C138.967 435.27 138.639 434.595 138.037 434.66C137.481 434.72 136.611 435.056 136.035 435.206C135.087 435.452 134.142 435.709 133.196 435.959C132.081 436.253 130.959 436.528 129.844 436.827L129.79 436.731C129.546 435.749 129.259 434.777 128.998 433.8C128.784 433 128.573 432.198 128.359 431.398C128.221 430.88 128.114 430.353 127.973 429.835C127.882 429.503 127.785 428.995 127.677 428.701C127.41 427.971 126.387 428.141 126.416 428.948C126.418 429.021 126.455 429.058 126.461 429.096C126.547 429.615 126.736 430.117 126.868 430.624C127.071 431.408 127.285 432.189 127.492 432.972C127.859 434.364 128.185 435.779 128.603 437.157C127.134 437.544 125.67 437.949 124.203 438.341C123.257 438.594 122.309 438.831 121.364 439.094C121.077 439.174 120.343 439.274 120.169 439.488C119.789 439.956 120.116 440.631 120.718 440.565C121.274 440.505 122.144 440.17 122.722 440.02C123.669 439.773 124.614 439.517 125.561 439.267C126.676 438.972 127.797 438.697 128.912 438.399L128.966 438.494C129.21 439.477 129.497 440.448 129.758 441.425C129.973 442.225 130.184 443.027 130.397 443.827C130.535 444.345 130.642 444.873 130.783 445.39C130.874 445.722 130.971 446.23 131.079 446.524C131.346 447.255 132.369 447.084 132.34 446.277C132.338 446.204 132.301 446.167 132.295 446.129L132.294 446.13Z" fill="white" fill-opacity="0.5"/>
</g>
<circle cx="314.265" cy="486.5" r="17" stroke="white" stroke-opacity="0.5" stroke-width="3"/>
<circle cx="332.765" cy="466" r="6" stroke="white" stroke-opacity="0.5" stroke-width="2"/>
<defs>
<clipPath id="clip0_1857_4">
<rect width="14.0659" height="14.0659" fill="white" transform="translate(90.0601 75) rotate(30.1276)"/>
</clipPath>
<clipPath id="clip1_1857_4">
<rect width="14.0659" height="14.0659" fill="white" transform="translate(126.825 428) rotate(30.1276)"/>
</clipPath>
</defs>
</svg>
