<svg width="399" height="105" viewBox="0 0 399 105" fill="none" xmlns="http://www.w3.org/2000/svg">
<circle cx="314.265" cy="58.5" r="17" stroke="white" stroke-opacity="0.5" stroke-width="3"/>
<circle cx="332.765" cy="38" r="6" stroke="white" stroke-opacity="0.5" stroke-width="2"/>
<path d="M107.294 104.13C107.209 103.611 107.02 103.108 106.888 102.601C106.685 101.817 106.47 101.036 106.264 100.254C105.897 98.8616 105.57 97.4461 105.153 96.0685C106.621 95.6816 108.086 95.2767 109.552 94.8845C110.498 94.6312 111.447 94.3941 112.391 94.1314C112.678 94.0515 113.412 93.952 113.587 93.7375C113.967 93.2699 113.639 92.595 113.037 92.6601C112.481 92.7202 111.611 93.0559 111.035 93.2056C110.087 93.452 109.142 93.7088 108.196 93.9587C107.081 94.253 105.959 94.5281 104.844 94.8269L104.79 94.7309C104.546 93.7486 104.259 92.7767 103.998 91.8C103.784 91.0004 103.573 90.1979 103.359 89.3981C103.221 88.8802 103.114 88.3529 102.973 87.8351C102.882 87.5033 102.785 86.9953 102.677 86.701C102.41 85.9707 101.387 86.1408 101.416 86.9482C101.418 87.0208 101.455 87.0578 101.461 87.096C101.547 87.6147 101.736 88.1173 101.868 88.6244C102.071 89.4082 102.285 90.189 102.492 90.9717C102.859 92.3639 103.185 93.7795 103.603 95.1571C102.134 95.544 100.67 95.9488 99.2034 96.3411C98.2573 96.5944 97.3086 96.8314 96.3644 97.0941C96.0773 97.1741 95.3434 97.2735 95.169 97.4881C94.7886 97.9557 95.1162 98.6305 95.7184 98.5654C96.2743 98.5053 97.1445 98.1696 97.7215 98.0198C98.6692 97.7734 99.6141 97.5166 100.561 97.2667C101.676 96.9724 102.797 96.6973 103.912 96.3985L103.966 96.4945C104.21 97.4768 104.497 98.4485 104.758 99.4254C104.973 100.225 105.184 101.027 105.397 101.827C105.535 102.345 105.642 102.873 105.783 103.39C105.874 103.722 105.971 104.23 106.079 104.524C106.346 105.255 107.369 105.084 107.34 104.277C107.338 104.204 107.301 104.167 107.295 104.129L107.294 104.13Z" fill="white" fill-opacity="0.5"/>
</svg>
