<svg width="122" height="263" viewBox="0 0 122 263" fill="none" xmlns="http://www.w3.org/2000/svg">
<path d="M113.106 1.14896C109.198 4.0183 104.131 10.3211 100.455 13.9519C94.4184 19.9225 88.4478 25.9588 82.4357 31.9502C75.3528 39.0076 68.1347 45.9507 61.0761 53.0393L60.2479 52.5582C54.1456 46.2519 47.7627 40.2155 41.5461 34.0303C36.4591 28.9666 31.3826 23.8683 26.2991 18.8011C23.0072 15.5199 19.9092 12.031 16.5965 8.7636C14.4723 6.66957 11.5303 3.28452 9.44081 1.547C4.26031 -2.76565 -2.67013 2.95917 1.05845 8.8882C1.39458 9.42123 1.83119 9.53891 2.04257 9.7985C4.94296 13.3151 8.55025 16.2606 11.7452 19.4899C16.6831 24.4809 21.6904 29.4027 26.6456 34.373C37.2631 45.0197 47.5825 56.1855 58.8722 66.0395C60.9444 67.116 63.0408 66.3303 64.77 65.0115C75.4879 54.4307 86.0118 43.6525 96.6431 32.9885C102.638 26.973 108.723 21.0682 114.662 14.9903C116.468 13.142 121.541 9.20317 121.915 6.83571C122.733 1.67506 117.337 -1.95919 113.103 1.14896H113.106Z" fill="white" fill-opacity="0.5"/>
<path d="M113.107 40.375C109.198 43.2443 104.132 49.5472 100.455 53.178C94.4188 59.1485 88.4482 65.1849 82.436 71.1762C75.3531 78.2336 68.1351 85.1768 61.0764 92.2653L60.2482 91.7842C54.146 85.4779 47.763 79.4415 41.5464 73.2564C36.4595 68.1926 31.3829 63.0943 26.2995 58.0271C23.0075 54.7459 19.9096 51.257 16.5968 47.9896C14.4727 45.8956 11.5307 42.5106 9.44116 40.773C4.26066 36.4604 -2.67325 42.1887 1.0588 48.1177C1.39492 48.6507 1.83154 48.7684 2.04292 49.028C4.94331 52.5446 8.5506 55.49 11.7455 58.7193C16.6835 63.7104 21.6907 68.6322 26.646 73.6025C37.2634 84.2491 47.5828 95.415 58.8725 105.269C60.9447 106.345 63.0412 105.56 64.7703 104.241C75.4883 93.6602 86.0121 82.882 96.6434 72.218C102.638 66.2025 108.723 60.2977 114.663 54.2198C116.468 52.3715 121.541 48.4327 121.915 46.0652C122.733 40.9046 117.338 37.2703 113.103 40.3785L113.107 40.375Z" fill="white" fill-opacity="0.5"/>
<path d="M113.107 79.6045C109.198 82.4738 104.132 88.7767 100.455 92.4075C94.4188 98.378 88.4482 104.414 82.436 110.406C75.3531 117.463 68.1351 124.406 61.0764 131.495L60.2482 131.014C54.146 124.707 47.763 118.671 41.5464 112.486C36.4595 107.422 31.3829 102.324 26.2995 97.2566C23.0075 93.9754 19.9096 90.4865 16.5968 87.2191C14.4727 85.1251 11.5307 81.74 9.44116 80.0025C4.26066 75.6899 -2.67325 81.4182 1.0588 87.3472C1.39492 87.8802 1.83154 87.9979 2.04292 88.2575C4.94331 91.7741 8.5506 94.7195 11.7455 97.9488C16.6835 102.94 21.6907 107.862 26.646 112.832C37.2634 123.479 47.5828 134.644 58.8725 144.499C60.9447 145.575 63.0412 144.789 64.7703 143.471C75.4883 132.89 86.0121 122.111 96.6434 111.448C102.638 105.432 108.723 99.5271 114.663 93.4493C116.468 91.601 121.541 87.6622 121.915 85.2947C122.733 80.134 117.338 76.4998 113.103 79.6079L113.107 79.6045Z" fill="white" fill-opacity="0.5"/>
<path d="M113.106 119.149C109.198 122.018 104.131 128.321 100.455 131.952C94.4184 137.923 88.4478 143.959 82.4357 149.95C75.3528 157.008 68.1347 163.951 61.0761 171.039L60.2479 170.558C54.1456 164.252 47.7627 158.216 41.5461 152.03C36.4591 146.967 31.3826 141.868 26.2991 136.801C23.0072 133.52 19.9092 130.031 16.5965 126.764C14.4723 124.67 11.5303 121.285 9.44081 119.547C4.26031 115.234 -2.67013 120.959 1.05845 126.888C1.39458 127.421 1.83119 127.539 2.04257 127.798C4.94296 131.315 8.55025 134.261 11.7452 137.49C16.6831 142.481 21.6904 147.403 26.6456 152.373C37.2631 163.02 47.5825 174.185 58.8722 184.04C60.9444 185.116 63.0408 184.33 64.77 183.012C75.4879 172.431 86.0118 161.652 96.6431 150.989C102.638 144.973 108.723 139.068 114.662 132.99C116.468 131.142 121.541 127.203 121.915 124.836C122.733 119.675 117.337 116.041 113.103 119.149H113.106Z" fill="white" fill-opacity="0.5"/>
<path d="M113.107 158.375C109.198 161.244 104.132 167.547 100.455 171.178C94.4188 177.149 88.4482 183.185 82.436 189.176C75.3531 196.234 68.1351 203.177 61.0764 210.265L60.2482 209.784C54.146 203.478 47.763 197.442 41.5464 191.256C36.4595 186.193 31.3829 181.094 26.2995 176.027C23.0075 172.746 19.9096 169.257 16.5968 165.99C14.4727 163.896 11.5307 160.511 9.44116 158.773C4.26066 154.46 -2.67325 160.189 1.0588 166.118C1.39492 166.651 1.83154 166.768 2.04292 167.028C4.94331 170.545 8.5506 173.49 11.7455 176.719C16.6835 181.71 21.6907 186.632 26.646 191.602C37.2634 202.249 47.5828 213.415 58.8725 223.269C60.9447 224.345 63.0412 223.56 64.7703 222.241C75.4883 211.66 86.0121 200.882 96.6434 190.218C102.638 184.202 108.723 178.298 114.663 172.22C116.468 170.372 121.541 166.433 121.915 164.065C122.733 158.905 117.338 155.27 113.103 158.378L113.107 158.375Z" fill="white" fill-opacity="0.5"/>
<path d="M113.107 197.604C109.198 200.474 104.132 206.777 100.455 210.407C94.4188 216.378 88.4482 222.414 82.436 228.406C75.3531 235.463 68.1351 242.406 61.0764 249.495L60.2482 249.014C54.146 242.707 47.763 236.671 41.5464 230.486C36.4595 225.422 31.3829 220.324 26.2995 215.257C23.0075 211.975 19.9096 208.486 16.5968 205.219C14.4727 203.125 11.5307 199.74 9.44116 198.003C4.26066 193.69 -2.67325 199.418 1.0588 205.347C1.39492 205.88 1.83154 205.998 2.04292 206.257C4.94331 209.774 8.5506 212.72 11.7455 215.949C16.6835 220.94 21.6907 225.862 26.646 230.832C37.2634 241.479 47.5828 252.644 58.8725 262.499C60.9447 263.575 63.0412 262.789 64.7703 261.471C75.4883 250.89 86.0121 240.111 96.6434 229.448C102.638 223.432 108.723 217.527 114.663 211.449C116.468 209.601 121.541 205.662 121.915 203.295C122.733 198.134 117.338 194.5 113.103 197.608L113.107 197.604Z" fill="white" fill-opacity="0.5"/>
</svg>
