<svg width="134" height="134" viewBox="0 0 134 134" fill="none" xmlns="http://www.w3.org/2000/svg">
<g clip-path="url(#clip0_622_363)">
<path d="M86.9374 125.794C86.3434 122.195 85.0309 118.707 84.1177 115.188C82.7063 109.75 81.2192 104.332 79.7875 98.9014C77.2395 89.2415 74.9749 79.4193 72.0766 69.8605C82.2659 67.176 92.4281 64.3668 102.604 61.6454C109.168 59.8878 115.751 58.243 122.302 56.42C124.294 55.8653 129.387 55.1754 130.597 53.6866C133.236 50.4421 130.963 45.7596 126.785 46.2112C122.927 46.6282 116.89 48.9576 112.889 49.9964C106.314 51.7061 99.7575 53.4878 93.1904 55.2217C85.4541 57.2637 77.6702 59.1723 69.9383 61.2456L69.5585 60.58C67.87 53.7637 65.8764 47.0202 64.0624 40.2432C62.5772 34.6949 61.113 29.1267 59.6315 23.5774C58.6721 19.9839 57.9303 16.3245 56.9509 12.7322C56.3225 10.4295 55.6469 6.90467 54.8992 4.86271C53.0451 -0.204604 45.9497 0.976028 46.1474 6.57802C46.1658 7.08201 46.4207 7.3388 46.4626 7.6034C47.0566 11.2026 48.3691 14.6903 49.2823 18.2089C50.6936 23.6471 52.1808 29.0652 53.6125 34.496C56.1604 44.1559 58.4251 53.978 61.3234 63.5369C51.1341 66.2214 40.9719 69.0306 30.7964 71.752C24.2316 73.5096 17.649 75.1544 11.0975 76.9774C9.1057 77.532 4.01303 78.222 2.8029 79.7108C0.163644 82.9553 2.43662 87.6378 6.61532 87.1862C10.4727 86.7692 16.5104 84.4398 20.5144 83.4C27.0899 81.6903 33.6463 79.9085 40.2134 78.1747C47.9496 76.1327 55.7335 74.2241 63.4655 72.1508L63.8452 72.8164C65.5338 79.6327 67.525 86.3748 69.3413 93.1531C70.8266 98.7015 72.2908 104.27 73.7722 109.819C74.7317 113.412 75.4734 117.072 76.4529 120.664C77.0813 122.967 77.7569 126.492 78.5045 128.534C80.3563 133.6 87.4555 132.418 87.2553 126.815C87.2369 126.311 86.9821 126.054 86.9401 125.789L86.9374 125.794Z" fill="white" fill-opacity="0.5"/>
</g>
<defs>
<clipPath id="clip0_622_363">
<rect width="97.5984" height="97.5984" fill="white" transform="translate(48.9874) rotate(30.1276)"/>
</clipPath>
</defs>
</svg>
