<svg width="378" height="378" viewBox="0 0 378 378" fill="none" xmlns="http://www.w3.org/2000/svg">
<path d="M80.3717 208.677H101.647L105.318 199.146H104.648C104.027 200.571 103.29 201.845 102.443 202.977C101.605 204.108 100.498 204.997 99.1404 205.651C97.7824 206.304 95.9969 206.615 93.7755 206.615H83.6409V189.682H94.9742C95.9047 189.682 96.6004 189.958 97.0447 190.52C97.489 191.073 97.7153 191.727 97.7153 192.482V193.353H98.4446V184.015H97.7153V184.887C97.7153 185.65 97.489 186.295 97.0447 186.857C96.6004 187.41 95.9131 187.687 94.9742 187.687H83.6409V170.754H97.4471C98.4698 170.754 99.2829 171.089 99.878 171.751C100.482 172.422 100.775 173.218 100.775 174.157V175.155H101.504V167.619C100.926 167.845 99.8613 168.071 98.3021 168.323C96.7513 168.566 95.276 168.683 93.9012 168.683H74.5625V169.354H75.493C76.6079 169.354 77.5132 169.689 78.2257 170.351C78.9382 171.022 79.3071 171.869 79.3574 172.883V204.427C79.3071 205.408 78.9382 206.254 78.2257 206.958C77.5132 207.662 76.5995 208.023 75.493 208.023H74.5625V208.694H80.3633L80.3717 208.677Z" fill="white"/>
<path d="M120.945 207.009C124.256 208.694 128.154 209.566 132.647 209.608C135.27 209.608 137.76 209.264 140.116 208.577C142.471 207.889 144.584 206.892 146.445 205.609C148.314 204.318 149.823 202.784 150.98 201.007L151.709 191.87H151.105C150.879 195.516 149.932 198.492 148.238 200.806C146.545 203.119 144.357 204.813 141.666 205.911C138.984 207.001 135.966 207.546 132.63 207.546C129.118 207.504 126.075 206.716 123.493 205.182C120.911 203.648 118.924 201.468 117.524 198.652C116.125 195.835 115.42 192.507 115.42 188.685C115.42 184.862 116.125 181.4 117.524 178.584C118.924 175.767 120.903 173.579 123.459 172.053C126.016 170.519 129.051 169.757 132.563 169.757C136.696 169.757 140.241 170.645 143.2 172.422C146.16 174.199 148.121 177.142 149.102 181.224H149.697L148.23 171.827C146.185 170.536 143.762 169.539 140.962 168.826C138.162 168.114 135.379 167.753 132.63 167.753C128.145 167.753 124.239 168.6 120.928 170.285C117.617 171.978 115.068 174.375 113.291 177.485C111.514 180.604 110.617 184.334 110.617 188.693C110.617 193.052 111.506 196.715 113.291 199.825C115.068 202.935 117.617 205.341 120.928 207.026L120.945 207.009Z" fill="white"/>
<path d="M163.789 208.677H185.064L188.736 199.146H188.065C187.445 200.571 186.707 201.845 185.861 202.977C185.022 204.108 183.916 204.997 182.558 205.651C181.2 206.304 179.414 206.615 177.193 206.615H167.058V172.942C167.058 171.919 167.452 171.064 168.223 170.377C168.995 169.689 169.925 169.337 170.99 169.337H171.786V168.667H157.988V169.337H158.785C159.9 169.337 160.83 169.681 161.584 170.377C162.347 171.064 162.741 171.919 162.792 172.942V204.418C162.741 205.399 162.372 206.246 161.66 206.95C160.947 207.654 160.034 208.015 158.927 208.015H157.997V208.685H163.797L163.789 208.677Z" fill="white"/>
<path d="M202.465 208.007H201.929C201.132 208.007 200.42 207.646 199.799 206.909C199.204 206.213 199.154 205.224 199.573 203.975L203.303 195.148H220.152L223.765 203.95C224.193 205.216 224.143 206.213 223.547 206.917C222.927 207.655 222.231 208.015 221.477 208.015H220.94V208.686H234.612V208.015H234.084C233.196 208.015 232.257 207.697 231.285 207.051C230.312 206.406 229.482 205.333 228.812 203.816H228.795L212.474 167.737H211.87C211.828 168.181 211.669 168.785 211.401 169.539C211.133 170.294 210.839 171.065 210.504 171.836C210.177 172.616 209.758 173.538 209.272 174.602L195.575 203.967C194.879 205.392 194.074 206.431 193.135 207.051C192.154 207.697 191.207 208.015 190.268 208.015H189.74V208.686H202.473V208.015L202.465 208.007ZM211.845 174.912L219.323 193.136H204.142L211.845 174.912Z" fill="white"/>
<path d="M231.336 173.998C231.336 173.068 231.638 172.28 232.233 171.635C232.837 170.989 233.641 170.645 234.672 170.603H246.743V204.411C246.702 205.391 246.299 206.238 245.545 206.942C244.782 207.655 243.877 208.007 242.812 208.007H242.016V208.677H255.755V208.007H255.025C253.952 208.007 253.047 207.655 252.293 206.942C251.538 206.23 251.136 205.383 251.094 204.411V170.603H263.165C264.188 170.645 265.001 170.989 265.596 171.635C266.199 172.28 266.493 173.068 266.493 173.998V175.071H267.222V167.535C266.828 167.67 266.199 167.829 265.353 168.005C264.515 168.181 263.592 168.332 262.587 168.441C261.589 168.558 260.642 168.608 259.753 168.608H238.084C237.196 168.608 236.24 168.558 235.217 168.441C234.195 168.332 233.273 168.189 232.451 168.005C231.63 167.829 231.018 167.678 230.615 167.535V175.071H231.345V173.998H231.336Z" fill="white"/>
<path d="M277.616 208.677H298.891L302.562 199.146H301.892C301.272 200.571 300.534 201.845 299.687 202.977C298.849 204.108 297.742 204.997 296.385 205.651C295.027 206.304 293.241 206.615 291.02 206.615H280.885V189.682H292.218C293.149 189.682 293.845 189.958 294.289 190.52C294.733 191.073 294.959 191.727 294.959 192.482V193.353H295.689V184.015H294.959V184.887C294.959 185.65 294.733 186.295 294.289 186.857C293.845 187.41 293.157 187.687 292.218 187.687H280.885V170.754H294.691C295.714 170.754 296.527 171.089 297.122 171.751C297.726 172.422 298.019 173.218 298.019 174.157V175.155H298.748V167.619C298.17 167.845 297.105 168.071 295.546 168.323C293.995 168.566 292.52 168.683 291.145 168.683H271.807V169.354H272.737C273.852 169.354 274.757 169.689 275.47 170.351C276.182 171.022 276.551 171.869 276.602 172.883V204.427C276.551 205.408 276.182 206.254 275.47 206.958C274.757 207.662 273.844 208.023 272.737 208.023H271.807V208.694H277.607L277.616 208.677Z" fill="white"/>
<path d="M0 0V377.134H377.126V0H0ZM366.019 366.019H11.1154V11.1154H366.019V366.019Z" fill="white"/>
</svg>
