<svg width="571" height="134" viewBox="0 0 571 134" fill="none" xmlns="http://www.w3.org/2000/svg">
<path d="M0.110224 39.9012C0.431431 39.3474 1.15138 39.1037 1.70519 39.3474C3.22261 40.1449 6.5676 40.6211 9.92367 40.6211C11.1199 40.6211 12.3161 40.5436 13.2687 40.3775L13.9886 40.2224L13.4348 40.0673C12.0835 39.5135 10.5661 38.9486 9.20372 38.3173C7.85243 37.5974 6.49007 36.7999 5.53752 35.8473C4.58498 34.8948 4.02009 33.4549 4.74004 32.015C5.85873 29.8662 9.12619 28.9026 12.0724 28.4263C14.0661 28.1051 16.3035 28.0276 18.3747 28.0276C19.571 28.0276 20.7672 28.0276 21.8083 28.1051C23.0821 28.1827 23.3258 29.8551 22.2071 30.3425L20.8558 31.2175C20.3795 31.5387 20.1358 31.8599 19.9808 32.015L19.9032 32.1701V32.2476C19.8257 32.8014 19.3494 33.2001 18.7846 33.2887C18.1421 33.2887 17.5883 32.8125 17.5108 32.1701C17.5108 31.7713 17.5883 31.5276 17.6659 31.295L17.9871 30.6526L18.2308 30.409H17.1896C15.5946 30.4865 13.9221 30.564 12.4047 30.8077C10.9648 31.0514 9.61353 31.3615 8.66099 31.7602C7.61983 32.2365 7.06603 32.6353 6.91096 33.034C6.7559 33.3552 6.7559 33.6764 7.3097 34.2302C7.86351 34.8726 8.90466 35.504 10.267 36.1464C12.9031 37.4201 16.0931 38.3838 17.688 39.0151C18.3304 39.3363 18.563 40.2113 18.1643 40.8537C17.4444 41.8063 16.0155 42.2936 14.7307 42.5262C13.3794 42.8474 11.6183 43.0025 9.94582 43.0025C6.60083 43.0025 2.69096 42.5262 0.697258 41.4851C0.0548431 41.1639 -0.177755 40.4439 0.143452 39.8901L0.110224 39.9012Z" fill="white"/>
<path d="M34.5578 26.3327C37.1939 22.9877 41.0151 18.6016 44.925 14.3705C44.6038 14.4481 44.3712 14.4481 44.1275 14.4481C36.7951 15.0905 29.0529 15.9655 21.7205 17.1617C20.1256 17.3168 19.8819 15.3231 21.3993 15.0129C28.8203 13.7392 36.5515 12.8642 43.8949 12.2218L47.1624 11.9781C51.7036 7.11567 56.1783 2.72952 58.8034 0.492148C59.9221 -0.781606 61.9158 0.647213 60.4759 2.16464C57.9284 4.23588 54.3397 7.74701 50.5849 11.7344C58.161 11.1806 65.2608 10.9369 71.0868 10.9369C78.4192 10.8594 83.924 11.1806 85.8402 11.5793C86.4826 11.9006 86.7927 12.5319 86.6377 13.1743C86.4826 13.8167 85.7626 14.0493 85.1978 13.9718C83.924 13.573 79.8591 13.1743 73.9555 13.1743H71.0868C64.7845 13.1743 56.8872 13.4955 48.3586 14.1269C43.9725 18.8342 39.5863 23.8628 36.4739 27.7616C27.9453 38.45 10.7884 60.1371 7.52095 67.1593C6.40226 68.998 4.65223 67.5581 5.44971 65.9631C10.5558 56.3933 29.3741 32.8676 34.5578 26.3217V26.3327Z" fill="white"/>
<path d="M59.5209 32.0039C59.3658 30.3314 60.2408 29.0576 61.2709 28.4927C62.8659 27.7728 63.2646 29.2127 62.9434 30.1652C62.7884 30.6415 62.6222 31.2064 62.301 31.7602H62.3785C63.0985 32.4026 65.0147 33.5102 67.8058 33.5102C69.0796 33.5102 70.5195 33.2665 72.1144 32.6352C72.6683 32.4801 73.3107 32.7903 73.6319 33.3552C73.8756 33.9976 73.5543 34.7064 72.9119 34.9501C71.317 35.5925 69.5669 35.9027 67.8834 35.9027C65.3359 35.9027 62.8548 35.1827 61.1823 33.9865C60.6285 34.939 59.9086 36.0577 59.1886 37.0214C57.35 39.4913 54.8025 42.1274 52.0888 42.2825C50.0176 42.4376 47.9463 40.8426 47.7027 38.4502C45.0666 41.5626 40.8466 44.9075 38.0554 42.6812C37.0142 41.8062 36.9367 40.5325 37.1028 39.5689C37.3465 38.4502 37.8228 37.254 38.4541 36.0577C39.8054 33.7428 43.3165 29.833 45.6314 28.0829C46.1852 27.6066 46.9052 27.7617 47.3039 28.238C47.7027 28.7918 47.6251 29.5117 47.0603 29.9105C44.5128 31.9042 39.8829 36.6891 39.4842 39.9565C39.2405 41.0752 40.2817 41.2303 41.0792 40.9977C43.4716 40.2777 48.1014 34.939 48.8989 33.8204C49.3752 33.1004 49.4527 32.9453 49.6188 32.7792C50.4939 31.583 52.3325 32.7792 51.6125 34.053C51.535 34.208 51.4575 34.3742 51.1363 34.7729C50.5825 36.2903 49.6188 38.5166 50.66 39.5578C52.4986 41.3964 56.6411 36.4454 57.2835 35.5704C58.1585 34.3742 58.956 33.1779 59.5209 32.0593V31.9817V32.0039Z" fill="white"/>
<path d="M68.4495 40.6985C68.2945 39.5023 68.6932 38.0624 69.3245 36.7111C70.7644 33.9199 73.5556 30.8075 77.2218 29.135C77.6981 28.9799 78.1744 29.0575 78.5731 29.2901L78.6506 29.3676C78.8943 28.4926 79.4481 28.1714 80.3231 28.1714C80.5668 28.1714 80.7994 28.2489 81.1206 28.3265C82.638 28.8803 83.358 29.7663 83.4355 30.874V30.9515C85.5067 31.904 87.8217 32.2252 90.1366 32.2252C92.2853 32.2252 94.5227 31.904 96.4389 31.5053C97.0813 31.3502 97.7902 31.6604 98.0338 32.2252C98.1889 32.8677 97.8788 33.499 97.3139 33.6651C94.7664 34.2189 92.529 34.4626 90.4578 34.4626C87.8216 34.4626 85.5178 34.0639 83.358 33.4215L83.2804 33.5765C82.8817 34.8503 82.2393 36.2126 81.3643 37.3203C79.4481 39.7902 75.1395 43.8552 71.1521 43.3789C69.4021 43.1352 68.516 42.0276 68.4384 40.6652L68.4495 40.6985ZM81.1317 32.48C79.9355 31.6825 79.293 31.1287 78.9829 30.5638L78.8278 30.8075C78.6728 30.9626 78.5842 30.9626 78.4291 31.0512C77.0778 31.605 75.0841 32.9673 73.2455 34.961C71.3293 37.1098 69.6568 40.7871 71.3293 41.2634C73.6442 41.9058 77.3879 38.6272 79.3816 36.0797C80.2567 34.806 80.9766 33.4436 81.1317 32.4911V32.48Z" fill="white"/>
<path d="M98.2004 29.0465C98.5991 28.4927 99.3966 28.4927 99.8729 28.8914C100.349 29.2902 100.427 30.0876 100.028 30.5639L97.3918 33.6763C100.98 31.8377 109.83 28.0164 113.663 28.7364C115.18 29.0576 115.258 30.575 114.538 31.45C113.419 32.8899 110.794 32.8899 111.99 31.1288L112.234 30.8851H111.913C105.776 31.5275 97.713 35.9137 93.1718 39.1036C92.3743 39.6574 91.4993 40.7761 89.2619 43.091C88.3869 44.1322 86.7144 43.091 87.2682 41.8948C87.5119 41.1748 88.9407 39.1036 98.2004 29.0576V29.0465Z" fill="white"/>
<path d="M115.657 42.7702C115.579 42.7702 115.413 42.7702 115.336 42.6926C115.18 42.6926 114.616 42.449 114.461 41.8176C114.305 41.0977 114.782 40.6989 114.859 40.5439C115.014 40.4663 115.18 40.3888 115.258 40.3888V40.3113C119.489 38.3951 124.75 36.0802 129.214 33.2115L129.768 32.8127L126.179 33.2115C123.543 33.5327 120.829 33.7653 118.282 33.8539C117.639 33.8539 117.086 33.3776 117.086 32.7352C117.086 32.0153 117.562 31.4615 118.204 31.4615C123.144 31.3064 128.572 30.5089 133.921 29.944C135.04 29.789 135.76 31.2178 134.874 32.0153C131.285 35.1277 126.257 37.8413 121.793 39.9125L121.638 39.9901H122.435C123.709 39.9125 125.149 39.9125 126.578 39.9125C128.727 39.9125 130.886 39.9901 132.714 40.3888C133.356 40.5439 133.755 41.1863 133.667 41.8287C133.511 42.4711 132.869 42.8699 132.227 42.7813C130.632 42.3825 128.483 42.2274 126.401 42.2274C125.127 42.2274 123.853 42.305 122.568 42.3825L118.26 42.6262C117.617 42.7037 117.141 42.7813 116.665 42.7813H115.624L115.657 42.7702Z" fill="white"/>
<path d="M139.348 40.6985C139.193 39.5023 139.592 38.0624 140.223 36.7111C141.663 33.9199 144.454 30.8075 148.12 29.135C148.597 28.9799 149.073 29.0575 149.472 29.2901L149.549 29.3676C149.793 28.4926 150.347 28.1714 151.222 28.1714C151.465 28.1714 151.698 28.2489 152.019 28.3265C153.536 28.8803 154.256 29.7663 154.334 30.874V30.9515C156.405 31.904 158.72 32.2252 161.035 32.2252C163.184 32.2252 165.421 31.904 167.337 31.5053C167.98 31.3502 168.689 31.6604 168.932 32.2252C169.087 32.8677 168.777 33.499 168.212 33.6651C165.665 34.2189 163.427 34.4626 161.356 34.4626C158.72 34.4626 156.416 34.0639 154.256 33.4215L154.179 33.5765C153.78 34.8503 153.138 36.2126 152.263 37.3203C150.347 39.7902 146.038 43.8552 142.051 43.3789C140.301 43.1352 139.414 42.0276 139.337 40.6652L139.348 40.6985ZM152.03 32.48C150.834 31.6825 150.191 31.1287 149.881 30.5638L149.726 30.8075C149.571 30.9626 149.483 30.9626 149.328 31.0512C147.976 31.605 145.983 32.9673 144.144 34.961C142.228 37.1098 140.555 40.7871 142.228 41.2634C144.543 41.9058 148.286 38.6272 150.28 36.0797C151.155 34.806 151.875 33.4436 152.03 32.4911V32.48Z" fill="white"/>
<path d="M161.588 38.2177L168.522 30.3204C168.92 29.7666 169.718 29.7666 170.194 30.1653C170.67 30.5641 170.748 31.3616 170.349 31.8378L168.112 34.3854C172.099 32.3917 179.919 29.5229 183.984 29.9992C185.424 30.1543 185.822 31.5942 185.025 32.7904C184.072 34.1417 181.038 37.1765 181.038 38.694C181.359 40.0452 187.262 38.7715 190.452 37.4977C193.963 36.0578 197.785 33.8315 198.826 33.1116C199.38 32.7904 200.1 32.9565 200.498 33.4328C200.82 33.9866 200.653 34.7841 200.177 35.1053C198.981 35.9028 194.994 38.3728 191.25 39.7351C188.614 40.7763 185.269 41.6513 182.721 41.6513C181.846 41.6513 181.126 41.5738 180.484 41.3301C179.133 40.7763 178.645 39.8126 178.645 38.7826C178.645 37.5863 179.199 36.3126 179.919 35.4376C180.639 34.485 181.514 33.2888 182.555 32.0926C176.098 32.735 167.403 36.7224 163.249 39.9899L161.654 41.8285C160.779 42.8697 158.863 41.906 159.661 40.6323C160.137 39.9899 160.613 39.1924 161.577 38.2398L161.588 38.2177Z" fill="white"/>
<path d="M196.679 34.5515C198.03 32.3141 200.345 30.3204 202.66 29.0466C204.975 27.7729 207.688 26.9754 209.76 27.8504L210.402 28.1716C211.2 28.7254 211.355 29.6891 211.045 30.4865C210.003 32.6353 201.874 37.4202 198.684 35.8252C197.487 37.6639 197.166 39.8902 198.761 40.5326C199.714 40.9313 201.154 41.0864 202.749 41.0864C212.961 41.0864 233.618 34.3078 236.885 32.6353C237.528 32.3141 238.236 32.6353 238.48 33.2777C238.724 33.9201 238.48 34.5515 237.838 34.8727C229.542 38.3838 213.991 42.925 202.749 43.4124C198.595 43.5674 196.047 42.1386 195.494 40.2224C195.017 38.3838 195.571 36.3126 196.69 34.5625L196.679 34.5515ZM200.267 33.754C201.785 34.3964 206.891 31.6052 208.486 29.9217C205.374 29.5229 202.261 31.9154 200.267 33.754Z" fill="white"/>
<path d="M264.067 42.7702C263.989 42.7702 263.823 42.7702 263.746 42.6926C263.591 42.6926 263.026 42.449 262.871 41.8176C262.716 41.0977 263.192 40.6989 263.269 40.5439C263.424 40.4663 263.591 40.3888 263.668 40.3888V40.3113C267.899 38.3951 273.16 36.0802 277.624 33.2115L278.178 32.8127L274.589 33.2115C271.953 33.5327 269.251 33.7653 266.692 33.8539C266.05 33.8539 265.496 33.3776 265.496 32.7352C265.496 32.0153 265.972 31.4615 266.614 31.4615C271.554 31.3064 276.982 30.5089 282.331 29.944C283.45 29.789 284.17 31.2178 283.284 32.0153C279.695 35.1277 274.667 37.8413 270.203 39.9125L270.048 39.9901H270.845C272.119 39.9125 273.559 39.9125 274.988 39.9125C277.137 39.9125 279.297 39.9901 281.124 40.3888C281.767 40.5439 282.165 41.1863 282.077 41.8287C281.922 42.4711 281.279 42.8699 280.637 42.7813C279.042 42.3825 276.893 42.2274 274.811 42.2274C273.537 42.2274 272.263 42.305 270.978 42.3825L266.67 42.6262C266.027 42.7037 265.551 42.7813 265.075 42.7813H264.034L264.067 42.7702Z" fill="white"/>
<path d="M301.945 58.0767L304.493 54.333L305.135 53.2143C313.187 39.9783 323.798 26.4987 327.542 22.035C327.941 21.4812 328.661 21.4812 329.214 21.8799C329.768 22.2787 329.768 22.9986 329.369 23.5524C327.775 25.5461 325.626 28.1823 321.638 33.5985C323.632 31.5273 325.947 29.8548 328.339 29.2123C329.779 28.8136 331.374 29.2899 332.006 31.051C332.881 33.521 330.654 36.6333 328.262 38.7821L327.786 39.1808L329.225 38.7821C333.135 37.741 339.039 35.1159 343.503 32.6459C344.145 32.3247 344.854 32.5684 345.175 33.1222C345.496 33.7646 345.253 34.4735 344.699 34.7947C339.438 37.6634 332.582 40.5321 328.184 41.4958C326.036 41.972 324.042 42.2932 322.203 42.2157H321.804L321.483 42.2932C320.21 42.3708 319.091 42.1382 318.216 41.2521L317.817 40.8533C314.55 44.5195 310.485 49.7032 306.974 54.8868L306.497 55.6067L305.057 57.9992C302.266 62.7841 299.553 67.3253 297.559 71.3237C296.839 72.675 294.768 71.8 295.321 70.3712C296.595 67.0262 299.154 62.5515 301.945 58.0878V58.0767ZM329.702 31.8374C329.547 31.3611 329.059 31.5162 328.827 31.5162C328.029 31.7598 326.833 32.3137 325.559 33.2662C323.244 34.8612 320.852 37.1761 319.501 38.771L319.257 39.0147L319.578 39.1698C319.899 39.491 320.453 39.646 321.328 39.8122H321.572L321.971 39.7347C323.012 39.491 324.286 38.8596 325.714 37.741C328.661 35.5036 330.101 32.8785 329.702 31.8374Z" fill="white"/>
<path d="M339.273 41.0971C338.631 40.3771 338.398 39.6572 338.398 38.8597C338.398 37.9847 338.72 37.0211 339.351 36.2236C340.304 34.7837 342.065 33.4324 344.136 32.3913C346.683 31.1175 349.962 30.2425 353.229 30.2425C354.979 30.2425 356.741 30.4862 358.491 31.1175L359.288 31.4387H359.366L361.282 30.0874L361.359 30.0099L361.514 29.9324C361.669 29.7773 361.758 29.6887 361.836 29.6887V29.6112C363.032 28.7361 364.472 30.4862 363.353 31.4498L363.109 31.6935L362.866 31.8485L362.788 31.9261C361.991 32.646 360.396 34.0748 359.199 35.5923C358.324 36.6334 357.848 37.5084 357.848 38.1398C357.771 38.3834 357.848 38.461 357.848 38.5385C357.926 38.616 358.092 38.7822 358.646 38.9373C360.484 39.4135 363.907 38.461 367.739 36.6999C371.328 35.1049 374.518 33.1112 375.559 32.3913C376.113 31.9925 376.833 32.0701 377.231 32.6349C377.63 33.1112 377.553 33.9087 376.988 34.3074C375.791 35.1824 372.358 37.2537 368.692 38.9373C365.181 40.5322 360.794 42.0496 358.003 41.2522C356.165 40.6984 355.212 39.4135 355.456 37.8186C355.533 37.3423 355.699 36.866 355.854 36.3787L355.932 36.2236L354.093 37.2648L352.255 38.2173C349.785 39.4911 347.149 40.6097 345 41.3297C343.161 41.8835 340.769 42.4484 339.495 41.3297L339.251 41.086L339.273 41.0971ZM344.291 39.0148C346.285 38.3724 348.755 37.3423 351.147 36.0575C352.986 35.1824 354.813 34.1413 356.408 33.1887L356.652 33.0337L356.009 32.8786C355.134 32.7235 354.171 32.6349 353.218 32.6349C350.35 32.6349 347.558 33.4324 345.244 34.5511C343.327 35.5037 341.976 36.6223 341.256 37.6635C340.935 38.1398 340.614 38.7822 340.857 39.2585L341.012 39.4135C341.012 39.4911 341.167 39.5686 341.887 39.5686C342.53 39.4911 343.327 39.3249 344.28 39.0148H344.291Z" fill="white"/>
<path d="M370.686 39.9012C371.007 39.3474 371.727 39.1037 372.281 39.3474C373.798 40.1449 377.143 40.6211 380.499 40.6211C381.695 40.6211 382.892 40.5436 383.844 40.3775L384.564 40.2224L384.01 40.0673C382.659 39.5135 381.142 38.9486 379.779 38.3173C378.428 37.5974 377.066 36.7999 376.113 35.8473C375.161 34.8948 374.596 33.4549 375.316 32.015C376.434 29.8662 379.702 28.9026 382.648 28.4263C384.642 28.1051 386.879 28.0276 388.95 28.0276C390.146 28.0276 391.343 28.0276 392.384 28.1051C393.658 28.1827 393.901 29.8551 392.783 30.3425L391.431 31.2175C390.955 31.5387 390.711 31.8599 390.556 32.015L390.479 32.1701V32.2476C390.401 32.8014 389.925 33.2001 389.36 33.2887C388.718 33.2887 388.164 32.8125 388.086 32.1701C388.086 31.7713 388.164 31.5276 388.241 31.295L388.563 30.6526L388.806 30.409H387.765C386.17 30.4865 384.498 30.564 382.98 30.8077C381.54 31.0514 380.189 31.3615 379.237 31.7602C378.195 32.2365 377.642 32.6353 377.486 33.034C377.331 33.3552 377.331 33.6764 377.885 34.2302C378.439 34.8726 379.48 35.504 380.831 36.1464C383.468 37.4201 386.658 38.3838 388.252 39.0151C388.895 39.3363 389.127 40.2113 388.729 40.8537C388.009 41.8063 386.58 42.2936 385.295 42.5262C383.944 42.8474 382.183 43.0025 380.51 43.0025C377.165 43.0025 373.255 42.5262 371.262 41.4851C370.619 41.1639 370.387 40.4439 370.708 39.8901L370.686 39.9012Z" fill="white"/>
<path d="M357.448 72.6749C357.603 70.2824 358.722 67.9675 359.763 66.3725C365.423 58.3202 380.974 48.983 396.691 42.2044L400.435 40.687L401.387 39.0145C402.739 36.8658 403.857 34.861 404.821 33.2771L405.541 31.9258L405.22 32.1695C403.946 32.967 402.583 33.842 401.155 34.6395C400.512 34.9607 399.803 34.717 399.482 34.1632C399.161 33.6094 399.405 32.8894 399.958 32.5682C403.702 30.4195 407.136 28.027 408.254 27.2295C409.296 26.5096 410.647 27.7058 410.004 28.8245C409.849 28.9796 407.933 32.7344 404.743 38.1506L404.023 39.3468L405.297 38.8705C409.528 37.3531 413.593 36.0018 417.425 35.1268C418.068 34.9717 418.699 35.2819 418.865 35.9243C419.02 36.5667 418.622 37.2756 417.99 37.4417C414.247 38.3167 410.171 39.5905 405.951 41.1079L402.041 42.6253L400.689 44.8627C398.219 48.7726 395.351 53.1587 392.316 57.3787C384.264 68.4659 373.896 80.1069 365.035 80.1069C363.595 80.1069 362.167 79.7857 360.804 79.0658C358.013 77.6259 357.216 75.0784 357.459 72.6859L357.448 72.6749ZM397.167 45.9593L398.286 44.2092L397.566 44.4529C382.093 51.0764 367.018 60.2474 361.757 67.746C360.804 69.0973 359.918 71.0134 359.763 72.8521C359.686 74.6021 360.162 76.042 361.834 76.917C362.876 77.3933 363.906 77.6369 365.024 77.6369C372.202 77.6369 381.616 67.9897 390.389 55.9388C392.781 52.5938 395.096 49.1602 397.167 45.9703V45.9593ZM411.998 21.1487C412.319 20.9051 412.718 20.5063 413.117 19.9525L414.069 18.6788C414.468 18.125 415.266 17.9588 415.742 18.3576C416.296 18.7563 416.462 19.4762 416.063 20.0301C415.742 20.4288 415.421 20.9826 414.944 21.4699C414.546 22.0238 414.069 22.5886 413.504 22.9874C413.028 23.3861 412.231 23.3861 411.832 22.8323C411.433 22.356 411.511 21.5586 411.987 21.1598L411.998 21.1487Z" fill="white"/>
<path d="M436.719 40.4547C434.88 39.9008 434.005 38.616 434.249 37.0211C434.249 36.4672 434.404 35.9799 434.647 35.5036L434.725 35.3486L434.647 35.4261L430.981 37.3423C428.434 38.5385 425.875 39.6572 423.726 40.2885C422.685 40.6097 421.489 40.8423 420.459 40.8423C419.584 40.8423 418.786 40.6873 418.144 40.1224C418.144 40.0448 418.066 39.9673 417.989 39.9673C417.435 39.2474 417.191 38.5274 417.191 37.8185C417.191 36.866 417.513 35.9024 418.144 35.1049C419.096 33.665 420.858 32.3912 423.006 31.3612C425.399 30.1649 428.511 29.3675 431.701 29.3675C433.54 29.3675 435.445 29.6887 437.283 30.32L438.158 30.6412L438.712 30.2425L440.064 29.3675L440.219 29.2899L440.296 29.2124C440.451 29.0573 440.617 28.9687 440.617 28.8912C441.814 28.0162 443.254 29.7662 442.135 30.7298L441.891 30.9735L441.647 31.1286L441.57 31.2061C440.772 31.8485 439.177 33.2773 437.981 34.7948C437.106 35.8359 436.63 36.7109 436.63 37.2647C436.552 37.5084 436.63 37.6635 436.63 37.6635C436.708 37.8185 436.951 37.9847 437.427 38.1397C438.38 38.461 440.772 38.616 444.206 38.616C447.474 38.6936 451.538 38.5385 455.526 38.3723C463.656 38.0511 471.475 37.4198 473.314 36.9324C473.957 36.7774 474.665 37.1761 474.754 37.8075C474.909 38.4499 474.51 39.0812 473.879 39.2474C471.73 39.8012 463.589 40.4436 455.614 40.7648C451.627 40.9199 447.562 41.086 444.206 41.0085C440.939 41.0085 438.147 40.8534 436.708 40.4547H436.719ZM423.084 37.9847C425 37.4309 427.47 36.3897 429.94 35.1935C431.779 34.3185 433.606 33.3549 435.201 32.4023L435.445 32.2473L434.725 32.0922C433.684 31.8485 432.731 31.771 431.69 31.771C428.976 31.771 426.263 32.4909 424.036 33.521C422.12 34.4736 420.769 35.5147 420.049 36.5559C419.65 37.1097 419.329 37.6745 419.65 38.1508L419.805 38.3059C419.805 38.3834 419.96 38.461 420.603 38.461C421.245 38.461 422.043 38.3059 423.073 37.9847H423.084Z" fill="white"/>
<path d="M139.879 127.269C139.636 125.996 140.433 124.157 141.319 122.407C142.36 120.491 143.867 118.021 145.705 115.307C148.419 111.242 151.842 106.457 155.43 101.595L157.025 99.5237L155.353 101.041C150.889 104.873 146.58 107.975 143.069 109.658C141.319 110.533 139.636 111.01 138.207 111.098C136.689 111.098 135.338 110.622 134.463 109.26C132.624 106.391 136.058 102.481 139.968 100.244C142.604 98.7262 145.949 97.6076 149.383 97.6076C150.978 97.6076 152.495 97.7626 154.09 98.3275L154.566 98.5712L155.441 97.6962C159.429 94.185 163.494 90.1201 167.403 85.889L168.921 84.139L169.796 83.0203C175.223 76.2417 182.722 68.0232 182.877 67.8682C183.918 66.6719 185.668 68.1118 184.793 69.3081C182.245 72.8967 175.699 79.9965 172.51 83.7402L170.76 85.734L170.04 86.609C167.248 90.1201 164.136 94.1075 161.024 98.1724C156.161 104.63 151.21 111.253 147.699 116.681C145.86 119.317 144.432 121.709 143.468 123.537C142.593 125.209 142.272 126.173 142.194 126.572V126.727H142.272C142.593 126.97 142.748 127.524 142.67 128C142.427 128.643 141.795 128.953 141.153 128.798C140.356 128.554 139.957 127.923 139.879 127.28V127.269ZM152.163 100.554L152.406 100.399L150.734 100.078C147.389 99.6788 143.878 100.72 141.164 102.315C137.254 104.552 135.981 107.177 136.534 107.975C136.778 108.451 137.254 108.695 138.129 108.695C139.082 108.617 140.444 108.296 142.039 107.499C144.83 106.147 148.341 103.755 152.163 100.565V100.554Z" fill="white"/>
<path d="M161.092 112.749C161.092 110.434 162.288 107.565 163.883 104.851C166.43 100.388 170.418 95.1154 174.893 89.7767C183.742 79.1658 194.597 68.3998 199.459 64.4124C199.936 64.0136 200.656 64.0912 201.132 64.5674C201.531 65.0437 201.453 65.8412 200.977 66.2399C196.27 70.0723 185.581 80.7607 176.731 91.3606C172.345 96.6217 168.435 101.805 165.965 106.036C164.769 108.108 163.972 109.946 163.65 111.375C163.252 112.815 163.495 113.612 163.805 113.923C164.924 115.119 168.513 113.601 172.578 111.131C178.238 107.698 184.784 102.514 187.01 100.919C187.564 100.598 188.284 100.676 188.682 101.24C189.081 101.794 188.926 102.592 188.361 102.913C185.648 104.752 179.434 109.847 173.608 113.28C170.34 115.196 167.383 116.714 164.991 116.714C163.872 116.714 162.842 116.315 162.044 115.518C161.324 114.798 161.092 113.845 161.092 112.726V112.749Z" fill="white"/>
<path d="M202.959 109.005C201.12 108.451 200.245 107.166 200.489 105.571C200.489 105.017 200.644 104.53 200.888 104.054L200.965 103.899L200.888 103.976L197.221 105.892C194.674 107.089 192.115 108.207 189.967 108.839C188.925 109.16 187.729 109.392 186.699 109.392C185.824 109.392 185.027 109.237 184.384 108.672C184.384 108.595 184.307 108.517 184.229 108.517C183.675 107.797 183.432 107.077 183.432 106.369C183.432 105.416 183.753 104.452 184.384 103.655C185.337 102.215 187.098 100.941 189.247 99.9112C191.639 98.715 194.751 97.9175 197.941 97.9175C199.78 97.9175 201.685 98.2387 203.524 98.8701L204.399 99.1913L204.953 98.7925L206.304 97.9175L206.459 97.84L206.536 97.7624C206.691 97.6074 206.858 97.5188 206.858 97.4412C208.054 96.5662 209.494 98.3162 208.375 99.2799L208.131 99.5235L207.888 99.6786L207.81 99.7561C207.013 100.399 205.418 101.827 204.222 103.345C203.347 104.386 202.87 105.261 202.87 105.815C202.793 106.058 202.87 106.214 202.87 106.214C202.948 106.369 203.191 106.535 203.668 106.69C204.62 107.011 207.013 107.166 210.446 107.166C213.714 107.244 217.779 107.089 221.777 106.922C229.907 106.601 237.727 105.97 239.565 105.483C240.208 105.327 240.917 105.726 241.005 106.358C241.16 107 240.762 107.631 240.13 107.797C237.982 108.351 229.841 108.994 221.866 109.315C217.878 109.47 213.813 109.636 210.457 109.559C207.19 109.559 204.399 109.403 202.959 109.005ZM189.324 106.535C191.24 105.981 193.71 104.94 196.18 103.744C198.019 102.869 199.846 101.905 201.441 100.952L201.685 100.797L200.965 100.642C199.924 100.399 198.971 100.321 197.93 100.321C195.217 100.321 192.503 101.041 190.277 102.071C188.361 103.024 187.009 104.065 186.289 105.106C185.891 105.66 185.569 106.225 185.891 106.701L186.046 106.856C186.046 106.933 186.201 107.011 186.843 107.011C187.486 107.011 188.283 106.856 189.313 106.535H189.324Z" fill="white"/>
<path d="M277.045 116.581C278.164 92.0141 306.076 67.2147 327.53 61.6323C330.798 60.7573 334.231 60.281 337.421 60.281C339.57 60.281 341.564 60.5247 343.403 61.001C348.11 62.2747 351.455 65.4646 351.455 71.047C351.455 84.3716 329.679 98.0063 319.312 101.828C318.67 102.071 318.038 101.75 317.795 101.108C317.551 100.465 317.872 99.8338 318.514 99.5902C329.037 95.7578 349.062 82.5219 349.062 71.0359C349.062 66.7273 346.67 64.3349 342.76 63.3048C341.165 62.8285 339.327 62.6624 337.421 62.6624C334.464 62.6624 331.285 63.1386 328.095 63.9361C307.361 69.3634 280.479 93.4429 279.449 116.736C279.128 123.116 281.365 127.026 284.788 129.174C287.258 130.692 290.525 131.412 294.28 131.412C295.875 131.412 297.625 131.257 299.386 131.013C311.193 129.174 325.227 121.842 333.201 112.826C333.6 112.35 334.398 112.35 334.874 112.749C335.35 113.225 335.428 113.945 334.951 114.421C326.578 123.836 312.057 131.489 299.696 133.328C297.78 133.649 295.952 133.804 294.114 133.804C290.126 133.804 286.46 133.007 283.503 131.168C279.194 128.455 276.724 123.67 277.045 116.57V116.581Z" fill="white"/>
<path d="M346.98 101.351C349.771 98.4823 353.282 95.8462 353.526 95.6911C354.08 95.2924 354.799 95.4474 355.198 96.0123C355.597 96.5772 355.442 97.2861 354.877 97.6848C354.722 97.7623 351.366 100.321 348.652 103.023C347.932 103.743 345.064 106.767 345.784 107.731C346.98 109.326 353.36 107.255 355.353 106.457C358.787 105.106 365.078 101.595 366.119 100.952C366.673 100.554 367.393 100.709 367.714 101.273C368.113 101.827 367.958 102.547 367.393 102.946C366.197 103.743 359.817 107.332 356.151 108.772C354.08 109.569 350.646 110.688 347.777 110.688C345.706 110.688 344.033 110.046 343.469 108.373C342.671 105.737 345.462 102.868 346.98 101.351ZM358.621 90.585C358.942 90.4299 359.418 90.0312 359.894 89.71L361.168 88.5913C361.644 88.115 362.442 88.1926 362.841 88.6688C363.317 89.1451 363.239 89.9426 362.763 90.3413C362.442 90.6625 361.966 91.1388 361.412 91.5375C360.858 91.9363 360.216 92.4126 359.662 92.7338C359.108 92.9774 358.388 92.7338 358.067 92.18C357.746 91.6262 357.989 90.8287 358.621 90.585Z" fill="white"/>
<path d="M364.449 103.101C365.8 100.864 368.115 98.8702 370.43 97.5964C372.745 96.3227 375.459 95.5252 377.53 96.4002L378.172 96.7214C378.97 97.2752 379.125 98.2389 378.815 99.0363C377.773 101.185 369.644 105.97 366.454 104.375L366.132 104.929C365.49 106.203 365.335 107.321 365.579 108.041C366.055 109.16 367.251 109.636 368.846 109.636C373.387 109.636 381.13 106.203 382.558 105.405C386.147 103.566 389.414 101.495 390.533 100.864C391.176 100.543 391.884 100.709 392.206 101.34C392.527 101.894 392.283 102.614 391.729 102.935C390.854 103.489 387.498 105.571 383.755 107.476C380.886 108.916 374.03 111.862 368.924 111.862C366.287 111.862 364.139 111.065 363.341 108.828C362.699 106.989 363.341 104.84 364.46 103.09L364.449 103.101ZM368.038 102.304C369.555 102.946 374.661 100.155 376.256 98.4715C373.144 98.0727 370.031 100.465 368.038 102.304Z" fill="white"/>
<path d="M383.818 112.593C383.818 112.35 383.896 112.195 383.896 112.117C384.051 111.563 384.616 110.522 385.336 109.248L388.371 104.142C390.841 100.077 394.108 94.9714 397.619 89.7877C404.398 79.498 412.051 68.577 415.407 65.4646C415.884 65.0658 416.681 65.0658 417.08 65.5421C417.556 66.0184 417.556 66.8159 417.08 67.2921C413.968 70.0833 406.558 80.6056 399.613 91.0615C396.179 96.2451 392.912 101.351 390.442 105.416L390.918 104.94C391.716 104.065 392.668 103.267 393.554 102.392C395.47 100.72 397.387 99.1249 399.059 97.9287C400.577 96.8875 402.327 95.8575 403.766 96.1787C404.409 96.2562 404.963 96.6549 405.284 97.2973L405.439 97.6185C406.314 100.089 403.766 103.6 401.13 106.147L399.779 107.421C404.165 106.779 412.937 103.19 417.49 100.72C418.044 100.399 418.764 100.642 419.085 101.196C419.406 101.839 419.162 102.547 418.608 102.869C411.354 106.701 401.784 110.445 394.684 110.522H394.042L393.565 110.6C392.214 110.843 390.852 110.6 389.899 109.404V109.326L389.179 110.123L387.108 112.361C386.709 112.915 386.31 113.313 385.989 113.557C385.912 113.557 385.834 113.712 385.591 113.801C385.513 113.801 384.948 114.044 384.394 113.646C383.84 113.247 383.84 112.693 383.84 112.605L383.818 112.593ZM393.632 108.13L394.108 108.052C395.227 107.654 396.744 106.779 398.494 105.339C399.934 104.065 401.285 102.547 402.16 101.196C402.88 100.077 403.202 99.28 403.202 98.8037V98.4825H403.047C402.648 98.56 401.85 98.8812 400.41 99.9224C398.815 100.964 396.977 102.47 395.227 104.153L392.513 106.701L391.472 107.654L391.627 107.731C391.871 107.975 392.347 108.13 393.3 108.13H393.621H393.632Z" fill="white"/>
<path d="M417.081 101.351C419.872 98.4823 423.383 95.8462 423.616 95.6911C424.169 95.2924 424.889 95.4474 425.288 96.0123C425.687 96.5661 425.532 97.2861 424.967 97.6848C424.812 97.7623 421.456 100.321 418.742 103.023C418.022 103.743 415.153 106.767 415.873 107.731C417.07 109.326 423.449 107.255 425.443 106.457C428.877 105.106 435.168 101.595 436.209 100.952C436.763 100.554 437.483 100.709 437.804 101.273C438.203 101.827 438.048 102.547 437.483 102.946C436.287 103.743 429.907 107.332 426.241 108.772C424.169 109.569 420.736 110.688 417.867 110.688C415.796 110.688 414.123 110.046 413.558 108.373C412.761 105.737 415.552 102.868 417.07 101.351H417.081ZM428.722 90.585C429.043 90.4299 429.519 90.0312 429.995 89.71L431.269 88.5913C431.745 88.115 432.543 88.1926 432.942 88.6688C433.418 89.1451 433.34 89.9426 432.864 90.3413C432.543 90.6625 432.067 91.1388 431.513 91.5375C430.959 91.9363 430.317 92.4126 429.763 92.7338C429.209 92.9774 428.489 92.7338 428.168 92.18C427.847 91.6262 428.09 90.8287 428.722 90.585Z" fill="white"/>
<path d="M434.78 103.101C436.132 100.864 438.447 98.8702 440.761 97.5964C443.076 96.3227 445.79 95.5252 447.861 96.4002L448.504 96.7214C449.301 97.2752 449.456 98.2389 449.146 99.0363C448.105 101.185 439.975 105.97 436.785 104.375C435.589 106.214 435.268 108.44 436.863 109.082C437.815 109.481 439.255 109.636 440.85 109.636C451.062 109.636 471.719 102.858 474.987 101.185C475.629 100.864 476.338 101.185 476.582 101.828C476.825 102.47 476.582 103.101 475.939 103.422C467.643 106.934 452.092 111.475 440.85 111.962C436.708 112.117 434.149 110.688 433.595 108.772C433.119 106.934 433.673 104.862 434.791 103.112L434.78 103.101ZM438.369 102.304C439.886 102.946 444.993 100.155 446.588 98.4715C443.475 98.0727 440.363 100.465 438.369 102.304Z" fill="white"/>
<path d="M527.799 91.2833C528.153 91.4716 528.352 90.94 528.507 90.6963C534.954 80.5063 540.636 71.9998 553.163 68.8099C564.328 65.9633 574.872 70.9033 569.279 83.6962C565.9 91.4052 552.93 99.2249 545.421 102.681C543.128 103.733 540.392 104.342 538.11 105.35C533.946 107.189 529.892 109.382 525.727 111.198C521.563 113.015 517.298 113.657 514.053 116.736L514.02 117.124C514.552 117.833 515.648 119.04 514.984 119.926C514.086 121.045 511.705 119.594 511.528 119.649C510.752 119.926 510.387 121.665 510.188 122.33C509.756 123.747 509.157 123.659 509.146 122.164C509.135 120.668 510.176 117.899 510.132 117.279C510.055 116.326 508.659 113.258 508.294 111.974C504.162 97.497 500.618 79.4429 508.227 65.487C512.857 57.0138 524.841 53.4141 527.278 65.5646C528.906 73.6944 526.846 82.9873 527.81 91.2722L527.799 91.2833ZM562.788 70.427C549.164 67.2924 534.422 81.6139 529.781 93.2992C529.382 94.296 529.316 95.6916 529.039 96.3008C528.308 97.9179 526.381 96.0793 526.215 94.8166C525.672 86.288 526.957 76.6407 525.849 68.2561C524.941 61.3667 520.455 56.0059 513.92 61.8098C503.243 71.2798 506.843 94.3736 509.889 106.79C510.165 107.931 511.495 113.424 512.015 113.945C512.658 114.587 516.036 112.372 516.999 111.918C526.481 107.432 536.371 103.611 545.974 99.3135C553.263 96.0571 562.733 90.7074 566.798 83.6076C570.021 77.9809 570.076 72.1106 562.788 70.4381V70.427Z" fill="white"/>
</svg>
