<svg width="299" height="39" viewBox="0 0 299 39" fill="none" xmlns="http://www.w3.org/2000/svg">
<g clip-path="url(#clip0_0_710)">
<path d="M118.133 18.612V19.9462C118.133 22.2724 117.417 24.1296 115.983 25.5145C114.55 26.8994 112.733 27.5935 110.526 27.5935C108.131 27.5935 106.145 26.817 104.563 25.261C102.982 23.7049 102.193 21.7939 102.193 19.5279C102.193 17.2619 102.976 15.3414 104.541 13.7727C106.107 12.2008 108.021 11.418 110.284 11.418C111.724 11.418 113.044 11.7444 114.242 12.3972C115.439 13.0501 116.37 13.9089 117.03 14.9738L114.031 16.7073C113.692 16.1749 113.189 15.7376 112.522 15.3953C111.853 15.0562 111.102 14.8851 110.262 14.8851C108.955 14.8851 107.87 15.3224 107.012 16.1971C106.151 17.0718 105.723 18.1905 105.723 19.5533C105.723 20.916 106.163 22.0031 107.047 22.8524C107.93 23.7049 109.106 24.1296 110.573 24.1296C112.617 24.1296 113.931 23.3309 114.518 21.7305H110.397V18.6184H118.133V18.612Z" fill="#3AAA35"/>
<path d="M133.163 25.259C131.604 26.8151 129.709 27.5915 127.477 27.5915C125.245 27.5915 123.347 26.8151 121.791 25.259C120.231 23.7029 119.455 21.7856 119.455 19.5038C119.455 17.222 120.235 15.3046 121.791 13.7485C123.347 12.1925 125.245 11.416 127.477 11.416C129.709 11.416 131.607 12.1925 133.163 13.7485C134.722 15.3046 135.499 17.222 135.499 19.5038C135.499 21.7856 134.719 23.7029 133.163 25.259ZM124.271 22.8346C125.132 23.6934 126.201 24.1245 127.477 24.1245C128.753 24.1245 129.825 23.6934 130.683 22.8346C131.541 21.9757 131.972 20.8634 131.972 19.5006C131.972 18.1379 131.541 17.0255 130.683 16.1666C129.825 15.3078 128.753 14.8768 127.477 14.8768C126.201 14.8768 125.129 15.3078 124.271 16.1666C123.413 17.0255 122.982 18.1379 122.982 19.5006C122.982 20.8634 123.413 21.9757 124.271 22.8346Z" fill="#3AAA35"/>
<path d="M-0.000762918 29.3606L2.29387 28.001C3.49148 32.2255 7.03401 35.0936 12.7706 35.0936C18.5072 35.0936 21.5499 32.0766 21.5499 28.0517C21.5499 23.8272 17.8565 22.2172 12.5191 20.5059C6.68196 18.5948 1.44203 16.9342 1.44203 10.7986C1.44517 5.01488 6.08473 1.3418 12.0225 1.3418C17.9602 1.3418 21.5531 4.6631 23.2473 8.73551L21.003 9.99367C19.7048 6.82449 17.0109 3.90567 12.0225 3.90567C7.03401 3.90567 4.13901 6.77378 4.13901 10.6972C4.13901 14.9218 7.68154 16.2306 12.67 17.8913C18.8561 19.9544 24.2438 21.9161 24.2438 28.001C24.2438 34.0858 19.7048 37.6575 12.7674 37.6575C6.23246 37.6575 1.59291 34.3362 -0.00390625 29.3574L-0.000762918 29.3606Z" fill="white"/>
<path d="M50.9379 4.41282H39.9614V37.1093H37.2675V4.41282H26.291V1.89648H50.9379V4.41282Z" fill="white"/>
<path d="M52.4336 19.5012C52.4336 9.44224 60.3674 1.3418 70.4449 1.3418C80.5224 1.3418 88.4562 9.43907 88.4562 19.5012C88.4562 29.5634 80.5224 37.6607 70.4449 37.6607C60.3674 37.6607 52.4336 29.5634 52.4336 19.5012ZM85.8095 19.5012C85.8095 10.8494 79.0733 3.90884 70.4417 3.90884C61.8102 3.90884 55.074 10.8494 55.074 19.5012C55.074 28.1531 61.8102 35.0936 70.4417 35.0936C79.0733 35.0936 85.8095 28.1531 85.8095 19.5012Z" fill="white"/>
<path d="M159.458 37.1061L141.946 19.7517V37.1061H139.303V1.89648H141.946V18.2938L158.958 1.89648H162.501L144.838 18.9974L162.997 37.1061H159.455H159.458Z" fill="white"/>
<path d="M193.433 1.89648V37.1061H190.789V20.2556H170.483V37.1061H167.84V1.89648H170.483V17.7424H190.789V1.89648H193.433Z" fill="white"/>
<path d="M200.119 19.5012C200.119 9.44224 208.053 1.3418 218.13 1.3418C228.208 1.3418 236.142 9.43907 236.142 19.5012C236.142 29.5634 228.208 37.6607 218.13 37.6607C208.053 37.6607 200.119 29.5634 200.119 19.5012ZM233.495 19.5012C233.495 10.8494 226.759 3.90884 218.127 3.90884C209.496 3.90884 202.76 10.8494 202.76 19.5012C202.76 28.1531 209.496 35.0936 218.127 35.0936C226.759 35.0936 233.495 28.1531 233.495 19.5012Z" fill="white"/>
<path d="M261.933 34.593V37.1093H242.824V1.89648H245.468V34.593H261.933Z" fill="white"/>
<path d="M298.999 37.1061H296.355V5.81994L283.433 27.4496H282.984L270.062 5.81994V37.1061H267.418V1.89648H270.712L283.185 22.7212L295.658 1.89648H298.999V37.1061Z" fill="white"/>
<path d="M119.697 28.685C117.264 31.138 114.03 32.4881 110.591 32.4881C107.152 32.4881 103.918 31.138 101.485 28.685C99.0517 26.2321 97.7127 22.971 97.7127 19.5039C97.7127 16.0368 99.0517 12.7757 101.485 10.3228C103.918 7.86983 107.152 6.51975 110.591 6.51975C114.03 6.51975 117.264 7.86983 119.697 10.3228L120.458 11.0897L125.028 6.48172L124.268 5.71478C120.615 2.03219 115.759 0.00390625 110.591 0.00390625C105.423 0.00390625 100.567 2.03219 96.9143 5.71478C93.2617 9.39737 91.25 14.2938 91.25 19.5039C91.25 24.714 93.2617 29.6104 96.9143 33.293C100.567 36.9756 105.423 39.0039 110.591 39.0039C115.759 39.0039 120.615 36.9756 124.268 33.293L125.028 32.5261L120.458 27.9181L119.697 28.685Z" fill="white"/>
</g>
<defs>
<clipPath id="clip0_0_710">
<rect width="299" height="39" fill="white"/>
</clipPath>
</defs>
</svg>
