<svg width="571" height="261" viewBox="0 0 571 261" fill="none" xmlns="http://www.w3.org/2000/svg">
<g clip-path="url(#clip0_0_724)">
<path d="M306.527 81.6196V87.468C306.527 97.6675 303.361 105.807 297.025 111.882C290.689 117.956 282.653 120.994 272.907 120.994C262.318 120.994 253.531 117.584 246.547 110.757C239.563 103.937 236.074 95.553 236.074 85.6102C236.074 75.6674 239.533 67.2524 246.456 60.3652C253.373 53.4779 261.835 50.0312 271.844 50.0312C278.211 50.0312 284.04 51.4613 289.338 54.3213C294.63 57.1813 298.742 60.9518 301.669 65.6268L288.415 73.2291C286.918 70.8885 284.694 68.9757 281.737 67.4785C278.779 65.9874 275.449 65.2357 271.746 65.2357C265.96 65.2357 261.176 67.1546 257.375 70.9863C253.574 74.8241 251.674 79.7252 251.674 85.7019C251.674 91.6786 253.623 96.4391 257.522 100.173C261.42 103.913 266.62 105.777 273.115 105.777C282.146 105.777 287.963 102.269 290.56 95.2536H272.333V81.6074H306.539L306.527 81.6196Z" fill="#3AAA35"/>
<path d="M372.988 110.763C366.102 117.583 357.718 120.999 347.844 120.999C337.97 120.999 329.586 117.589 322.7 110.763C315.813 103.943 312.367 95.5283 312.367 85.5183C312.367 75.5083 315.807 67.0994 322.7 60.2732C329.586 53.4532 337.97 50.0371 347.844 50.0371C357.718 50.0371 366.102 53.4471 372.988 60.2732C379.874 67.0933 383.321 75.5144 383.321 85.5183C383.321 95.5222 379.874 103.937 372.988 110.763ZM333.668 100.136C337.469 103.907 342.192 105.789 347.85 105.789C353.508 105.789 358.231 103.907 362.026 100.136C365.827 96.3655 367.727 91.495 367.727 85.5183C367.727 79.5416 365.827 74.6649 362.026 70.9005C358.225 67.1299 353.502 65.2477 347.85 65.2477C342.198 65.2477 337.469 67.1299 333.668 70.9005C329.867 74.671 327.967 79.5416 327.967 85.5183C327.967 91.495 329.867 96.3717 333.668 100.136Z" fill="#3AAA35"/>
<path d="M313.455 125.785C302.701 136.541 288.403 142.463 273.194 142.463C257.985 142.463 243.687 136.541 232.933 125.785C222.179 115.03 216.258 100.73 216.258 85.5191C216.258 70.3085 222.179 56.0085 232.933 45.2529C243.687 34.4973 257.985 28.5756 273.194 28.5756C288.403 28.5756 302.701 34.4973 313.455 45.2529L316.822 48.6201L337.023 28.4167L333.656 25.0495C317.5 8.8978 296.028 0 273.188 0C250.347 0 228.876 8.8978 212.726 25.0495C196.576 41.2012 187.68 62.6757 187.68 85.5191C187.68 108.362 196.576 129.837 212.726 145.989C228.876 162.14 250.347 171.038 273.188 171.038C296.028 171.038 317.5 162.14 333.65 145.989L337.017 142.621L316.816 122.418L313.449 125.785H313.455Z" fill="white"/>
<path d="M0.000250975 244.916L4.48525 242.282C6.82551 250.471 13.7424 256.026 24.9488 256.026C36.1552 256.026 42.1006 250.178 42.1006 242.38C42.1006 234.191 34.8904 231.074 24.46 227.762C13.0581 224.059 2.82323 220.844 2.82323 208.952C2.82323 197.744 11.8849 190.631 23.4823 190.631C35.0798 190.631 42.0945 197.066 45.4124 204.961L41.0251 207.4C38.4893 201.258 33.2283 195.605 23.4823 195.605C13.7363 195.605 8.08424 201.16 8.08424 208.763C8.08424 216.951 15.0012 219.481 24.7472 222.702C36.8334 226.699 47.3555 230.5 47.3555 242.294C47.3555 254.089 38.4893 261.007 24.9427 261.007C12.1782 261.007 3.11042 254.572 -0.00585938 244.922L0.000250975 244.916Z" fill="white"/>
<path d="M99.5009 196.572H78.0596V259.926H72.7986V196.572H51.3574V191.695H99.5009V196.572Z" fill="white"/>
<path d="M102.428 225.813C102.428 206.318 117.924 190.625 137.611 190.625C157.299 190.625 172.795 206.318 172.795 225.813C172.795 245.307 157.299 261.001 137.611 261.001C117.924 261.001 102.428 245.307 102.428 225.813ZM167.625 225.813C167.625 209.05 154.47 195.599 137.611 195.599C120.753 195.599 107.597 209.05 107.597 225.813C107.597 242.576 120.753 256.026 137.611 256.026C154.47 256.026 167.625 242.576 167.625 225.813Z" fill="white"/>
<path d="M181.955 225.813C181.955 206.318 196.669 190.625 217.432 190.625C230.001 190.625 241.018 197.06 246.67 207.003L242.087 209.637C237.602 201.252 228.149 195.599 217.432 195.599C199.498 195.599 187.124 209.05 187.124 225.813C187.124 242.576 199.504 256.026 217.432 256.026C228.247 256.026 237.798 250.276 242.283 241.696L246.865 244.33C241.311 254.37 230.202 260.995 217.432 260.995C196.675 260.995 181.955 245.301 181.955 225.807V225.813Z" fill="white"/>
<path d="M298.412 259.932L264.206 226.302V259.932H259.043V191.701H264.206V223.479L297.44 191.701H304.357L269.858 224.842L305.335 259.932H298.418H298.412Z" fill="white"/>
<path d="M364.782 191.701V259.932H359.618V227.28H319.956V259.932H314.793V191.701H319.956V222.403H359.618V191.701H364.782Z" fill="white"/>
<path d="M377.84 225.813C377.84 206.318 393.336 190.625 413.023 190.625C432.711 190.625 448.207 206.318 448.207 225.813C448.207 245.307 432.711 261.001 413.023 261.001C393.336 261.001 377.84 245.307 377.84 225.813ZM443.037 225.813C443.037 209.05 429.882 195.599 413.023 195.599C396.165 195.599 383.009 209.05 383.009 225.813C383.009 242.576 396.165 256.026 413.023 256.026C429.882 256.026 443.037 242.576 443.037 225.813Z" fill="white"/>
<path d="M498.592 255.055V259.926H461.264V191.695H466.427V255.049H498.586L498.592 255.055Z" fill="white"/>
<path d="M571.001 259.932H565.837V199.303L540.596 241.213H539.716L514.474 199.303V259.932H509.311V191.701H515.745L540.107 232.053L564.469 191.701H571.001V259.932Z" fill="white"/>
</g>
<defs>
<clipPath id="clip0_0_724">
<rect width="571" height="261" fill="white"/>
</clipPath>
</defs>
</svg>
