<?xml version="1.0" encoding="UTF-8"?>
<svg id="Warstwa_2" data-name="Warstwa 2" xmlns="http://www.w3.org/2000/svg" viewBox="0 0 494.58 451.03">
  <defs>
    <style>
      .cls-1 {
        fill: #fff;
      }

      .cls-2 {
        fill: #00539e;
      }

      .cls-3 {
        fill: none;
      }

      .cls-4 {
        fill: #0a84ff;
      }

      .cls-5 {
        fill: #098eff;
      }
    </style>
  </defs>
  <g id="Warstwa_1-2" data-name="Warstwa 1">
    <path class="cls-1" d="M494.01,435.1c-.76-2.14-2.22-3.93-4.09-5.13-3.26-2.17-11.84-6.4-40.19-19.58-18.12-8.42-36.28-16.71-37.68-17.34l-8.04-3.85c-.86-18.34-6.17-62.7-36.2-95.88l-14.22-15.72-1.38,9.38c-4.71-9.99-10.85-21.43-18.77-33.54l-.18-.28-.2-.27c-10.17-13.5-21.6-27.62-33.98-41.97-.24-.28-.49-.56-.73-.84l-.41-.47-18.54-21.29.57,15.86c-10.41-17.66-26.7-39.32-52.08-62.59l-.13-.12-.13-.11c-3.68-3.15-7.57-6.42-11.56-9.72l-.25-.21-.26-.19c-5.02-3.63-12.11-8.89-15.74-12.63l-.05-.05-.05-.05-.78-.78-.5-.32c-15.42-12.13-31.29-23.84-47.18-34.81l-32.12-22.17,5.48,10.92c-10.85-11.06-24.07-21.03-40.04-30.48C62.77,27.21,39.24,16.78,15.04,6.43L0,0l1.13,16.32c4.03,58.13,22.39,120.66,32.97,152.76,1.85,5.61,4.55,11.08,8.08,16.4l-10.98-8.54,18.86,38.7c14.72,30.22,32.49,57.21,52.82,80.22,5.5,6.23,11.11,12.37,16.68,18.23l.09.1.1.1,19.86,19.82.31.31.33.28c17.25,14.47,34.89,23.31,50.9,28.65l-16.54,2.51,21.2,14.33c45.61,30.83,90.79,45.81,138.13,45.81,11.94,0,24.16-.99,36.38-2.95,9.33,4.91,19.23,9.71,29.46,14.29l.04.02.04.02c25.77,11.29,48.63,13.67,63.26,13.67,8.38,0,14.54-.75,18.24-1.39,6.05-1.04,8.67-2.16,10.79-4.6,2.37-2.76,3.09-6.56,1.89-9.94Z"/>
    <g>
      <path class="cls-5" d="M483.92,435.56s.05.09.08.13c.05-.06.04-.11-.08-.13h0Z"/>
      <path class="cls-3" d="M252.4,322.33c-.9-.74-1.79-1.49-2.68-2.23.89.75,1.79,1.49,2.68,2.23Z"/>
      <path class="cls-3" d="M204.73,279.38c-1.04-1.02-2.07-2.04-3.1-3.06,1.03,1.02,2.06,2.04,3.1,3.06Z"/>
      <path class="cls-3" d="M405.69,421.01s.08.04.12.05c-.04-.02-.08-.04-.12-.05h0Z"/>
      <path class="cls-3" d="M198.18,272.89c-1.05-1.05-2.09-2.11-3.14-3.17,1.04,1.06,2.09,2.12,3.14,3.17Z"/>
      <path class="cls-3" d="M185.32,259.68c-1.08-1.14-2.15-2.28-3.22-3.42,1.07,1.14,2.14,2.29,3.22,3.42Z"/>
      <path class="cls-3" d="M287.95,350.06c-.61-.44-1.22-.89-1.82-1.33.6.45,1.21.89,1.82,1.33Z"/>
      <path class="cls-3" d="M191.72,266.33c-1.07-1.1-2.12-2.2-3.18-3.3,1.06,1.1,2.12,2.2,3.18,3.3Z"/>
      <path class="cls-3" d="M407.3,421.72s-.05-.02-.08-.03c.03.01.05.02.08.03Z"/>
      <path class="cls-3" d="M211.34,285.77c-1.02-.98-2.04-1.96-3.05-2.94,1.02.98,2.03,1.96,3.05,2.94Z"/>
      <path class="cls-3" d="M231.59,304.46c-.97-.87-1.94-1.73-2.91-2.6.97.87,1.94,1.74,2.91,2.6Z"/>
      <path class="cls-3" d="M295.05,355.21c-.48-.34-.96-.68-1.44-1.03.48.34.96.68,1.44,1.03Z"/>
      <path class="cls-3" d="M238.46,310.51c-.95-.83-1.9-1.65-2.84-2.48.95.83,1.89,1.66,2.84,2.48Z"/>
      <path class="cls-3" d="M302.03,360.16c-.29-.2-.59-.41-.88-.61.29.21.59.41.88.61Z"/>
      <path class="cls-3" d="M245.4,316.46c-.92-.78-1.85-1.57-2.77-2.36.92.79,1.84,1.57,2.77,2.36Z"/>
      <path class="cls-3" d="M370.66,402.89h0s-.04-.02-.06-.04c.02.01.04.02.06.04Z"/>
      <path class="cls-3" d="M218.02,292.09c-1.01-.94-2.01-1.88-3.01-2.83,1,.94,2,1.89,3.01,2.83Z"/>
      <path class="cls-3" d="M224.77,298.32c-.99-.9-1.98-1.81-2.96-2.72.98.91,1.97,1.81,2.96,2.72Z"/>
      <path class="cls-3" d="M280.8,344.75c-.7-.52-1.39-1.04-2.09-1.57.69.53,1.39,1.05,2.09,1.57Z"/>
      <path class="cls-3" d="M154.49,225.25c-1.99-2.36-3.97-4.73-5.93-7.12,1.96,2.38,3.94,4.76,5.93,7.12Z"/>
      <path class="cls-3" d="M192.08,122.78c8.07,9.32,15.4,18.07,22.09,26.33-6.49-8.55-13.78-17.31-22.09-26.33Z"/>
      <path class="cls-3" d="M266.53,333.76c-.82-.65-1.64-1.29-2.46-1.94.82.65,1.64,1.3,2.46,1.94Z"/>
      <path class="cls-3" d="M408.78,422.35s0,0,0,0c0,0,0,0,0,0Z"/>
      <path class="cls-3" d="M273.66,339.32c-.77-.59-1.54-1.18-2.3-1.78.77.59,1.54,1.18,2.3,1.78Z"/>
      <path class="cls-3" d="M185.13,217.38l-19.86-19.82c6.21,6.54,12.39,12.78,18.57,18.73.43.37.86.73,1.29,1.09Z"/>
      <path class="cls-3" d="M483.92,435.56s-.11-.02-.18-.02c.07,0,.13.02.18.02Z"/>
      <path class="cls-3" d="M480.61,435.38c-.06,0-.12,0-.19,0,.06,0,.12,0,.19,0Z"/>
      <path class="cls-3" d="M172.75,246.14c-1.13-1.25-2.25-2.51-3.38-3.76,1.12,1.26,2.24,2.52,3.38,3.76Z"/>
      <path class="cls-3" d="M179,252.95c-1.1-1.18-2.19-2.38-3.28-3.57,1.09,1.19,2.18,2.38,3.28,3.57Z"/>
      <path class="cls-3" d="M483.29,435.5s0,0,0,0c0,0,0,0,0,0Z"/>
      <path class="cls-3" d="M160.5,232.29c-1.33-1.54-2.64-3.08-3.95-4.63,1.31,1.55,2.63,3.09,3.95,4.63Z"/>
      <path class="cls-3" d="M259.44,328.1c-.86-.7-1.73-1.4-2.59-2.1.86.7,1.73,1.4,2.59,2.1Z"/>
      <path class="cls-3" d="M166.59,239.25c-1.19-1.35-2.37-2.7-3.55-4.06,1.18,1.35,2.36,2.71,3.55,4.06Z"/>
      <path class="cls-2" d="M286.13,348.73c-1.78-1.32-3.56-2.64-5.33-3.98,1.77,1.33,3.54,2.66,5.33,3.98Z"/>
      <path class="cls-2" d="M483.29,435.5c-.58-.04-1.49-.07-2.68-.12,1.19.04,2.09.08,2.68.12Z"/>
      <path class="cls-2" d="M483.74,435.53c-.12-.01-.27-.03-.45-.04.19.01.33.02.45.04Z"/>
      <path class="cls-2" d="M301.15,359.55c-2.04-1.43-4.08-2.88-6.1-4.33,2.03,1.45,4.06,2.9,6.1,4.33Z"/>
      <path class="cls-2" d="M278.71,343.18c-1.69-1.28-3.37-2.57-5.05-3.86,1.68,1.29,3.36,2.58,5.05,3.86Z"/>
      <path class="cls-2" d="M293.61,354.18c-1.89-1.36-3.78-2.74-5.66-4.12,1.88,1.38,3.77,2.76,5.66,4.12Z"/>
      <path class="cls-2" d="M408.78,422.35c-.49-.21-.99-.42-1.48-.63.49.21.98.42,1.48.63Z"/>
      <path class="cls-4" d="M78.82,46.63C57.56,33.26,34.08,22.88,10.55,12.81c3.76,54.2,20.19,113.01,32.49,150.32,13.9,42.15,83,65.3,85.18,65.58,0,0-39.68,3.09-69.73-20.28,13.16,27.01,29.94,53.77,51.32,77.99,5.5,6.22,10.97,12.21,16.44,17.97l19.86,19.82c49.91,41.85,103.22,33.36,103.22,33.36-26.26,7.29-40.64,10.32-48.49,11.51,55.85,37.75,111.64,51.04,170.6,40.73,10.12,5.42,20.74,10.61,31.86,15.58,34.7,15.21,64.41,13.53,75.79,11.58,2.99-.51,4.7-1.04,4.91-1.29-.03-.04-.04-.09-.08-.13-.05,0-.11-.02-.18-.02-.12-.01-.27-.03-.45-.04,0,0,0,0,0,0-.58-.04-1.49-.07-2.68-.12-.06,0-.12,0-.19,0-10.88-.4-44.23-1.62-71.64-13.02,0,0,0,0,0,0-.49-.21-.99-.42-1.48-.63-.03-.01-.05-.02-.08-.03-.47-.21-.94-.41-1.41-.63-.04-.02-.08-.04-.12-.05-.02,0-.04-.02-.05-.02-8.54-4.13-16.98-8.43-25.34-12.87-3.22-1.71-6.43-3.46-9.63-5.22h0s-.04-.02-.06-.04c-23.63-13.01-46.51-27.27-68.57-42.7-.29-.2-.59-.41-.88-.61-2.04-1.43-4.08-2.88-6.1-4.33-.48-.34-.96-.68-1.44-1.03-1.89-1.36-3.78-2.74-5.66-4.12-.61-.44-1.22-.89-1.82-1.33-1.78-1.32-3.56-2.64-5.33-3.98-.7-.52-1.39-1.04-2.09-1.57-1.69-1.28-3.37-2.57-5.05-3.86-.77-.59-1.54-1.18-2.3-1.78-1.61-1.25-3.22-2.52-4.82-3.78-.82-.65-1.64-1.29-2.46-1.94-1.55-1.23-3.09-2.47-4.63-3.72-.86-.7-1.73-1.4-2.59-2.1-1.49-1.22-2.98-2.44-4.46-3.67-.9-.74-1.79-1.49-2.68-2.23-1.44-1.21-2.88-2.42-4.31-3.64-.92-.78-1.85-1.57-2.77-2.36-1.39-1.19-2.78-2.4-4.17-3.6-.95-.83-1.9-1.65-2.84-2.48-1.35-1.18-2.69-2.37-4.03-3.57-.97-.87-1.94-1.73-2.91-2.6-1.31-1.17-2.61-2.35-3.91-3.54-.99-.9-1.98-1.81-2.96-2.72-1.27-1.17-2.53-2.34-3.79-3.51-1.01-.94-2.01-1.88-3.01-2.83-1.23-1.16-2.46-2.32-3.68-3.49-1.02-.98-2.04-1.96-3.05-2.94-1.19-1.15-2.38-2.3-3.56-3.46-1.04-1.02-2.07-2.04-3.1-3.06-1.15-1.14-2.3-2.28-3.44-3.43-1.05-1.05-2.09-2.11-3.14-3.17-1.11-1.13-2.22-2.26-3.33-3.39-1.07-1.1-2.12-2.2-3.18-3.3-1.07-1.12-2.15-2.23-3.21-3.35-1.08-1.14-2.15-2.28-3.22-3.42-1.03-1.1-2.07-2.2-3.1-3.31-1.1-1.18-2.19-2.38-3.28-3.57-.99-1.08-1.98-2.16-2.97-3.24-1.13-1.25-2.25-2.51-3.38-3.76-.93-1.04-1.86-2.07-2.79-3.12-1.19-1.35-2.37-2.7-3.55-4.06-.85-.97-1.7-1.93-2.54-2.91-1.33-1.54-2.64-3.08-3.95-4.63-.68-.8-1.37-1.6-2.05-2.41-1.99-2.36-3.97-4.73-5.93-7.12h0c-32.53-39.06-62.89-80.48-87.55-124.99,25.8,33.8,63.92,83.19,92.34,114,0,0,0,0,0,0,53.17,63.4,126.23,125.58,198,168.03-91.86-70.7-68.96-136.17-137.18-226.07-6.69-8.25-14.02-17.01-22.09-26.33-14.68-11.57-30.41-23.26-47.06-34.74,14.38,28.66,13.11,50.98,9.1,68.37-7.84-52.78-30.3-83.2-75.3-109.78ZM185.13,217.38c-.43-.36-.86-.72-1.29-1.09-6.17-5.94-12.36-12.19-18.57-18.73l19.86,19.82Z"/>
      <path class="cls-2" d="M407.22,421.69c-.47-.21-.94-.41-1.41-.63.47.21.94.42,1.41.63Z"/>
      <path class="cls-2" d="M156.54,227.66c-.68-.8-1.37-1.6-2.05-2.41.68.81,1.37,1.6,2.05,2.41Z"/>
      <path class="cls-2" d="M201.63,276.32c-1.15-1.14-2.3-2.28-3.44-3.43,1.14,1.15,2.29,2.29,3.44,3.43Z"/>
      <path class="cls-2" d="M182.1,256.25c-1.03-1.1-2.07-2.2-3.1-3.31,1.03,1.11,2.07,2.21,3.1,3.31Z"/>
      <path class="cls-2" d="M188.53,263.03c-1.07-1.12-2.15-2.23-3.21-3.35,1.07,1.12,2.14,2.24,3.21,3.35Z"/>
      <path class="cls-2" d="M195.05,269.72c-1.11-1.13-2.22-2.26-3.33-3.39,1.1,1.14,2.22,2.26,3.33,3.39Z"/>
      <path class="cls-2" d="M175.72,249.38c-.99-1.08-1.98-2.16-2.97-3.24.98,1.09,1.98,2.16,2.97,3.24Z"/>
      <path class="cls-2" d="M351.35,375.18c-71.78-42.45-144.83-104.64-198-168.03,0,0,0,0,0,0-28.42-30.81-66.54-80.2-92.34-114,24.66,44.51,55.02,85.93,87.55,124.99h0c1.96,2.39,3.94,4.76,5.93,7.12.68.81,1.37,1.6,2.05,2.41,1.31,1.55,2.63,3.09,3.95,4.63.84.97,1.69,1.94,2.54,2.91,1.18,1.35,2.36,2.71,3.55,4.06.92,1.04,1.86,2.08,2.79,3.12,1.12,1.26,2.24,2.52,3.38,3.76.98,1.09,1.98,2.16,2.97,3.24,1.09,1.19,2.18,2.38,3.28,3.57,1.03,1.11,2.07,2.21,3.1,3.31,1.07,1.14,2.14,2.29,3.22,3.42,1.07,1.12,2.14,2.24,3.21,3.35,1.06,1.1,2.12,2.2,3.18,3.3,1.1,1.14,2.22,2.26,3.33,3.39,1.04,1.06,2.09,2.12,3.14,3.17,1.14,1.15,2.29,2.29,3.44,3.43,1.03,1.02,2.06,2.04,3.1,3.06,1.18,1.16,2.37,2.31,3.56,3.46,1.02.98,2.03,1.96,3.05,2.94,1.22,1.17,2.45,2.33,3.68,3.49,1,.94,2,1.89,3.01,2.83,1.26,1.18,2.52,2.35,3.79,3.51.98.91,1.97,1.81,2.96,2.72,1.3,1.18,2.6,2.36,3.91,3.54.97.87,1.94,1.74,2.91,2.6,1.34,1.19,2.68,2.38,4.03,3.57.95.83,1.89,1.66,2.84,2.48,1.39,1.2,2.78,2.41,4.17,3.6.92.79,1.84,1.57,2.77,2.36,1.43,1.22,2.87,2.43,4.31,3.64.89.75,1.79,1.49,2.68,2.23,1.48,1.23,2.97,2.45,4.46,3.67.86.7,1.73,1.4,2.59,2.1,1.54,1.24,3.08,2.49,4.63,3.72.82.65,1.64,1.3,2.46,1.94,1.6,1.27,3.21,2.53,4.82,3.78.77.59,1.54,1.18,2.3,1.78,1.68,1.29,3.36,2.58,5.05,3.86.69.53,1.39,1.05,2.09,1.57,1.77,1.33,3.54,2.66,5.33,3.98.6.45,1.21.89,1.82,1.33,1.88,1.38,3.77,2.76,5.66,4.12.48.34.96.68,1.44,1.03,2.03,1.45,4.06,2.9,6.1,4.33.29.21.59.41.88.61,22.06,15.43,44.94,29.69,68.57,42.7.02.01.04.02.06.04,3.2,1.76,6.4,3.5,9.63,5.22,8.36,4.44,16.81,8.74,25.34,12.87.02,0,.04.02.05.02.04.02.08.04.12.05.47.21.94.42,1.41.63.03.01.05.02.08.03.49.21.98.42,1.48.63,0,0,0,0,0,0,27.42,11.4,60.76,12.62,71.64,13.02.06,0,.12,0,.19,0,1.19.04,2.09.08,2.68.12,0,0,0,0,0,0,.19.01.33.02.45.04.07,0,.13.02.18.02-1.68-2.08-76.66-36.26-76.66-36.26l-13.65-6.54c0-.58,0-1.17-.02-1.78-.33-21.64-6.49-63.63-33.75-93.76-.25,1.68-.68,5.43-1.24,9.66-.17,1.3-.36,2.64-.55,3.98-.15,1.23-.32,2.36-.51,3.34-.58,3.6-1.23,6.92-1.93,9.03,0,0-7.08-30.39-31.09-67.13-9.69-12.86-20.81-26.67-33.57-41.45-.36-.42-.74-.85-1.11-1.27,0,.17.77,22.23-2.27,33.71,0,0-6.41-45.36-67-100.92-3.72-3.18-7.54-6.39-11.44-9.61-7.55-5.46-13.49-10.09-17.06-13.77,0,0,0,0,0,0,8.31,9.02,15.6,17.78,22.09,26.33,68.22,89.9,45.32,155.37,137.18,226.07Z"/>
      <path class="cls-2" d="M271.36,337.54c-1.61-1.25-3.22-2.52-4.82-3.78,1.6,1.27,3.21,2.53,4.82,3.78Z"/>
      <path class="cls-2" d="M163.04,235.2c-.85-.97-1.7-1.93-2.54-2.91.84.97,1.69,1.94,2.54,2.91Z"/>
      <path class="cls-2" d="M169.37,242.37c-.93-1.04-1.86-2.07-2.79-3.12.92,1.04,1.86,2.08,2.79,3.12Z"/>
      <path class="cls-2" d="M408.78,422.35c27.42,11.4,60.76,12.62,71.64,13.02-10.88-.4-44.23-1.62-71.64-13.02Z"/>
      <path class="cls-2" d="M249.71,320.1c-1.44-1.21-2.88-2.42-4.31-3.64,1.43,1.22,2.87,2.43,4.31,3.64Z"/>
      <path class="cls-2" d="M256.85,326c-1.49-1.22-2.98-2.44-4.46-3.67,1.48,1.23,2.97,2.45,4.46,3.67Z"/>
      <path class="cls-2" d="M242.63,314.11c-1.39-1.19-2.78-2.4-4.17-3.6,1.39,1.2,2.78,2.41,4.17,3.6Z"/>
      <path class="cls-2" d="M264.07,331.82c-1.55-1.23-3.09-2.47-4.63-3.72,1.54,1.24,3.08,2.49,4.63,3.72Z"/>
      <path class="cls-2" d="M208.29,282.83c-1.19-1.15-2.38-2.3-3.56-3.46,1.18,1.16,2.37,2.31,3.56,3.46Z"/>
      <path class="cls-2" d="M221.81,295.6c-1.27-1.17-2.53-2.34-3.79-3.51,1.26,1.18,2.52,2.35,3.79,3.51Z"/>
      <path class="cls-2" d="M215.01,289.26c-1.23-1.16-2.46-2.32-3.68-3.49,1.22,1.17,2.45,2.33,3.68,3.49Z"/>
      <path class="cls-2" d="M235.62,308.02c-1.35-1.18-2.69-2.37-4.03-3.57,1.34,1.19,2.68,2.38,4.03,3.57Z"/>
      <path class="cls-2" d="M228.68,301.86c-1.31-1.17-2.61-2.35-3.91-3.54,1.3,1.18,2.6,2.36,3.91,3.54Z"/>
    </g>
  </g>
</svg>
