<svg width="400" height="4581" viewBox="0 0 400 4581" fill="none" xmlns="http://www.w3.org/2000/svg">
<circle cx="91" cy="394" r="8" stroke="white" stroke-opacity="0.5" stroke-width="2"/>
<circle cx="98" cy="910" r="8" stroke="white" stroke-opacity="0.5" stroke-width="2"/>
<circle cx="98" cy="3618" r="8" stroke="white" stroke-opacity="0.5" stroke-width="2"/>
<circle cx="279" cy="3125" r="8" stroke="white" stroke-opacity="0.5" stroke-width="2"/>
<g clip-path="url(#clip0_1602_2)">
<path d="M374.529 158.13C374.444 157.611 374.254 157.108 374.123 156.601C373.919 155.817 373.705 155.036 373.499 154.254C373.131 152.862 372.805 151.446 372.387 150.068C373.856 149.682 375.32 149.277 376.787 148.884C377.733 148.631 378.682 148.394 379.626 148.131C379.913 148.051 380.647 147.952 380.821 147.737C381.202 147.27 380.874 146.595 380.272 146.66C379.716 146.72 378.846 147.056 378.269 147.206C377.322 147.452 376.377 147.709 375.43 147.959C374.315 148.253 373.194 148.528 372.079 148.827L372.025 148.731C371.781 147.749 371.494 146.777 371.232 145.8C371.018 145 370.807 144.198 370.594 143.398C370.456 142.88 370.349 142.353 370.208 141.835C370.117 141.503 370.02 140.995 369.912 140.701C369.645 139.971 368.622 140.141 368.651 140.948C368.653 141.021 368.69 141.058 368.696 141.096C368.782 141.615 368.971 142.117 369.102 142.624C369.306 143.408 369.52 144.189 369.726 144.972C370.094 146.364 370.42 147.779 370.838 149.157C369.369 149.544 367.905 149.949 366.438 150.341C365.492 150.594 364.543 150.831 363.599 151.094C363.312 151.174 362.578 151.274 362.404 151.488C362.023 151.956 362.351 152.631 362.953 152.565C363.509 152.505 364.379 152.17 364.956 152.02C365.904 151.773 366.849 151.517 367.795 151.267C368.91 150.972 370.032 150.697 371.146 150.399L371.201 150.494C371.444 151.477 371.731 152.448 371.993 153.425C372.207 154.225 372.418 155.027 372.632 155.827C372.77 156.345 372.877 156.873 373.018 157.39C373.109 157.722 373.206 158.23 373.314 158.524C373.581 159.255 374.604 159.084 374.575 158.277C374.572 158.204 374.536 158.167 374.53 158.129L374.529 158.13Z" fill="white" fill-opacity="0.5"/>
</g>
<g clip-path="url(#clip1_1602_2)">
<path d="M132.529 832.13C132.444 831.611 132.254 831.108 132.123 830.601C131.919 829.817 131.705 829.036 131.499 828.254C131.131 826.862 130.805 825.446 130.387 824.068C131.856 823.682 133.32 823.277 134.787 822.884C135.733 822.631 136.682 822.394 137.626 822.131C137.913 822.051 138.647 821.952 138.821 821.737C139.202 821.27 138.874 820.595 138.272 820.66C137.716 820.72 136.846 821.056 136.269 821.206C135.322 821.452 134.377 821.709 133.43 821.959C132.315 822.253 131.194 822.528 130.079 822.827L130.025 822.731C129.781 821.749 129.494 820.777 129.232 819.8C129.018 819 128.807 818.198 128.594 817.398C128.456 816.88 128.349 816.353 128.208 815.835C128.117 815.503 128.02 814.995 127.912 814.701C127.645 813.971 126.622 814.141 126.651 814.948C126.653 815.021 126.69 815.058 126.696 815.096C126.782 815.615 126.971 816.117 127.102 816.624C127.306 817.408 127.52 818.189 127.726 818.972C128.094 820.364 128.42 821.779 128.838 823.157C127.369 823.544 125.905 823.949 124.438 824.341C123.492 824.594 122.543 824.831 121.599 825.094C121.312 825.174 120.578 825.274 120.404 825.488C120.023 825.956 120.351 826.631 120.953 826.565C121.509 826.505 122.379 826.17 122.956 826.02C123.904 825.773 124.849 825.517 125.795 825.267C126.91 824.972 128.032 824.697 129.146 824.399L129.201 824.494C129.444 825.477 129.731 826.448 129.993 827.425C130.207 828.225 130.418 829.027 130.632 829.827C130.77 830.345 130.877 830.873 131.018 831.39C131.109 831.722 131.206 832.23 131.314 832.524C131.581 833.255 132.604 833.084 132.575 832.277C132.572 832.204 132.536 832.167 132.53 832.129L132.529 832.13Z" fill="white" fill-opacity="0.5"/>
</g>
<g clip-path="url(#clip2_1602_2)">
<path d="M132.529 3540.13C132.444 3539.61 132.254 3539.11 132.123 3538.6C131.919 3537.82 131.705 3537.04 131.499 3536.25C131.131 3534.86 130.805 3533.45 130.387 3532.07C131.856 3531.68 133.32 3531.28 134.787 3530.88C135.733 3530.63 136.682 3530.39 137.626 3530.13C137.913 3530.05 138.647 3529.95 138.821 3529.74C139.202 3529.27 138.874 3528.6 138.272 3528.66C137.716 3528.72 136.846 3529.06 136.269 3529.21C135.322 3529.45 134.377 3529.71 133.43 3529.96C132.315 3530.25 131.194 3530.53 130.079 3530.83L130.025 3530.73C129.781 3529.75 129.494 3528.78 129.232 3527.8C129.018 3527 128.807 3526.2 128.594 3525.4C128.456 3524.88 128.349 3524.35 128.208 3523.84C128.117 3523.5 128.02 3523 127.912 3522.7C127.645 3521.97 126.622 3522.14 126.651 3522.95C126.653 3523.02 126.69 3523.06 126.696 3523.1C126.782 3523.61 126.971 3524.12 127.102 3524.62C127.306 3525.41 127.52 3526.19 127.726 3526.97C128.094 3528.36 128.42 3529.78 128.838 3531.16C127.369 3531.54 125.905 3531.95 124.438 3532.34C123.492 3532.59 122.543 3532.83 121.599 3533.09C121.312 3533.17 120.578 3533.27 120.404 3533.49C120.023 3533.96 120.351 3534.63 120.953 3534.57C121.509 3534.51 122.379 3534.17 122.956 3534.02C123.904 3533.77 124.849 3533.52 125.795 3533.27C126.91 3532.97 128.032 3532.7 129.146 3532.4L129.201 3532.49C129.444 3533.48 129.731 3534.45 129.993 3535.43C130.207 3536.23 130.418 3537.03 130.632 3537.83C130.77 3538.35 130.877 3538.87 131.018 3539.39C131.109 3539.72 131.206 3540.23 131.314 3540.52C131.581 3541.25 132.604 3541.08 132.575 3540.28C132.572 3540.2 132.536 3540.17 132.53 3540.13L132.529 3540.13Z" fill="white" fill-opacity="0.5"/>
</g>
<g clip-path="url(#clip3_1602_2)">
<path d="M264.529 18.1296C264.444 17.6108 264.254 17.1082 264.123 16.6011C263.919 15.8173 263.705 15.0365 263.499 14.2538C263.131 12.8616 262.805 11.4461 262.387 10.0685C263.856 9.68155 265.32 9.2767 266.787 8.88449C267.733 8.63118 268.682 8.39414 269.626 8.13141C269.913 8.05147 270.647 7.95204 270.821 7.73747C271.202 7.26988 270.874 6.59504 270.272 6.66011C269.716 6.72021 268.846 7.05592 268.269 7.20564C267.322 7.45205 266.377 7.70883 265.43 7.95871C264.315 8.253 263.194 8.52807 262.079 8.82687L262.025 8.73094C261.781 7.74858 261.494 6.77671 261.232 5.80002C261.018 5.00039 260.807 4.19791 260.594 3.39814C260.456 2.88025 260.349 2.35286 260.208 1.83514C260.117 1.50328 260.02 0.995274 259.912 0.700989C259.645 -0.0293116 258.622 0.140841 258.651 0.948198C258.653 1.02083 258.69 1.05784 258.696 1.09598C258.782 1.6147 258.971 2.11734 259.102 2.62444C259.306 3.40819 259.52 4.18905 259.726 4.97173C260.094 6.36391 260.42 7.77947 260.838 9.15709C259.369 9.54399 257.905 9.94884 256.438 10.3411C255.492 10.5944 254.543 10.8314 253.599 11.0941C253.312 11.1741 252.578 11.2735 252.404 11.4881C252.023 11.9557 252.351 12.6305 252.953 12.5654C253.509 12.5053 254.379 12.1696 254.956 12.0198C255.904 11.7734 256.849 11.5166 257.795 11.2667C258.91 10.9724 260.032 10.6973 261.146 10.3985L261.201 10.4945C261.444 11.4768 261.731 12.4485 261.993 13.4254C262.207 14.225 262.418 15.0275 262.632 15.8273C262.77 16.3451 262.877 16.8725 263.018 17.3903C263.109 17.7221 263.206 18.2301 263.314 18.5244C263.581 19.2545 264.604 19.0842 264.575 18.2767C264.572 18.204 264.536 18.167 264.53 18.1289L264.529 18.1296Z" fill="white" fill-opacity="0.5"/>
</g>
<g clip-path="url(#clip4_1602_2)">
<path d="M333.529 1390.13C333.444 1389.61 333.254 1389.11 333.123 1388.6C332.919 1387.82 332.705 1387.04 332.499 1386.25C332.131 1384.86 331.805 1383.45 331.387 1382.07C332.856 1381.68 334.32 1381.28 335.787 1380.88C336.733 1380.63 337.682 1380.39 338.626 1380.13C338.913 1380.05 339.647 1379.95 339.821 1379.74C340.202 1379.27 339.874 1378.6 339.272 1378.66C338.716 1378.72 337.846 1379.06 337.269 1379.21C336.322 1379.45 335.377 1379.71 334.43 1379.96C333.315 1380.25 332.194 1380.53 331.079 1380.83L331.025 1380.73C330.781 1379.75 330.494 1378.78 330.232 1377.8C330.018 1377 329.807 1376.2 329.594 1375.4C329.456 1374.88 329.349 1374.35 329.208 1373.84C329.117 1373.5 329.02 1373 328.912 1372.7C328.645 1371.97 327.622 1372.14 327.651 1372.95C327.653 1373.02 327.69 1373.06 327.696 1373.1C327.782 1373.61 327.971 1374.12 328.102 1374.62C328.306 1375.41 328.52 1376.19 328.726 1376.97C329.094 1378.36 329.42 1379.78 329.838 1381.16C328.369 1381.54 326.905 1381.95 325.438 1382.34C324.492 1382.59 323.543 1382.83 322.599 1383.09C322.312 1383.17 321.578 1383.27 321.404 1383.49C321.023 1383.96 321.351 1384.63 321.953 1384.57C322.509 1384.51 323.379 1384.17 323.956 1384.02C324.904 1383.77 325.849 1383.52 326.795 1383.27C327.91 1382.97 329.032 1382.7 330.146 1382.4L330.201 1382.49C330.444 1383.48 330.731 1384.45 330.993 1385.43C331.207 1386.23 331.418 1387.03 331.632 1387.83C331.77 1388.35 331.877 1388.87 332.018 1389.39C332.109 1389.72 332.206 1390.23 332.314 1390.52C332.581 1391.25 333.604 1391.08 333.575 1390.28C333.572 1390.2 333.536 1390.17 333.53 1390.13L333.529 1390.13Z" fill="white" fill-opacity="0.5"/>
</g>
<g clip-path="url(#clip5_1602_2)">
<path d="M239.529 1872.13C239.444 1871.61 239.254 1871.11 239.123 1870.6C238.919 1869.82 238.705 1869.04 238.499 1868.25C238.131 1866.86 237.805 1865.45 237.387 1864.07C238.856 1863.68 240.32 1863.28 241.787 1862.88C242.733 1862.63 243.682 1862.39 244.626 1862.13C244.913 1862.05 245.647 1861.95 245.821 1861.74C246.202 1861.27 245.874 1860.6 245.272 1860.66C244.716 1860.72 243.846 1861.06 243.269 1861.21C242.322 1861.45 241.377 1861.71 240.43 1861.96C239.315 1862.25 238.194 1862.53 237.079 1862.83L237.025 1862.73C236.781 1861.75 236.494 1860.78 236.232 1859.8C236.018 1859 235.807 1858.2 235.594 1857.4C235.456 1856.88 235.349 1856.35 235.208 1855.84C235.117 1855.5 235.02 1855 234.912 1854.7C234.645 1853.97 233.622 1854.14 233.651 1854.95C233.653 1855.02 233.69 1855.06 233.696 1855.1C233.782 1855.61 233.971 1856.12 234.102 1856.62C234.306 1857.41 234.52 1858.19 234.726 1858.97C235.094 1860.36 235.42 1861.78 235.838 1863.16C234.369 1863.54 232.905 1863.95 231.438 1864.34C230.492 1864.59 229.543 1864.83 228.599 1865.09C228.312 1865.17 227.578 1865.27 227.404 1865.49C227.023 1865.96 227.351 1866.63 227.953 1866.57C228.509 1866.51 229.379 1866.17 229.956 1866.02C230.904 1865.77 231.849 1865.52 232.795 1865.27C233.91 1864.97 235.032 1864.7 236.146 1864.4L236.201 1864.49C236.444 1865.48 236.731 1866.45 236.993 1867.43C237.207 1868.23 237.418 1869.03 237.632 1869.83C237.77 1870.35 237.877 1870.87 238.018 1871.39C238.109 1871.72 238.206 1872.23 238.314 1872.52C238.581 1873.25 239.604 1873.08 239.575 1872.28C239.572 1872.2 239.536 1872.17 239.53 1872.13L239.529 1872.13Z" fill="white" fill-opacity="0.5"/>
</g>
<g clip-path="url(#clip6_1602_2)">
<path d="M107.529 4579.13C107.444 4578.61 107.254 4578.11 107.123 4577.6C106.919 4576.82 106.705 4576.04 106.499 4575.25C106.131 4573.86 105.805 4572.45 105.387 4571.07C106.856 4570.68 108.32 4570.28 109.787 4569.88C110.733 4569.63 111.682 4569.39 112.626 4569.13C112.913 4569.05 113.647 4568.95 113.821 4568.74C114.202 4568.27 113.874 4567.6 113.272 4567.66C112.716 4567.72 111.846 4568.06 111.269 4568.21C110.322 4568.45 109.377 4568.71 108.43 4568.96C107.315 4569.25 106.194 4569.53 105.079 4569.83L105.025 4569.73C104.781 4568.75 104.494 4567.78 104.232 4566.8C104.018 4566 103.807 4565.2 103.594 4564.4C103.456 4563.88 103.349 4563.35 103.208 4562.84C103.117 4562.5 103.02 4562 102.912 4561.7C102.645 4560.97 101.622 4561.14 101.651 4561.95C101.653 4562.02 101.69 4562.06 101.696 4562.1C101.782 4562.61 101.971 4563.12 102.102 4563.62C102.306 4564.41 102.52 4565.19 102.726 4565.97C103.094 4567.36 103.42 4568.78 103.838 4570.16C102.369 4570.54 100.905 4570.95 99.4381 4571.34C98.492 4571.59 97.5433 4571.83 96.5991 4572.09C96.3121 4572.17 95.5781 4572.27 95.4037 4572.49C95.0233 4572.96 95.3509 4573.63 95.9532 4573.57C96.5091 4573.51 97.3792 4573.17 97.9563 4573.02C98.9039 4572.77 99.8489 4572.52 100.795 4572.27C101.91 4571.97 103.032 4571.7 104.146 4571.4L104.201 4571.49C104.444 4572.48 104.731 4573.45 104.993 4574.43C105.207 4575.23 105.418 4576.03 105.632 4576.83C105.77 4577.35 105.877 4577.87 106.018 4578.39C106.109 4578.72 106.206 4579.23 106.314 4579.52C106.581 4580.25 107.604 4580.08 107.575 4579.28C107.572 4579.2 107.536 4579.17 107.53 4579.13L107.529 4579.13Z" fill="white" fill-opacity="0.5"/>
</g>
<g clip-path="url(#clip7_1602_2)">
<path d="M95.5291 3076.13C95.4435 3075.61 95.2544 3075.11 95.1228 3074.6C94.9194 3073.82 94.705 3073.04 94.4987 3072.25C94.1315 3070.86 93.8051 3069.45 93.3874 3068.07C94.8559 3067.68 96.3205 3067.28 97.7869 3066.88C98.7331 3066.63 99.6818 3066.39 100.626 3066.13C100.913 3066.05 101.647 3065.95 101.821 3065.74C102.202 3065.27 101.874 3064.6 101.272 3064.66C100.716 3064.72 99.8459 3065.06 99.2693 3065.21C98.3217 3065.45 97.3768 3065.71 96.4303 3065.96C95.3154 3066.25 94.1936 3066.53 93.0792 3066.83L93.0245 3066.73C92.7812 3065.75 92.4938 3064.78 92.2324 3063.8C92.0184 3063 91.8073 3062.2 91.5938 3061.4C91.4556 3060.88 91.3487 3060.35 91.2075 3059.84C91.1169 3059.5 91.0196 3059 90.9118 3058.7C90.6446 3057.97 89.622 3058.14 89.6505 3058.95C89.6532 3059.02 89.6899 3059.06 89.6959 3059.1C89.7815 3059.61 89.9707 3060.12 90.1023 3060.62C90.3057 3061.41 90.52 3062.19 90.7264 3062.97C91.0936 3064.36 91.42 3065.78 91.8377 3067.16C90.3692 3067.54 88.9046 3067.95 87.4381 3068.34C86.492 3068.59 85.5433 3068.83 84.5991 3069.09C84.3121 3069.17 83.5781 3069.27 83.4037 3069.49C83.0233 3069.96 83.3509 3070.63 83.9532 3070.57C84.5091 3070.51 85.3792 3070.17 85.9563 3070.02C86.9039 3069.77 87.8489 3069.52 88.7953 3069.27C89.9102 3068.97 91.0321 3068.7 92.1464 3068.4L92.2011 3068.49C92.4445 3069.48 92.7314 3070.45 92.9932 3071.43C93.2073 3072.23 93.4183 3073.03 93.6318 3073.83C93.7701 3074.35 93.877 3074.87 94.0181 3075.39C94.1087 3075.72 94.2061 3076.23 94.3138 3076.52C94.5807 3077.25 95.6038 3077.08 95.575 3076.28C95.5723 3076.2 95.5356 3076.17 95.5295 3076.13L95.5291 3076.13Z" fill="white" fill-opacity="0.5"/>
</g>
<g clip-path="url(#clip8_1602_2)">
<path d="M69.5291 2334.13C69.4435 2333.61 69.2544 2333.11 69.1228 2332.6C68.9194 2331.82 68.705 2331.04 68.4987 2330.25C68.1315 2328.86 67.8051 2327.45 67.3874 2326.07C68.8559 2325.68 70.3205 2325.28 71.7869 2324.88C72.7331 2324.63 73.6818 2324.39 74.626 2324.13C74.913 2324.05 75.647 2323.95 75.8214 2323.74C76.2017 2323.27 75.8742 2322.6 75.2719 2322.66C74.716 2322.72 73.8459 2323.06 73.2693 2323.21C72.3217 2323.45 71.3768 2323.71 70.4303 2323.96C69.3154 2324.25 68.1936 2324.53 67.0792 2324.83L67.0245 2324.73C66.7812 2323.75 66.4938 2322.78 66.2324 2321.8C66.0184 2321 65.8073 2320.2 65.5938 2319.4C65.4556 2318.88 65.3487 2318.35 65.2075 2317.84C65.1169 2317.5 65.0196 2317 64.9118 2316.7C64.6446 2315.97 63.622 2316.14 63.6505 2316.95C63.6532 2317.02 63.6899 2317.06 63.6959 2317.1C63.7815 2317.61 63.9707 2318.12 64.1023 2318.62C64.3057 2319.41 64.52 2320.19 64.7264 2320.97C65.0936 2322.36 65.42 2323.78 65.8377 2325.16C64.3692 2325.54 62.9046 2325.95 61.4381 2326.34C60.492 2326.59 59.5433 2326.83 58.5991 2327.09C58.3121 2327.17 57.5781 2327.27 57.4037 2327.49C57.0233 2327.96 57.3509 2328.63 57.9532 2328.57C58.5091 2328.51 59.3792 2328.17 59.9563 2328.02C60.9039 2327.77 61.8489 2327.52 62.7953 2327.27C63.9102 2326.97 65.0321 2326.7 66.1464 2326.4L66.2011 2326.49C66.4445 2327.48 66.7314 2328.45 66.9932 2329.43C67.2073 2330.23 67.4183 2331.03 67.6318 2331.83C67.7701 2332.35 67.877 2332.87 68.0181 2333.39C68.1087 2333.72 68.2061 2334.23 68.3138 2334.52C68.5807 2335.25 69.6038 2335.08 69.575 2334.28C69.5723 2334.2 69.5356 2334.17 69.5295 2334.13L69.5291 2334.13Z" fill="white" fill-opacity="0.5"/>
</g>
<path d="M50.0644 458.511C48.3342 459.788 46.0918 462.591 44.4644 464.207C41.7925 466.863 39.1498 469.548 36.4886 472.213C33.3535 475.353 30.1586 478.442 27.0342 481.595L26.6677 481.381C23.9666 478.576 21.1413 475.89 18.3897 473.139C16.1381 470.886 13.891 468.618 11.6409 466.364C10.1838 464.904 8.81259 463.352 7.34627 461.899C6.40605 460.967 5.10385 459.461 4.17896 458.688C1.88592 456.77 -1.1817 459.316 0.468679 461.954C0.617458 462.191 0.810718 462.243 0.90428 462.359C2.18808 463.923 3.78477 465.234 5.19894 466.67C7.38462 468.891 9.60097 471.08 11.7943 473.291C16.4939 478.027 21.0616 482.995 26.0587 487.378C26.9759 487.857 27.9039 487.508 28.6693 486.921C33.4133 482.214 38.0715 477.419 42.7772 472.675C45.4307 469.999 48.1241 467.372 50.753 464.669C51.5522 463.846 53.7976 462.094 53.9633 461.041C54.3253 458.745 51.9371 457.128 50.0628 458.511H50.0644Z" fill="white" fill-opacity="0.5"/>
<path d="M50.0643 475.962C48.3342 477.238 46.0918 480.042 44.4644 481.657C41.7925 484.313 39.1498 486.999 36.4886 489.664C33.3535 492.804 30.1586 495.892 27.0342 499.046L26.6676 498.832C23.9666 496.026 21.1413 493.341 18.3897 490.589C16.138 488.337 13.891 486.069 11.6409 483.814C10.1838 482.355 8.81257 480.803 7.34625 479.349C6.40602 478.418 5.10382 476.912 4.17894 476.139C1.88589 474.22 -1.18326 476.769 0.468654 479.406C0.617433 479.643 0.810693 479.696 0.904256 479.811C2.18805 481.376 3.78475 482.686 5.19892 484.122C7.38459 486.343 9.60095 488.532 11.7943 490.743C16.4939 495.48 21.0616 500.447 26.0587 504.831C26.9759 505.309 27.9039 504.96 28.6693 504.373C33.4133 499.666 38.0715 494.871 42.7772 490.127C45.4307 487.451 48.1241 484.825 50.753 482.121C51.5521 481.299 53.7976 479.546 53.9633 478.493C54.3253 476.197 51.9371 474.581 50.0628 475.963L50.0643 475.962Z" fill="white" fill-opacity="0.5"/>
<path d="M50.0643 493.413C48.3342 494.689 46.0918 497.493 44.4644 499.108C41.7925 501.765 39.1498 504.45 36.4886 507.115C33.3535 510.255 30.1586 513.343 27.0342 516.497L26.6676 516.283C23.9666 513.477 21.1413 510.792 18.3897 508.041C16.138 505.788 13.891 503.52 11.6409 501.266C10.1838 499.806 8.81257 498.254 7.34625 496.8C6.40602 495.869 5.10382 494.363 4.17894 493.59C1.88589 491.671 -1.18326 494.22 0.468654 496.857C0.617433 497.094 0.810693 497.147 0.904256 497.262C2.18805 498.827 3.78475 500.137 5.19892 501.574C7.38459 503.794 9.60095 505.983 11.7943 508.195C16.4939 512.931 21.0616 517.898 26.0587 522.282C26.9759 522.761 27.9039 522.411 28.6693 521.824C33.4133 517.117 38.0715 512.323 42.7772 507.579C45.4307 504.903 48.1241 502.276 50.753 499.572C51.5521 498.75 53.7976 496.997 53.9633 495.944C54.3253 493.648 51.9371 492.032 50.0628 493.414L50.0643 493.413Z" fill="white" fill-opacity="0.5"/>
<path d="M50.0642 511.004C48.3341 512.281 46.0917 515.085 44.4643 516.7C41.7924 519.356 39.1497 522.041 36.4885 524.707C33.3534 527.846 30.1585 530.935 27.0341 534.088L26.6675 533.874C23.9665 531.069 21.1412 528.383 18.3896 525.632C16.1379 523.379 13.8909 521.111 11.6408 518.857C10.1837 517.397 8.81247 515.845 7.34615 514.392C6.40593 513.46 5.10372 511.954 4.17884 511.181C1.8858 509.263 -1.18182 511.81 0.468557 514.447C0.617336 514.684 0.810596 514.737 0.904158 514.852C2.18796 516.417 3.78465 517.727 5.19882 519.163C7.3845 521.384 9.60085 523.573 11.7942 525.784C16.4938 530.521 21.0615 535.488 26.0586 539.872C26.9758 540.35 27.9038 540.001 28.6692 539.414C33.4132 534.707 38.0714 529.912 42.7771 525.168C45.4306 522.492 48.124 519.866 50.7529 517.162C51.552 516.34 53.7975 514.587 53.9632 513.534C54.3252 511.238 51.937 509.622 50.0627 511.004H50.0642Z" fill="white" fill-opacity="0.5"/>
<path d="M50.0643 528.455C48.3342 529.731 46.0918 532.535 44.4644 534.15C41.7925 536.807 39.1498 539.492 36.4886 542.157C33.3535 545.297 30.1586 548.385 27.0342 551.539L26.6676 551.325C23.9666 548.519 21.1413 545.834 18.3897 543.083C16.138 540.83 13.891 538.562 11.6409 536.308C10.1838 534.848 8.81257 533.296 7.34625 531.842C6.40602 530.911 5.10382 529.405 4.17894 528.632C1.88589 526.713 -1.18326 529.262 0.468654 531.899C0.617433 532.136 0.810693 532.189 0.904256 532.304C2.18805 533.869 3.78475 535.179 5.19892 536.616C7.38459 538.836 9.60095 541.025 11.7943 543.237C16.4939 547.973 21.0616 552.94 26.0587 557.324C26.9759 557.803 27.9039 557.453 28.6693 556.866C33.4133 552.159 38.0715 547.365 42.7772 542.621C45.4307 539.945 48.1241 537.318 50.753 534.614C51.5521 533.792 53.7976 532.039 53.9633 530.986C54.3253 528.69 51.9371 527.074 50.0628 528.456L50.0643 528.455Z" fill="white" fill-opacity="0.5"/>
<path d="M50.0643 545.906C48.3342 547.183 46.0918 549.986 44.4644 551.602C41.7925 554.258 39.1498 556.943 36.4886 559.608C33.3535 562.748 30.1586 565.837 27.0342 568.99L26.6676 568.776C23.9666 565.971 21.1413 563.285 18.3897 560.534C16.138 558.281 13.891 556.013 11.6409 553.759C10.1838 552.299 8.81257 550.747 7.34625 549.294C6.40602 548.362 5.10382 546.856 4.17894 546.083C1.88589 544.165 -1.18326 546.713 0.468654 549.35C0.617433 549.588 0.810693 549.64 0.904256 549.755C2.18805 551.32 3.78475 552.63 5.19892 554.067C7.38459 556.287 9.60095 558.477 11.7943 560.688C16.4939 565.424 21.0616 570.391 26.0587 574.775C26.9759 575.254 27.9039 574.904 28.6693 574.318C33.4133 569.611 38.0715 564.816 42.7772 560.072C45.4307 557.396 48.1241 554.769 50.753 552.065C51.5521 551.243 53.7976 549.491 53.9633 548.437C54.3253 546.142 51.9371 544.525 50.0628 545.908L50.0643 545.906Z" fill="white" fill-opacity="0.5"/>
<circle cx="88.5" cy="126.5" r="17" stroke="white" stroke-opacity="0.5" stroke-width="3"/>
<circle cx="314.5" cy="872.5" r="17" stroke="white" stroke-opacity="0.5" stroke-width="3"/>
<circle cx="314.5" cy="3580.5" r="17" stroke="white" stroke-opacity="0.5" stroke-width="3"/>
<circle cx="326.5" cy="4509.5" r="17" stroke="white" stroke-opacity="0.5" stroke-width="3"/>
<circle cx="107" cy="106" r="6" stroke="white" stroke-opacity="0.5" stroke-width="2"/>
<circle cx="333" cy="852" r="6" stroke="white" stroke-opacity="0.5" stroke-width="2"/>
<circle cx="333" cy="3560" r="6" stroke="white" stroke-opacity="0.5" stroke-width="2"/>
<circle cx="345" cy="4489" r="6" stroke="white" stroke-opacity="0.5" stroke-width="2"/>
<circle cx="275" cy="2333" r="6" stroke="white" stroke-opacity="0.5" stroke-width="2"/>
<circle cx="359" cy="2990" r="6" stroke="white" stroke-opacity="0.5" stroke-width="2"/>
<g clip-path="url(#clip9_1602_2)">
<path d="M360.648 477.895C360.152 474.888 359.055 471.973 358.292 469.033C357.112 464.489 355.87 459.961 354.673 455.423C352.544 447.351 350.652 439.143 348.23 431.155C356.744 428.912 365.236 426.565 373.739 424.29C379.225 422.822 384.726 421.447 390.2 419.924C391.865 419.46 396.12 418.884 397.132 417.64C399.337 414.929 397.438 411.016 393.946 411.393C390.722 411.742 385.677 413.688 382.334 414.556C376.84 415.985 371.361 417.474 365.873 418.923C359.409 420.629 352.904 422.224 346.443 423.956L346.126 423.4C344.715 417.704 343.049 412.069 341.533 406.406C340.292 401.77 339.068 397.117 337.83 392.479C337.029 389.477 336.409 386.419 335.59 383.417C335.065 381.493 334.501 378.547 333.876 376.841C332.326 372.606 326.397 373.593 326.562 378.274C326.578 378.695 326.791 378.91 326.826 379.131C327.322 382.139 328.419 385.053 329.182 387.993C330.361 392.538 331.604 397.065 332.801 401.603C334.93 409.676 336.822 417.883 339.244 425.871C330.73 428.114 322.238 430.462 313.735 432.736C308.249 434.205 302.748 435.579 297.274 437.102C295.609 437.566 291.354 438.142 290.342 439.386C288.137 442.098 290.036 446.011 293.528 445.633C296.751 445.285 301.797 443.338 305.143 442.469C310.637 441.041 316.116 439.552 321.604 438.103C328.068 436.397 334.573 434.802 341.034 433.069L341.351 433.625C342.762 439.321 344.426 444.955 345.944 450.619C347.185 455.256 348.409 459.909 349.647 464.546C350.448 467.549 351.068 470.607 351.887 473.609C352.412 475.533 352.976 478.478 353.601 480.185C355.149 484.418 361.081 483.43 360.914 478.748C360.898 478.327 360.685 478.112 360.65 477.891L360.648 477.895Z" fill="white" fill-opacity="0.5"/>
</g>
<g clip-path="url(#clip10_1602_2)">
<path d="M377.251 391.47C377.025 390.098 376.524 388.769 376.176 387.428C375.639 385.355 375.072 383.29 374.526 381.221C373.555 377.539 372.692 373.796 371.587 370.153C375.471 369.13 379.344 368.059 383.221 367.022C385.723 366.352 388.232 365.726 390.729 365.031C391.488 364.819 393.429 364.556 393.89 363.989C394.896 362.753 394.03 360.968 392.437 361.14C390.967 361.299 388.666 362.187 387.141 362.583C384.635 363.234 382.137 363.913 379.634 364.574C376.686 365.352 373.719 366.08 370.773 366.87L370.628 366.616C369.984 364.018 369.225 361.448 368.533 358.866C367.967 356.751 367.409 354.629 366.845 352.514C366.479 351.145 366.196 349.75 365.823 348.381C365.583 347.504 365.326 346.16 365.041 345.382C364.334 343.451 361.63 343.901 361.706 346.036C361.713 346.228 361.81 346.326 361.826 346.426C362.052 347.798 362.552 349.127 362.9 350.468C363.438 352.541 364.005 354.606 364.551 356.675C365.522 360.357 366.385 364.1 367.489 367.743C363.606 368.766 359.733 369.837 355.855 370.874C353.353 371.544 350.845 372.171 348.348 372.865C347.589 373.077 345.648 373.34 345.187 373.907C344.181 375.144 345.047 376.928 346.64 376.756C348.11 376.597 350.411 375.709 351.937 375.313C354.443 374.661 356.941 373.982 359.444 373.322C362.393 372.543 365.359 371.816 368.306 371.026L368.45 371.28C369.094 373.877 369.853 376.447 370.545 379.03C371.111 381.145 371.669 383.267 372.234 385.381C372.599 386.751 372.882 388.146 373.255 389.515C373.495 390.392 373.752 391.736 374.037 392.514C374.743 394.444 377.448 393.994 377.372 391.859C377.365 391.666 377.268 391.569 377.252 391.468L377.251 391.47Z" fill="white" fill-opacity="0.5"/>
</g>
<g clip-path="url(#clip11_1602_2)">
<path d="M299.179 475.421C299.104 474.963 298.936 474.518 298.82 474.069C298.64 473.376 298.45 472.685 298.268 471.993C297.943 470.761 297.654 469.509 297.285 468.29C298.584 467.948 299.88 467.59 301.177 467.243C302.014 467.019 302.853 466.809 303.688 466.577C303.942 466.506 304.591 466.418 304.746 466.228C305.082 465.815 304.792 465.218 304.26 465.275C303.768 465.329 302.998 465.626 302.488 465.758C301.65 465.976 300.814 466.203 299.977 466.424C298.99 466.684 297.998 466.928 297.012 467.192L296.964 467.107C296.749 466.238 296.494 465.379 296.263 464.515C296.074 463.807 295.887 463.097 295.698 462.39C295.576 461.932 295.481 461.465 295.357 461.007C295.276 460.714 295.19 460.264 295.095 460.004C294.859 459.358 293.954 459.508 293.979 460.223C293.982 460.287 294.014 460.32 294.019 460.353C294.095 460.812 294.262 461.257 294.379 461.705C294.559 462.399 294.748 463.089 294.931 463.782C295.256 465.013 295.544 466.266 295.914 467.484C294.615 467.827 293.319 468.185 292.022 468.532C291.185 468.756 290.346 468.965 289.511 469.198C289.257 469.269 288.607 469.356 288.453 469.546C288.117 469.96 288.406 470.557 288.939 470.499C289.431 470.446 290.201 470.149 290.711 470.017C291.55 469.799 292.385 469.571 293.223 469.35C294.209 469.09 295.201 468.847 296.187 468.582L296.235 468.667C296.451 469.536 296.705 470.396 296.936 471.26C297.126 471.967 297.312 472.677 297.501 473.385C297.623 473.843 297.718 474.309 297.843 474.767C297.923 475.061 298.009 475.51 298.104 475.771C298.34 476.417 299.246 476.266 299.22 475.552C299.218 475.487 299.185 475.455 299.18 475.421L299.179 475.421Z" fill="white" fill-opacity="0.5"/>
</g>
<g clip-path="url(#clip12_1602_2)">
<path d="M392.17 350.038C392.094 349.579 391.927 349.134 391.81 348.686C391.63 347.992 391.441 347.301 391.258 346.609C390.933 345.378 390.645 344.125 390.275 342.907C391.574 342.564 392.87 342.206 394.167 341.859C395.004 341.635 395.843 341.426 396.678 341.193C396.932 341.122 397.582 341.034 397.736 340.845C398.072 340.431 397.783 339.834 397.25 339.892C396.758 339.945 395.988 340.242 395.478 340.374C394.64 340.592 393.804 340.819 392.967 341.04C391.981 341.301 390.988 341.544 390.003 341.808L389.954 341.723C389.739 340.854 389.485 339.995 389.253 339.131C389.064 338.423 388.877 337.714 388.689 337.006C388.566 336.548 388.472 336.081 388.347 335.623C388.267 335.33 388.181 334.88 388.085 334.62C387.849 333.974 386.944 334.125 386.969 334.839C386.972 334.903 387.004 334.936 387.01 334.97C387.085 335.428 387.253 335.873 387.369 336.322C387.549 337.015 387.739 337.706 387.921 338.398C388.246 339.63 388.535 340.882 388.904 342.1C387.605 342.443 386.31 342.801 385.012 343.148C384.175 343.372 383.336 343.582 382.501 343.814C382.247 343.885 381.598 343.973 381.443 344.162C381.107 344.576 381.397 345.173 381.929 345.116C382.421 345.062 383.191 344.765 383.701 344.633C384.54 344.415 385.376 344.188 386.213 343.967C387.199 343.706 388.192 343.463 389.177 343.199L389.226 343.284C389.441 344.153 389.695 345.012 389.926 345.876C390.116 346.584 390.302 347.293 390.491 348.001C390.614 348.459 390.708 348.926 390.833 349.384C390.913 349.677 390.999 350.127 391.095 350.387C391.331 351.033 392.236 350.882 392.21 350.168C392.208 350.103 392.175 350.071 392.17 350.037L392.17 350.038Z" fill="white" fill-opacity="0.5"/>
</g>
<defs>
<clipPath id="clip0_1602_2">
<rect width="14.0659" height="14.0659" fill="white" transform="translate(369.06 140) rotate(30.1276)"/>
</clipPath>
<clipPath id="clip1_1602_2">
<rect width="14.0659" height="14.0659" fill="white" transform="translate(127.06 814) rotate(30.1276)"/>
</clipPath>
<clipPath id="clip2_1602_2">
<rect width="14.0659" height="14.0659" fill="white" transform="translate(127.06 3522) rotate(30.1276)"/>
</clipPath>
<clipPath id="clip3_1602_2">
<rect width="14.0659" height="14.0659" fill="white" transform="translate(259.06) rotate(30.1276)"/>
</clipPath>
<clipPath id="clip4_1602_2">
<rect width="14.0659" height="14.0659" fill="white" transform="translate(328.06 1372) rotate(30.1276)"/>
</clipPath>
<clipPath id="clip5_1602_2">
<rect width="14.0659" height="14.0659" fill="white" transform="translate(234.06 1854) rotate(30.1276)"/>
</clipPath>
<clipPath id="clip6_1602_2">
<rect width="14.0659" height="14.0659" fill="white" transform="translate(102.06 4561) rotate(30.1276)"/>
</clipPath>
<clipPath id="clip7_1602_2">
<rect width="14.0659" height="14.0659" fill="white" transform="translate(90.0601 3058) rotate(30.1276)"/>
</clipPath>
<clipPath id="clip8_1602_2">
<rect width="14.0659" height="14.0659" fill="white" transform="translate(64.0601 2316) rotate(30.1276)"/>
</clipPath>
<clipPath id="clip9_1602_2">
<rect width="81.5567" height="81.5567" fill="white" transform="translate(328.936 372.777) rotate(30.1276)"/>
</clipPath>
<clipPath id="clip10_1602_2">
<rect width="37.1954" height="37.1954" fill="white" transform="translate(362.788 343.528) rotate(30.1276)"/>
</clipPath>
<clipPath id="clip11_1602_2">
<rect width="12.4428" height="12.4428" fill="white" transform="translate(294.341 459.384) rotate(30.1276)"/>
</clipPath>
<clipPath id="clip12_1602_2">
<rect width="12.4428" height="12.4428" fill="white" transform="translate(387.332 334) rotate(30.1276)"/>
</clipPath>
</defs>
</svg>
