<svg width="400" height="575" viewBox="0 0 400 575" fill="none" xmlns="http://www.w3.org/2000/svg">
<circle cx="91" cy="394" r="8" stroke="white" stroke-opacity="0.5" stroke-width="2"/>
<g clip-path="url(#clip0_1714_2)">
<path d="M374.529 158.13C374.444 157.611 374.254 157.108 374.123 156.601C373.919 155.817 373.705 155.036 373.499 154.254C373.131 152.862 372.805 151.446 372.387 150.068C373.856 149.682 375.32 149.277 376.787 148.884C377.733 148.631 378.682 148.394 379.626 148.131C379.913 148.051 380.647 147.952 380.821 147.737C381.202 147.27 380.874 146.595 380.272 146.66C379.716 146.72 378.846 147.056 378.269 147.206C377.322 147.452 376.377 147.709 375.43 147.959C374.315 148.253 373.194 148.528 372.079 148.827L372.025 148.731C371.781 147.749 371.494 146.777 371.232 145.8C371.018 145 370.807 144.198 370.594 143.398C370.456 142.88 370.349 142.353 370.208 141.835C370.117 141.503 370.02 140.995 369.912 140.701C369.645 139.971 368.622 140.141 368.651 140.948C368.653 141.021 368.69 141.058 368.696 141.096C368.782 141.615 368.971 142.117 369.102 142.624C369.306 143.408 369.52 144.189 369.726 144.972C370.094 146.364 370.42 147.779 370.838 149.157C369.369 149.544 367.905 149.949 366.438 150.341C365.492 150.594 364.543 150.831 363.599 151.094C363.312 151.174 362.578 151.274 362.404 151.488C362.023 151.956 362.351 152.631 362.953 152.565C363.509 152.505 364.379 152.17 364.956 152.02C365.904 151.773 366.849 151.517 367.795 151.267C368.91 150.972 370.032 150.697 371.146 150.399L371.201 150.494C371.444 151.477 371.731 152.448 371.993 153.425C372.207 154.225 372.418 155.027 372.632 155.827C372.77 156.345 372.877 156.873 373.018 157.39C373.109 157.722 373.206 158.23 373.314 158.524C373.581 159.255 374.604 159.084 374.575 158.277C374.572 158.204 374.536 158.167 374.53 158.129L374.529 158.13Z" fill="white" fill-opacity="0.5"/>
</g>
<g clip-path="url(#clip1_1714_2)">
<path d="M264.529 18.1296C264.444 17.6108 264.254 17.1082 264.123 16.6011C263.919 15.8173 263.705 15.0365 263.499 14.2538C263.131 12.8616 262.805 11.4461 262.387 10.0685C263.856 9.68155 265.32 9.2767 266.787 8.88449C267.733 8.63118 268.682 8.39414 269.626 8.13141C269.913 8.05147 270.647 7.95204 270.821 7.73747C271.202 7.26988 270.874 6.59504 270.272 6.66011C269.716 6.72021 268.846 7.05592 268.269 7.20564C267.322 7.45205 266.377 7.70883 265.43 7.95871C264.315 8.253 263.194 8.52807 262.079 8.82687L262.025 8.73094C261.781 7.74858 261.494 6.77671 261.232 5.80002C261.018 5.00039 260.807 4.19791 260.594 3.39814C260.456 2.88025 260.349 2.35286 260.208 1.83514C260.117 1.50328 260.02 0.995274 259.912 0.700989C259.645 -0.0293116 258.622 0.140841 258.651 0.948198C258.653 1.02083 258.69 1.05784 258.696 1.09598C258.782 1.6147 258.971 2.11734 259.102 2.62444C259.306 3.40819 259.52 4.18905 259.726 4.97173C260.094 6.36391 260.42 7.77947 260.838 9.15709C259.369 9.54399 257.905 9.94884 256.438 10.3411C255.492 10.5944 254.543 10.8314 253.599 11.0941C253.312 11.1741 252.578 11.2735 252.404 11.4881C252.023 11.9557 252.351 12.6305 252.953 12.5654C253.509 12.5053 254.379 12.1696 254.956 12.0198C255.904 11.7734 256.849 11.5166 257.795 11.2667C258.91 10.9724 260.032 10.6973 261.146 10.3985L261.201 10.4945C261.444 11.4768 261.731 12.4485 261.993 13.4254C262.207 14.225 262.418 15.0275 262.632 15.8273C262.77 16.3451 262.877 16.8725 263.018 17.3903C263.109 17.7221 263.206 18.2301 263.314 18.5244C263.581 19.2545 264.604 19.0842 264.575 18.2767C264.572 18.204 264.536 18.167 264.53 18.1289L264.529 18.1296Z" fill="white" fill-opacity="0.5"/>
</g>
<path d="M50.0644 458.511C48.3342 459.788 46.0918 462.591 44.4644 464.207C41.7925 466.863 39.1498 469.548 36.4886 472.213C33.3535 475.353 30.1586 478.442 27.0342 481.595L26.6677 481.381C23.9666 478.576 21.1413 475.89 18.3897 473.139C16.1381 470.886 13.891 468.618 11.6409 466.364C10.1838 464.904 8.81259 463.352 7.34627 461.899C6.40605 460.967 5.10385 459.461 4.17896 458.688C1.88592 456.77 -1.1817 459.316 0.468679 461.954C0.617458 462.191 0.810718 462.243 0.90428 462.359C2.18808 463.923 3.78477 465.234 5.19894 466.67C7.38462 468.891 9.60097 471.08 11.7943 473.291C16.4939 478.027 21.0616 482.995 26.0587 487.378C26.9759 487.857 27.9039 487.508 28.6693 486.921C33.4133 482.214 38.0715 477.419 42.7772 472.675C45.4307 469.999 48.1241 467.372 50.753 464.669C51.5522 463.846 53.7976 462.094 53.9633 461.041C54.3253 458.745 51.9371 457.128 50.0628 458.511H50.0644Z" fill="white" fill-opacity="0.5"/>
<path d="M50.0643 475.962C48.3342 477.238 46.0918 480.042 44.4644 481.657C41.7925 484.313 39.1498 486.999 36.4886 489.664C33.3535 492.804 30.1586 495.892 27.0342 499.046L26.6676 498.832C23.9666 496.026 21.1413 493.341 18.3897 490.589C16.138 488.337 13.891 486.069 11.6409 483.814C10.1838 482.355 8.81257 480.803 7.34625 479.349C6.40602 478.418 5.10382 476.912 4.17894 476.139C1.88589 474.22 -1.18326 476.769 0.468654 479.406C0.617433 479.643 0.810693 479.696 0.904256 479.811C2.18805 481.376 3.78475 482.686 5.19892 484.122C7.38459 486.343 9.60095 488.532 11.7943 490.743C16.4939 495.48 21.0616 500.447 26.0587 504.831C26.9759 505.309 27.9039 504.96 28.6693 504.373C33.4133 499.666 38.0715 494.871 42.7772 490.127C45.4307 487.451 48.1241 484.825 50.753 482.121C51.5521 481.299 53.7976 479.546 53.9633 478.493C54.3253 476.197 51.9371 474.581 50.0628 475.963L50.0643 475.962Z" fill="white" fill-opacity="0.5"/>
<path d="M50.0643 493.413C48.3342 494.689 46.0918 497.493 44.4644 499.108C41.7925 501.765 39.1498 504.45 36.4886 507.115C33.3535 510.255 30.1586 513.343 27.0342 516.497L26.6676 516.283C23.9666 513.477 21.1413 510.792 18.3897 508.041C16.138 505.788 13.891 503.52 11.6409 501.266C10.1838 499.806 8.81257 498.254 7.34625 496.8C6.40602 495.869 5.10382 494.363 4.17894 493.59C1.88589 491.671 -1.18326 494.22 0.468654 496.857C0.617433 497.094 0.810693 497.147 0.904256 497.262C2.18805 498.827 3.78475 500.137 5.19892 501.574C7.38459 503.794 9.60095 505.983 11.7943 508.195C16.4939 512.931 21.0616 517.898 26.0587 522.282C26.9759 522.761 27.9039 522.411 28.6693 521.824C33.4133 517.117 38.0715 512.323 42.7772 507.579C45.4307 504.903 48.1241 502.276 50.753 499.572C51.5521 498.75 53.7976 496.997 53.9633 495.944C54.3253 493.648 51.9371 492.032 50.0628 493.414L50.0643 493.413Z" fill="white" fill-opacity="0.5"/>
<path d="M50.0642 511.004C48.3341 512.281 46.0917 515.085 44.4643 516.7C41.7924 519.356 39.1497 522.041 36.4885 524.707C33.3534 527.846 30.1585 530.935 27.0341 534.088L26.6675 533.874C23.9665 531.069 21.1412 528.383 18.3896 525.632C16.1379 523.379 13.8909 521.111 11.6408 518.857C10.1837 517.397 8.81247 515.845 7.34615 514.392C6.40593 513.46 5.10372 511.954 4.17884 511.181C1.8858 509.263 -1.18182 511.81 0.468557 514.447C0.617336 514.684 0.810596 514.737 0.904158 514.852C2.18796 516.417 3.78465 517.727 5.19882 519.163C7.3845 521.384 9.60085 523.573 11.7942 525.784C16.4938 530.521 21.0615 535.488 26.0586 539.872C26.9758 540.35 27.9038 540.001 28.6692 539.414C33.4132 534.707 38.0714 529.912 42.7771 525.168C45.4306 522.492 48.124 519.866 50.7529 517.162C51.552 516.34 53.7975 514.587 53.9632 513.534C54.3252 511.238 51.937 509.622 50.0627 511.004H50.0642Z" fill="white" fill-opacity="0.5"/>
<path d="M50.0643 528.455C48.3342 529.731 46.0918 532.535 44.4644 534.15C41.7925 536.807 39.1498 539.492 36.4886 542.157C33.3535 545.297 30.1586 548.385 27.0342 551.539L26.6676 551.325C23.9666 548.519 21.1413 545.834 18.3897 543.083C16.138 540.83 13.891 538.562 11.6409 536.308C10.1838 534.848 8.81257 533.296 7.34625 531.842C6.40602 530.911 5.10382 529.405 4.17894 528.632C1.88589 526.713 -1.18326 529.262 0.468654 531.899C0.617433 532.136 0.810693 532.189 0.904256 532.304C2.18805 533.869 3.78475 535.179 5.19892 536.616C7.38459 538.836 9.60095 541.025 11.7943 543.237C16.4939 547.973 21.0616 552.94 26.0587 557.324C26.9759 557.803 27.9039 557.453 28.6693 556.866C33.4133 552.159 38.0715 547.365 42.7772 542.621C45.4307 539.945 48.1241 537.318 50.753 534.614C51.5521 533.792 53.7976 532.039 53.9633 530.986C54.3253 528.69 51.9371 527.074 50.0628 528.456L50.0643 528.455Z" fill="white" fill-opacity="0.5"/>
<path d="M50.0643 545.906C48.3342 547.183 46.0918 549.986 44.4644 551.602C41.7925 554.258 39.1498 556.943 36.4886 559.608C33.3535 562.748 30.1586 565.837 27.0342 568.99L26.6676 568.776C23.9666 565.971 21.1413 563.285 18.3897 560.534C16.138 558.281 13.891 556.013 11.6409 553.759C10.1838 552.299 8.81257 550.747 7.34625 549.294C6.40602 548.362 5.10382 546.856 4.17894 546.083C1.88589 544.165 -1.18326 546.713 0.468654 549.35C0.617433 549.588 0.810693 549.64 0.904256 549.755C2.18805 551.32 3.78475 552.63 5.19892 554.067C7.38459 556.287 9.60095 558.477 11.7943 560.688C16.4939 565.424 21.0616 570.391 26.0587 574.775C26.9759 575.254 27.9039 574.904 28.6693 574.318C33.4133 569.611 38.0715 564.816 42.7772 560.072C45.4307 557.396 48.1241 554.769 50.753 552.065C51.5521 551.243 53.7976 549.491 53.9633 548.437C54.3253 546.142 51.9371 544.525 50.0628 545.908L50.0643 545.906Z" fill="white" fill-opacity="0.5"/>
<circle cx="88.5" cy="126.5" r="17" stroke="white" stroke-opacity="0.5" stroke-width="3"/>
<circle cx="107" cy="106" r="6" stroke="white" stroke-opacity="0.5" stroke-width="2"/>
<g clip-path="url(#clip2_1714_2)">
<path d="M360.648 477.895C360.152 474.888 359.055 471.973 358.292 469.033C357.112 464.489 355.87 459.961 354.673 455.423C352.544 447.351 350.652 439.143 348.23 431.155C356.744 428.912 365.236 426.565 373.739 424.29C379.225 422.822 384.726 421.447 390.2 419.924C391.865 419.46 396.12 418.884 397.132 417.64C399.337 414.929 397.438 411.016 393.946 411.393C390.722 411.742 385.677 413.688 382.334 414.556C376.84 415.985 371.361 417.474 365.873 418.923C359.409 420.629 352.904 422.224 346.443 423.956L346.126 423.4C344.715 417.704 343.049 412.069 341.533 406.406C340.292 401.77 339.068 397.117 337.83 392.479C337.029 389.477 336.409 386.419 335.59 383.417C335.065 381.493 334.501 378.547 333.876 376.841C332.326 372.606 326.397 373.593 326.562 378.274C326.578 378.695 326.791 378.91 326.826 379.131C327.322 382.139 328.419 385.053 329.182 387.993C330.361 392.538 331.604 397.065 332.801 401.603C334.93 409.676 336.822 417.883 339.244 425.871C330.73 428.114 322.238 430.462 313.735 432.736C308.249 434.205 302.748 435.579 297.274 437.102C295.609 437.566 291.354 438.142 290.342 439.386C288.137 442.098 290.036 446.011 293.528 445.633C296.751 445.285 301.797 443.338 305.143 442.469C310.637 441.041 316.116 439.552 321.604 438.103C328.068 436.397 334.573 434.802 341.034 433.069L341.351 433.625C342.762 439.321 344.426 444.955 345.944 450.619C347.185 455.256 348.409 459.909 349.647 464.546C350.448 467.549 351.068 470.607 351.887 473.609C352.412 475.533 352.976 478.478 353.601 480.185C355.149 484.418 361.081 483.43 360.914 478.748C360.898 478.327 360.685 478.112 360.65 477.891L360.648 477.895Z" fill="white" fill-opacity="0.5"/>
</g>
<g clip-path="url(#clip3_1714_2)">
<path d="M377.251 391.47C377.025 390.098 376.524 388.769 376.176 387.428C375.639 385.355 375.072 383.29 374.526 381.221C373.555 377.539 372.692 373.796 371.587 370.153C375.471 369.13 379.344 368.059 383.221 367.022C385.723 366.352 388.232 365.726 390.729 365.031C391.488 364.819 393.429 364.556 393.89 363.989C394.896 362.753 394.03 360.968 392.437 361.14C390.967 361.299 388.666 362.187 387.141 362.583C384.635 363.234 382.137 363.913 379.634 364.574C376.686 365.352 373.719 366.08 370.773 366.87L370.628 366.616C369.984 364.018 369.225 361.448 368.533 358.866C367.967 356.751 367.409 354.629 366.845 352.514C366.479 351.145 366.196 349.75 365.823 348.381C365.583 347.504 365.326 346.16 365.041 345.382C364.334 343.451 361.63 343.901 361.706 346.036C361.713 346.228 361.81 346.326 361.826 346.426C362.052 347.798 362.552 349.127 362.9 350.468C363.438 352.541 364.005 354.606 364.551 356.675C365.522 360.357 366.385 364.1 367.489 367.743C363.606 368.766 359.733 369.837 355.855 370.874C353.353 371.544 350.845 372.171 348.348 372.865C347.589 373.077 345.648 373.34 345.187 373.907C344.181 375.144 345.047 376.928 346.64 376.756C348.11 376.597 350.411 375.709 351.937 375.313C354.443 374.661 356.941 373.982 359.444 373.322C362.393 372.543 365.359 371.816 368.306 371.026L368.45 371.28C369.094 373.877 369.853 376.447 370.545 379.03C371.111 381.145 371.669 383.267 372.234 385.381C372.599 386.751 372.882 388.146 373.255 389.515C373.495 390.392 373.752 391.736 374.037 392.514C374.743 394.444 377.448 393.994 377.372 391.859C377.365 391.666 377.268 391.569 377.252 391.468L377.251 391.47Z" fill="white" fill-opacity="0.5"/>
</g>
<g clip-path="url(#clip4_1714_2)">
<path d="M299.179 475.421C299.104 474.963 298.936 474.518 298.82 474.069C298.64 473.376 298.45 472.685 298.268 471.993C297.943 470.761 297.654 469.509 297.285 468.29C298.584 467.948 299.88 467.59 301.177 467.243C302.014 467.019 302.853 466.809 303.688 466.577C303.942 466.506 304.591 466.418 304.746 466.228C305.082 465.815 304.792 465.218 304.26 465.275C303.768 465.329 302.998 465.626 302.488 465.758C301.65 465.976 300.814 466.203 299.977 466.424C298.99 466.684 297.998 466.928 297.012 467.192L296.964 467.107C296.749 466.238 296.494 465.379 296.263 464.515C296.074 463.807 295.887 463.097 295.698 462.39C295.576 461.932 295.481 461.465 295.357 461.007C295.276 460.714 295.19 460.264 295.095 460.004C294.859 459.358 293.954 459.508 293.979 460.223C293.982 460.287 294.014 460.32 294.019 460.353C294.095 460.812 294.262 461.257 294.379 461.705C294.559 462.399 294.748 463.089 294.931 463.782C295.256 465.013 295.544 466.266 295.914 467.484C294.615 467.827 293.319 468.185 292.022 468.532C291.185 468.756 290.346 468.965 289.511 469.198C289.257 469.269 288.607 469.356 288.453 469.546C288.117 469.96 288.406 470.557 288.939 470.499C289.431 470.446 290.201 470.149 290.711 470.017C291.55 469.799 292.385 469.571 293.223 469.35C294.209 469.09 295.201 468.847 296.187 468.582L296.235 468.667C296.451 469.536 296.705 470.396 296.936 471.26C297.126 471.967 297.312 472.677 297.501 473.385C297.623 473.843 297.718 474.309 297.843 474.767C297.923 475.061 298.009 475.51 298.104 475.771C298.34 476.417 299.246 476.266 299.22 475.552C299.218 475.487 299.185 475.455 299.18 475.421L299.179 475.421Z" fill="white" fill-opacity="0.5"/>
</g>
<g clip-path="url(#clip5_1714_2)">
<path d="M392.17 350.038C392.094 349.579 391.927 349.134 391.81 348.686C391.63 347.992 391.441 347.301 391.258 346.609C390.933 345.378 390.645 344.125 390.275 342.907C391.574 342.564 392.87 342.206 394.167 341.859C395.004 341.635 395.843 341.426 396.678 341.193C396.932 341.122 397.582 341.034 397.736 340.845C398.072 340.431 397.783 339.834 397.25 339.892C396.758 339.945 395.988 340.242 395.478 340.374C394.64 340.592 393.804 340.819 392.967 341.04C391.981 341.301 390.988 341.544 390.003 341.808L389.954 341.723C389.739 340.854 389.485 339.995 389.253 339.131C389.064 338.423 388.877 337.714 388.689 337.006C388.566 336.548 388.472 336.081 388.347 335.623C388.267 335.33 388.181 334.88 388.085 334.62C387.849 333.974 386.944 334.125 386.969 334.839C386.972 334.903 387.004 334.936 387.01 334.97C387.085 335.428 387.253 335.873 387.369 336.322C387.549 337.015 387.739 337.706 387.921 338.398C388.246 339.63 388.535 340.882 388.904 342.1C387.605 342.443 386.31 342.801 385.012 343.148C384.175 343.372 383.336 343.582 382.501 343.814C382.247 343.885 381.598 343.973 381.443 344.162C381.107 344.576 381.397 345.173 381.929 345.116C382.421 345.062 383.191 344.765 383.701 344.633C384.54 344.415 385.376 344.188 386.213 343.967C387.199 343.706 388.192 343.463 389.177 343.199L389.226 343.284C389.441 344.153 389.695 345.012 389.926 345.876C390.116 346.584 390.302 347.293 390.491 348.001C390.614 348.459 390.708 348.926 390.833 349.384C390.913 349.677 390.999 350.127 391.095 350.387C391.331 351.033 392.236 350.882 392.21 350.168C392.208 350.103 392.175 350.071 392.17 350.037L392.17 350.038Z" fill="white" fill-opacity="0.5"/>
</g>
<defs>
<clipPath id="clip0_1714_2">
<rect width="14.0659" height="14.0659" fill="white" transform="translate(369.06 140) rotate(30.1276)"/>
</clipPath>
<clipPath id="clip1_1714_2">
<rect width="14.0659" height="14.0659" fill="white" transform="translate(259.06) rotate(30.1276)"/>
</clipPath>
<clipPath id="clip2_1714_2">
<rect width="81.5567" height="81.5567" fill="white" transform="translate(328.936 372.777) rotate(30.1276)"/>
</clipPath>
<clipPath id="clip3_1714_2">
<rect width="37.1954" height="37.1954" fill="white" transform="translate(362.788 343.528) rotate(30.1276)"/>
</clipPath>
<clipPath id="clip4_1714_2">
<rect width="12.4428" height="12.4428" fill="white" transform="translate(294.341 459.384) rotate(30.1276)"/>
</clipPath>
<clipPath id="clip5_1714_2">
<rect width="12.4428" height="12.4428" fill="white" transform="translate(387.332 334) rotate(30.1276)"/>
</clipPath>
</defs>
</svg>
