<svg width="400" height="105" viewBox="0 0 400 105" fill="none" xmlns="http://www.w3.org/2000/svg">
<circle cx="84" cy="96" r="8" stroke="white" stroke-opacity="0.5" stroke-width="2"/>
<g clip-path="url(#clip0_1714_5)">
<path d="M118.529 18.1296C118.444 17.6108 118.254 17.1082 118.123 16.6011C117.919 15.8173 117.705 15.0365 117.499 14.2538C117.131 12.8616 116.805 11.4461 116.387 10.0685C117.856 9.68155 119.32 9.2767 120.787 8.88449C121.733 8.63118 122.682 8.39414 123.626 8.13141C123.913 8.05147 124.647 7.95204 124.821 7.73747C125.202 7.26988 124.874 6.59504 124.272 6.66011C123.716 6.72021 122.846 7.05592 122.269 7.20564C121.322 7.45205 120.377 7.70883 119.43 7.95871C118.315 8.253 117.194 8.52807 116.079 8.82687L116.025 8.73094C115.781 7.74858 115.494 6.77671 115.232 5.80002C115.018 5.00039 114.807 4.19791 114.594 3.39814C114.456 2.88025 114.349 2.35286 114.208 1.83514C114.117 1.50328 114.02 0.995274 113.912 0.700989C113.645 -0.0293116 112.622 0.140841 112.651 0.948198C112.653 1.02083 112.69 1.05784 112.696 1.09598C112.782 1.6147 112.971 2.11734 113.102 2.62444C113.306 3.40819 113.52 4.18905 113.726 4.97173C114.094 6.36391 114.42 7.77947 114.838 9.15709C113.369 9.54399 111.905 9.94884 110.438 10.3411C109.492 10.5944 108.543 10.8314 107.599 11.0941C107.312 11.1741 106.578 11.2735 106.404 11.4881C106.023 11.9557 106.351 12.6305 106.953 12.5654C107.509 12.5053 108.379 12.1696 108.956 12.0198C109.904 11.7734 110.849 11.5166 111.795 11.2667C112.91 10.9724 114.032 10.6973 115.146 10.3985L115.201 10.4945C115.444 11.4768 115.731 12.4485 115.993 13.4254C116.207 14.225 116.418 15.0275 116.632 15.8273C116.77 16.3451 116.877 16.8725 117.018 17.3903C117.109 17.7221 117.206 18.2301 117.314 18.5244C117.581 19.2545 118.604 19.0842 118.575 18.2767C118.572 18.204 118.536 18.167 118.53 18.1289L118.529 18.1296Z" fill="white" fill-opacity="0.5"/>
</g>
<circle cx="300.5" cy="58.5" r="17" stroke="white" stroke-opacity="0.5" stroke-width="3"/>
<circle cx="319" cy="38" r="6" stroke="white" stroke-opacity="0.5" stroke-width="2"/>
<defs>
<clipPath id="clip0_1714_5">
<rect width="14.0659" height="14.0659" fill="white" transform="translate(113.06) rotate(30.1276)"/>
</clipPath>
</defs>
</svg>
