<svg width="399" height="502" viewBox="0 0 399 502" fill="none" xmlns="http://www.w3.org/2000/svg">
<g clip-path="url(#clip0_1714_6)">
<path d="M333.294 18.1296C333.209 17.6108 333.019 17.1082 332.888 16.6011C332.684 15.8173 332.47 15.0365 332.264 14.2538C331.897 12.8616 331.57 11.4461 331.152 10.0685C332.621 9.68155 334.085 9.2767 335.552 8.88449C336.498 8.63118 337.447 8.39414 338.391 8.13141C338.678 8.05147 339.412 7.95204 339.586 7.73747C339.967 7.26988 339.639 6.59504 339.037 6.66011C338.481 6.72021 337.611 7.05592 337.034 7.20564C336.087 7.45205 335.142 7.70883 334.195 7.95871C333.08 8.253 331.959 8.52807 330.844 8.82687L330.79 8.73094C330.546 7.74858 330.259 6.77671 329.997 5.80002C329.783 5.00039 329.572 4.19791 329.359 3.39814C329.221 2.88025 329.114 2.35286 328.973 1.83514C328.882 1.50328 328.785 0.995274 328.677 0.700989C328.41 -0.0293116 327.387 0.140841 327.416 0.948198C327.418 1.02083 327.455 1.05784 327.461 1.09598C327.547 1.6147 327.736 2.11734 327.867 2.62444C328.071 3.40819 328.285 4.18905 328.491 4.97173C328.859 6.36391 329.185 7.77947 329.603 9.15709C328.134 9.54399 326.67 9.94884 325.203 10.3411C324.257 10.5944 323.308 10.8314 322.364 11.0941C322.077 11.1741 321.343 11.2735 321.169 11.4881C320.788 11.9557 321.116 12.6305 321.718 12.5654C322.274 12.5053 323.144 12.1696 323.721 12.0198C324.669 11.7734 325.614 11.5166 326.56 11.2667C327.675 10.9724 328.797 10.6973 329.911 10.3985L329.966 10.4945C330.209 11.4768 330.496 12.4485 330.758 13.4254C330.972 14.225 331.183 15.0275 331.397 15.8273C331.535 16.3451 331.642 16.8725 331.783 17.3903C331.874 17.7221 331.971 18.2301 332.079 18.5244C332.346 19.2545 333.369 19.0842 333.34 18.2767C333.337 18.204 333.301 18.167 333.295 18.1289L333.294 18.1296Z" fill="white" fill-opacity="0.5"/>
</g>
<g clip-path="url(#clip1_1714_6)">
<path d="M239.294 500.13C239.209 499.611 239.019 499.108 238.888 498.601C238.684 497.817 238.47 497.036 238.264 496.254C237.897 494.862 237.57 493.446 237.152 492.068C238.621 491.682 240.085 491.277 241.552 490.884C242.498 490.631 243.447 490.394 244.391 490.131C244.678 490.051 245.412 489.952 245.586 489.737C245.967 489.27 245.639 488.595 245.037 488.66C244.481 488.72 243.611 489.056 243.034 489.206C242.087 489.452 241.142 489.709 240.195 489.959C239.08 490.253 237.959 490.528 236.844 490.827L236.79 490.731C236.546 489.749 236.259 488.777 235.997 487.8C235.783 487 235.572 486.198 235.359 485.398C235.221 484.88 235.114 484.353 234.973 483.835C234.882 483.503 234.785 482.995 234.677 482.701C234.41 481.971 233.387 482.141 233.416 482.948C233.418 483.021 233.455 483.058 233.461 483.096C233.547 483.615 233.736 484.117 233.867 484.624C234.071 485.408 234.285 486.189 234.491 486.972C234.859 488.364 235.185 489.779 235.603 491.157C234.134 491.544 232.67 491.949 231.203 492.341C230.257 492.594 229.308 492.831 228.364 493.094C228.077 493.174 227.343 493.274 227.169 493.488C226.788 493.956 227.116 494.631 227.718 494.565C228.274 494.505 229.144 494.17 229.721 494.02C230.669 493.773 231.614 493.517 232.56 493.267C233.675 492.972 234.797 492.697 235.911 492.399L235.966 492.494C236.209 493.477 236.496 494.448 236.758 495.425C236.972 496.225 237.183 497.027 237.397 497.827C237.535 498.345 237.642 498.873 237.783 499.39C237.874 499.722 237.971 500.23 238.079 500.524C238.346 501.255 239.369 501.084 239.34 500.277C239.337 500.204 239.301 500.167 239.295 500.129L239.294 500.13Z" fill="white" fill-opacity="0.5"/>
</g>
<defs>
<clipPath id="clip0_1714_6">
<rect width="14.0659" height="14.0659" fill="white" transform="translate(327.825) rotate(30.1276)"/>
</clipPath>
<clipPath id="clip1_1714_6">
<rect width="14.0659" height="14.0659" fill="white" transform="translate(233.825 482) rotate(30.1276)"/>
</clipPath>
</defs>
</svg>
