<svg width="400" height="105" viewBox="0 0 400 105" fill="none" xmlns="http://www.w3.org/2000/svg">
<g clip-path="url(#clip0_1714_14)">
<path d="M69.5291 59.1296C69.4435 58.6108 69.2544 58.1082 69.1228 57.6011C68.9194 56.8173 68.705 56.0365 68.4987 55.2538C68.1315 53.8616 67.8051 52.4461 67.3874 51.0685C68.8559 50.6816 70.3205 50.2767 71.7869 49.8845C72.7331 49.6312 73.6818 49.3941 74.626 49.1314C74.913 49.0515 75.647 48.952 75.8214 48.7375C76.2017 48.2699 75.8742 47.595 75.2719 47.6601C74.716 47.7202 73.8459 48.0559 73.2693 48.2056C72.3217 48.452 71.3768 48.7088 70.4303 48.9587C69.3154 49.253 68.1936 49.5281 67.0792 49.8269L67.0245 49.7309C66.7812 48.7486 66.4938 47.7767 66.2324 46.8C66.0184 46.0004 65.8073 45.1979 65.5938 44.3981C65.4556 43.8802 65.3487 43.3529 65.2075 42.8351C65.1169 42.5033 65.0196 41.9953 64.9118 41.701C64.6446 40.9707 63.622 41.1408 63.6505 41.9482C63.6532 42.0208 63.6899 42.0578 63.6959 42.096C63.7815 42.6147 63.9707 43.1173 64.1023 43.6244C64.3057 44.4082 64.52 45.189 64.7264 45.9717C65.0936 47.3639 65.42 48.7795 65.8377 50.1571C64.3692 50.544 62.9046 50.9488 61.4381 51.3411C60.492 51.5944 59.5433 51.8314 58.5991 52.0941C58.3121 52.1741 57.5781 52.2735 57.4037 52.4881C57.0233 52.9557 57.3509 53.6305 57.9532 53.5654C58.5091 53.5053 59.3792 53.1696 59.9563 53.0198C60.9039 52.7734 61.8489 52.5166 62.7953 52.2667C63.9102 51.9724 65.0321 51.6973 66.1464 51.3985L66.2011 51.4945C66.4445 52.4768 66.7314 53.4485 66.9932 54.4254C67.2073 55.225 67.4183 56.0275 67.6318 56.8273C67.7701 57.3451 67.877 57.8725 68.0181 58.3903C68.1087 58.7221 68.2061 59.2301 68.3138 59.5244C68.5807 60.2545 69.6038 60.0842 69.575 59.2767C69.5723 59.204 69.5356 59.167 69.5295 59.1289L69.5291 59.1296Z" fill="white" fill-opacity="0.5"/>
</g>
<circle cx="275" cy="58" r="6" stroke="white" stroke-opacity="0.5" stroke-width="2"/>
<defs>
<clipPath id="clip0_1714_14">
<rect width="14.0659" height="14.0659" fill="white" transform="translate(64.0601 41) rotate(30.1276)"/>
</clipPath>
</defs>
</svg>
