<svg width="399" height="151" viewBox="0 0 399 151" fill="none" xmlns="http://www.w3.org/2000/svg">
<circle cx="279" cy="142" r="8" stroke="white" stroke-opacity="0.5" stroke-width="2"/>
<g clip-path="url(#clip0_1714_22)">
<path d="M95.5291 93.1296C95.4435 92.6108 95.2544 92.1082 95.1228 91.6011C94.9194 90.8173 94.705 90.0365 94.4987 89.2538C94.1315 87.8616 93.8051 86.4461 93.3874 85.0685C94.8559 84.6816 96.3205 84.2767 97.7869 83.8845C98.7331 83.6312 99.6818 83.3941 100.626 83.1314C100.913 83.0515 101.647 82.952 101.821 82.7375C102.202 82.2699 101.874 81.595 101.272 81.6601C100.716 81.7202 99.8459 82.0559 99.2693 82.2056C98.3217 82.452 97.3768 82.7088 96.4303 82.9587C95.3154 83.253 94.1936 83.5281 93.0792 83.8269L93.0245 83.7309C92.7812 82.7486 92.4938 81.7767 92.2324 80.8C92.0184 80.0004 91.8073 79.1979 91.5938 78.3981C91.4556 77.8802 91.3487 77.3529 91.2075 76.8351C91.1169 76.5033 91.0196 75.9953 90.9118 75.701C90.6446 74.9707 89.622 75.1408 89.6505 75.9482C89.6532 76.0208 89.6899 76.0578 89.6959 76.096C89.7815 76.6147 89.9707 77.1173 90.1023 77.6244C90.3057 78.4082 90.52 79.189 90.7264 79.9717C91.0936 81.3639 91.42 82.7795 91.8377 84.1571C90.3692 84.544 88.9046 84.9488 87.4381 85.3411C86.492 85.5944 85.5433 85.8314 84.5991 86.0941C84.3121 86.1741 83.5781 86.2735 83.4037 86.4881C83.0233 86.9557 83.3509 87.6305 83.9532 87.5654C84.5091 87.5053 85.3792 87.1696 85.9563 87.0198C86.9039 86.7734 87.8489 86.5166 88.7953 86.2667C89.9102 85.9724 91.0321 85.6973 92.1464 85.3985L92.2011 85.4945C92.4445 86.4768 92.7314 87.4485 92.9932 88.4254C93.2073 89.225 93.4183 90.0275 93.6318 90.8273C93.7701 91.3451 93.877 91.8725 94.0181 92.3903C94.1087 92.7221 94.2061 93.2301 94.3138 93.5244C94.5807 94.2545 95.6038 94.0842 95.575 93.2767C95.5723 93.204 95.5356 93.167 95.5295 93.1289L95.5291 93.1296Z" fill="white" fill-opacity="0.5"/>
</g>
<circle cx="359" cy="7" r="6" stroke="white" stroke-opacity="0.5" stroke-width="2"/>
<defs>
<clipPath id="clip0_1714_22">
<rect width="14.0659" height="14.0659" fill="white" transform="translate(90.0601 75) rotate(30.1276)"/>
</clipPath>
</defs>
</svg>
