<svg width="399" height="105" viewBox="0 0 399 105" fill="none" xmlns="http://www.w3.org/2000/svg">
<circle cx="97.765" cy="96" r="8" stroke="white" stroke-opacity="0.5" stroke-width="2"/>
<g clip-path="url(#clip0_1714_28)">
<path d="M132.294 18.1296C132.209 17.6108 132.019 17.1082 131.888 16.6011C131.684 15.8173 131.47 15.0365 131.264 14.2538C130.897 12.8616 130.57 11.4461 130.152 10.0685C131.621 9.68155 133.085 9.2767 134.552 8.88449C135.498 8.63118 136.447 8.39414 137.391 8.13141C137.678 8.05147 138.412 7.95204 138.586 7.73747C138.967 7.26988 138.639 6.59504 138.037 6.66011C137.481 6.72021 136.611 7.05592 136.034 7.20564C135.087 7.45205 134.142 7.70883 133.195 7.95871C132.08 8.253 130.959 8.52807 129.844 8.82687L129.79 8.73094C129.546 7.74858 129.259 6.77671 128.997 5.80002C128.783 5.00039 128.572 4.19791 128.359 3.39814C128.221 2.88025 128.114 2.35286 127.973 1.83514C127.882 1.50328 127.785 0.995274 127.677 0.700989C127.41 -0.0293116 126.387 0.140841 126.416 0.948198C126.418 1.02083 126.455 1.05784 126.461 1.09598C126.547 1.6147 126.736 2.11734 126.867 2.62444C127.071 3.40819 127.285 4.18905 127.491 4.97173C127.859 6.36391 128.185 7.77947 128.603 9.15709C127.134 9.54399 125.67 9.94884 124.203 10.3411C123.257 10.5944 122.308 10.8314 121.364 11.0941C121.077 11.1741 120.343 11.2735 120.169 11.4881C119.788 11.9557 120.116 12.6305 120.718 12.5654C121.274 12.5053 122.144 12.1696 122.721 12.0198C123.669 11.7734 124.614 11.5166 125.56 11.2667C126.675 10.9724 127.797 10.6973 128.911 10.3985L128.966 10.4945C129.209 11.4768 129.496 12.4485 129.758 13.4254C129.972 14.225 130.183 15.0275 130.397 15.8273C130.535 16.3451 130.642 16.8725 130.783 17.3903C130.874 17.7221 130.971 18.2301 131.079 18.5244C131.346 19.2545 132.369 19.0842 132.34 18.2767C132.337 18.204 132.301 18.167 132.295 18.1289L132.294 18.1296Z" fill="white" fill-opacity="0.5"/>
</g>
<circle cx="314.265" cy="58.5" r="17" stroke="white" stroke-opacity="0.5" stroke-width="3"/>
<circle cx="332.765" cy="38" r="6" stroke="white" stroke-opacity="0.5" stroke-width="2"/>
<defs>
<clipPath id="clip0_1714_28">
<rect width="14.0659" height="14.0659" fill="white" transform="translate(126.825) rotate(30.1276)"/>
</clipPath>
</defs>
</svg>
