<svg width="744" height="124" viewBox="0 0 744 124" fill="none" xmlns="http://www.w3.org/2000/svg">
<path d="M40.032 0.480099C40.416 0.0960979 40.8 9.91821e-05 41.28 9.91821e-05C42.336 9.91821e-05 43.392 0.768101 43.392 1.6321V2.0161C43.392 2.1121 43.296 2.2081 43.296 2.2081V2.4961C42.144 7.1041 41.472 12.7681 41.472 20.4481C41.472 30.4321 42.432 44.1601 44.736 64.1281C46.176 77.0881 48.192 86.9761 50.304 93.2161C51.36 96.3841 52.512 98.5921 53.376 99.6481C53.856 100.224 54.144 100.416 54.336 100.512C54.528 100.608 54.432 100.608 54.624 100.512C55.584 100.032 56.256 99.6481 57.024 98.4961C57.792 97.3441 58.752 95.3281 59.904 92.2561C62.208 86.0161 65.568 75.0721 72 55.9681C76.896 41.3761 81.504 29.3761 85.152 21.4081C86.976 17.3761 88.608 14.4961 90.144 12.4801C90.912 11.5201 91.584 10.6561 92.64 10.1761C93.12 9.8881 93.792 9.7921 94.464 9.8881C95.136 9.9841 95.808 10.4641 96.192 10.9441C96.576 11.3281 96.768 11.7121 96.768 12.1921C96.768 13.2481 95.904 14.1121 94.848 14.1121C94.56 14.1121 94.272 14.0161 93.984 13.9201C93.792 14.0161 93.6 14.2081 93.12 14.7841C91.968 16.3201 90.432 19.2001 88.608 23.0401C85.056 30.8161 80.544 42.7201 75.648 57.2161C69.216 76.3201 65.856 87.1681 63.456 93.6001C62.208 96.8641 61.344 98.9761 60.192 100.608C59.04 102.24 57.6 103.296 56.16 103.968C55.584 104.16 55.008 104.352 54.432 104.352C53.952 104.352 53.376 104.256 52.896 104.064C51.84 103.68 51.168 103.008 50.4 102.144C48.96 100.416 47.808 97.8241 46.656 94.4641C44.448 87.7441 42.528 77.6641 40.992 64.5121C38.784 44.8321 37.632 31.2961 37.632 21.0241C34.848 30.3361 31.296 41.7601 27.36 53.6641C22.848 67.3921 18.048 81.2161 13.728 91.3921C11.616 96.4801 9.59995 100.704 7.77595 103.584C6.91195 105.024 6.04795 106.176 5.08795 107.04C4.60795 107.424 4.03195 107.808 3.35995 108C2.68795 108.192 1.72795 108.288 1.05595 107.904C0.28795 107.52 -4.91142e-05 106.848 -4.91142e-05 106.176C-4.91142e-05 105.216 0.767951 104.256 1.91995 104.256H2.39995C2.49595 104.256 2.49595 104.256 2.59195 104.16C3.07195 103.776 3.74395 102.816 4.51195 101.568C6.14395 98.9761 8.06395 94.9441 10.176 89.9521C14.4 79.9681 19.2 66.1441 23.712 52.4161C28.224 38.6881 32.352 25.1521 35.328 15.3601C36.768 10.4641 37.92 6.6241 38.688 4.1281C39.072 2.8801 39.36 2.0161 39.552 1.5361C39.552 1.4401 39.648 1.3441 39.648 1.2481V1.0561C39.648 1.0561 39.744 1.0561 39.744 0.960098C39.744 0.8641 39.648 0.8641 40.032 0.480099ZM93.2325 56.2561C93.1365 56.1601 93.2325 56.2561 92.9445 56.3521C92.2725 56.4481 90.6405 57.6961 89.2005 59.4241C87.7605 61.1521 86.4165 63.4561 85.8405 65.2801C85.5525 66.2401 85.4565 67.0081 85.4565 67.4881C85.4565 67.9681 85.6485 68.1601 85.7445 68.2561C86.3205 68.7361 86.4165 68.7361 87.3765 68.2561C88.3365 67.7761 89.6805 66.5281 91.0245 64.8961C92.3685 63.2641 93.7125 61.3441 94.8645 59.3281C94.3845 59.0401 93.8085 58.3681 93.7125 57.7921C93.5205 56.7361 93.3285 56.3521 93.2325 56.2561ZM93.0405 52.5121C94.0005 52.5121 95.0565 52.8001 95.8245 53.4721C96.3045 53.9521 96.6885 54.5281 96.9765 55.2001C97.1685 54.8161 97.4565 54.3361 97.6485 53.9521V53.8561L97.7445 53.7601C98.0325 53.1841 98.8005 52.8001 99.3765 52.8001C100.432 52.8001 101.296 53.6641 101.296 54.7201C101.296 54.9121 101.2 55.2961 101.104 55.4881C101.104 55.5841 101.104 55.7761 101.008 55.8721C99.9525 57.7921 98.0325 62.1121 97.3605 65.5681C97.1685 66.4321 97.1685 67.2961 97.1685 67.9681C97.1685 68.6401 97.2645 69.2161 97.3605 69.6001C97.4565 69.9841 97.5525 70.0801 97.7445 70.1761C97.9365 70.2721 98.2245 70.3681 98.8965 70.3681C100.624 70.2721 103.024 68.7361 105.616 66.1441C108.208 63.5521 110.896 60.0001 113.392 56.7361C113.68 56.3521 114.352 55.8721 114.928 55.8721C115.984 55.8721 116.848 56.7361 116.848 57.7921C116.848 58.1761 116.656 58.7521 116.464 59.0401C113.968 62.3041 111.28 65.9521 108.4 68.8321C105.52 71.7121 102.544 74.1121 98.9925 74.2081H98.7045C97.5525 74.2081 96.5925 74.0161 95.7285 73.4401C94.7685 72.8641 94.0965 71.9041 93.7125 70.9441C93.3285 70.0801 93.2325 69.1201 93.2325 68.1601C91.9845 69.6001 90.7365 70.8481 89.2005 71.6161C88.3365 72.0001 87.3765 72.2881 86.4165 72.2881C85.2645 72.2881 84.2085 72.0001 83.2485 71.2321C82.0965 70.2721 81.6165 68.8321 81.6165 67.2961C81.6165 66.2401 81.8085 65.0881 82.1925 64.0321C82.9605 61.5361 84.4965 59.0401 86.2245 56.9281C87.9525 54.8161 89.7765 53.1841 92.0805 52.6081C92.3685 52.5121 92.7525 52.5121 93.0405 52.5121ZM102.573 97.4401C100.269 103.296 98.349 108.768 97.1009 112.992C96.813 113.856 96.717 114.528 96.525 115.296C97.1009 113.952 97.581 112.608 98.253 110.88C99.597 107.136 101.133 102.432 102.573 97.4401ZM129.069 53.7601C128.877 53.7601 128.685 53.7601 128.397 53.8561C127.821 53.9521 126.957 54.3361 126.093 55.0081C124.269 56.3521 122.061 58.8481 119.661 62.4001C118.125 64.6081 116.589 67.3921 114.957 70.2721C115.245 70.0801 115.725 69.8881 116.109 69.8881C116.781 69.8881 117.549 69.6001 118.413 69.4081C118.701 69.2161 118.989 69.1201 119.373 68.8321C121.101 67.4881 123.309 65.3761 125.133 63.0721C126.957 60.7681 128.589 58.2721 129.357 56.3521C129.741 55.3921 129.741 54.7201 129.741 54.3361C129.741 54.3361 129.837 54.1441 129.741 54.0481C129.549 53.9521 129.261 53.7601 129.069 53.7601ZM129.645 50.0161C130.317 50.1121 130.989 50.3041 131.565 50.6881C132.909 51.4561 133.677 52.8961 133.677 54.4321C133.677 55.5841 133.389 56.6401 132.909 57.7921C131.949 60.2881 130.125 62.9761 128.109 65.4721L128.013 65.6641C129.645 64.8961 131.277 64.0321 132.813 63.1681C138.861 59.8081 143.949 56.6401 143.949 56.6401C144.237 56.4481 144.717 56.3521 145.005 56.3521C146.061 56.3521 146.925 57.2161 146.925 58.2721C146.925 58.8481 146.541 59.6161 146.061 59.9041C146.061 59.9041 140.877 63.1681 134.637 66.5281C129.837 69.2161 124.557 71.9041 119.949 73.0561C119.469 73.3441 118.989 73.5361 118.509 73.7281C118.029 73.9201 117.549 74.0161 116.973 74.0161C116.205 74.0161 115.533 73.7281 114.861 73.1521C114.573 72.8641 114.189 72.2881 114.189 71.8081L114.285 71.6161C113.805 72.5761 113.229 73.4401 112.749 74.4001C111.501 79.2961 110.157 84.6721 108.621 90.2401C106.413 98.2081 104.109 106.176 101.901 112.224C100.845 115.2 99.789 117.696 98.733 119.616C98.253 120.576 97.677 121.344 97.1009 122.016C96.525 122.688 95.7569 123.36 94.509 123.36C93.933 123.36 93.165 123.168 92.685 122.688C92.2049 122.208 92.1089 121.728 92.0129 121.344C91.821 120.48 91.821 119.712 91.917 118.848C92.1089 117.024 92.589 114.816 93.357 112.032C94.893 106.464 97.581 99.0721 100.749 91.3921C103.533 84.6721 106.317 78.4321 109.101 72.9601C111.309 64.3201 112.845 57.5041 112.845 57.5041C113.037 56.6401 113.901 55.9681 114.765 55.9681C115.821 55.9681 116.685 56.8321 116.685 57.8881C116.685 57.9841 116.589 58.2721 116.589 58.3681C116.589 58.3681 116.109 60.5761 116.013 61.0561C116.205 60.7681 116.301 60.5761 116.493 60.2881C118.989 56.5441 121.485 53.7601 123.885 51.9361C125.133 51.0721 126.285 50.4001 127.629 50.1121C128.301 50.0161 128.973 49.9201 129.645 50.0161ZM145.421 55.8721C146.477 55.8721 147.341 56.7361 147.341 57.7921C147.341 58.0801 147.245 58.4641 147.149 58.7521C146.285 60.2881 145.133 62.8801 144.749 64.9921C144.557 66.0481 144.557 67.0081 144.653 67.5841C144.749 68.1601 144.845 68.3521 145.133 68.5441C145.421 68.7361 146.189 68.8321 147.437 68.4481C148.685 68.0641 150.317 67.2961 152.045 66.1441C155.597 63.8401 159.533 60.4801 163.373 56.6401C163.661 56.3521 164.237 56.0641 164.717 56.0641C165.773 56.0641 166.637 56.9281 166.637 57.9841C166.637 58.4641 166.349 59.1361 166.061 59.4241C162.125 63.3601 157.997 66.9121 154.157 69.4081C152.237 70.6561 150.317 71.6161 148.493 72.1921C147.629 72.4801 146.765 72.5761 145.901 72.5761C144.941 72.5761 144.173 72.3841 143.309 71.9041C141.965 71.1361 141.197 69.6961 140.909 68.3521C140.813 67.8721 140.717 67.2961 140.717 66.7201C140.717 65.8561 140.813 65.0881 141.005 64.2241C141.581 61.4401 142.733 58.8481 143.789 56.9281C144.077 56.3521 144.749 55.8721 145.421 55.8721ZM148.013 49.9201C149.165 49.9201 150.029 50.7841 150.029 51.9361C150.029 53.0881 149.165 53.9521 148.013 53.9521C146.861 53.9521 145.997 53.0881 145.997 51.9361C145.997 50.7841 146.861 49.9201 148.013 49.9201ZM166.075 72.0001C163.579 73.8241 161.179 75.6481 159.355 77.4721C156.475 80.3521 154.843 83.0401 154.843 84.8641C154.843 85.7281 155.035 85.9201 155.035 85.9201C155.035 85.9201 155.227 86.1121 155.707 86.0161C156.763 85.9201 158.875 84.7681 160.795 82.8481C163.291 80.3521 165.595 76.5121 166.075 72.0001ZM169.339 48.3841C169.723 48.3841 170.203 48.4801 170.587 48.6721C172.123 49.2481 173.371 50.5921 173.851 52.4161C173.851 52.5121 173.947 52.8001 173.947 52.8961C173.947 53.9521 173.083 54.8161 172.027 54.8161C171.163 54.8161 170.299 54.1441 170.107 53.3761C169.915 52.7041 169.531 52.3201 169.243 52.2241C168.955 52.1281 168.667 52.1281 168.283 52.5121C167.899 52.8961 167.323 53.6641 167.227 55.3921C167.227 55.5841 167.131 55.7761 167.131 55.9681C167.131 57.6961 167.515 60.0001 168.667 63.0721C168.955 63.7441 169.051 64.5121 169.243 65.1841C177.115 60.1921 184.507 56.6401 184.507 56.6401C184.699 56.5441 185.083 56.4481 185.371 56.4481C186.427 56.4481 187.291 57.3121 187.291 58.3681C187.291 59.0401 186.715 59.9041 186.139 60.1921C186.139 60.1921 178.171 63.9361 170.203 69.1201C170.107 69.2161 170.011 69.2161 169.915 69.3121V70.2721C169.915 76.6081 167.035 82.0801 163.579 85.5361C161.275 87.9361 158.683 89.5681 156.187 89.8561H155.515C154.459 89.8561 153.307 89.5681 152.443 88.8001C151.387 87.8401 151.003 86.4001 151.003 84.9601C151.003 81.2161 153.499 77.8561 156.667 74.6881C159.259 72.0961 162.523 69.7921 165.883 67.4881C165.691 66.5281 165.499 65.4721 165.115 64.4161C163.867 61.0561 163.291 58.2721 163.291 55.9681C163.291 55.6801 163.387 55.3921 163.387 55.1041C163.579 52.6081 164.347 50.6881 165.691 49.5361C166.651 48.7681 167.803 48.3841 168.955 48.3841H169.339ZM197.729 50.5921C198.113 50.5921 198.401 50.5921 198.785 50.6881C200.225 50.9761 201.665 51.9361 202.241 53.2801C202.529 54.0481 202.721 54.8161 202.721 55.5841C202.721 57.7921 201.569 60.1921 199.553 62.6881C196.385 66.5281 193.025 69.3121 190.625 71.2321C189.377 72.1921 188.417 72.8641 187.841 73.3441C187.841 73.5361 187.937 73.6321 187.937 73.6321C188.033 73.6321 188.225 73.6321 188.801 73.5361C191.489 72.9601 199.169 69.2161 215.393 56.6401C215.681 56.4481 216.257 56.2561 216.641 56.2561C217.697 56.2561 218.561 57.1201 218.561 58.1761C218.561 58.7521 218.081 59.4241 217.697 59.7121C201.377 72.3841 193.985 76.4161 189.569 77.2801C188.513 77.4721 187.553 77.5681 186.689 77.2801C185.825 76.9921 185.057 76.3201 184.673 75.6481C184.289 74.9761 184.193 74.4961 184.097 74.1121C184.001 73.7281 183.809 73.5361 184.193 74.1121C183.809 73.5361 183.809 72.7681 183.905 72.2881C184.001 71.8081 184.193 71.5201 184.385 71.3281C184.673 70.9441 184.961 70.6561 185.345 70.3681C186.113 69.7921 187.073 69.0241 188.225 68.1601C190.529 66.3361 193.697 63.8401 196.577 60.2881C198.401 58.0801 198.785 56.2561 198.785 55.3921V54.9121C198.689 54.7201 198.497 54.5281 198.017 54.4321C197.537 54.3361 196.577 54.4321 195.329 54.8161C194.369 55.2001 192.257 55.9681 190.529 56.9281C188.801 57.8881 187.361 59.3281 187.361 59.4241C187.073 60.0961 186.305 60.6721 185.537 60.6721C184.481 60.6721 183.617 59.8081 183.617 58.7521C183.617 58.5601 183.713 58.1761 183.809 57.9841C184.673 55.7761 186.593 54.8161 188.609 53.6641C190.625 52.5121 192.737 51.6481 194.081 51.1681C195.233 50.7841 196.385 50.5921 197.441 50.5921H197.729ZM231.643 44.0641H231.931C233.179 44.0641 234.427 44.6401 235.099 45.6001C235.771 46.5601 236.059 47.7121 236.155 48.8641C236.251 49.4401 236.251 50.0161 236.251 50.5921C236.251 52.5121 235.963 54.5281 235.675 56.6401C235.291 59.3281 234.907 62.0161 234.811 63.8401V64.1281C234.907 64.0321 234.907 63.9361 235.003 63.8401C235.867 62.6881 236.827 60.8641 237.691 59.1361C238.555 57.4081 239.323 55.6801 240.187 54.3361C240.571 53.6641 240.955 53.0881 241.531 52.5121C241.819 52.2241 242.107 51.9361 242.587 51.7441C243.067 51.5521 243.835 51.4561 244.507 51.7441C245.467 52.1281 245.947 53.2801 246.043 53.9521C246.139 54.6241 246.139 55.1041 246.043 55.7761C245.851 57.0241 245.563 58.4641 245.179 60.0001C244.795 61.9201 244.507 63.8401 244.507 65.2801C244.507 66.1441 244.603 66.8161 244.795 67.2001C245.083 67.7761 245.179 67.7761 245.467 67.7761C245.755 67.7761 246.523 67.6801 247.675 67.0081C249.979 65.6641 253.531 62.4961 258.235 56.6401C258.523 56.2561 259.291 55.9681 259.771 55.9681C260.827 55.9681 261.691 56.8321 261.691 57.8881C261.691 58.2721 261.499 58.8481 261.211 59.1361C256.411 65.0881 252.763 68.3521 249.595 70.2721C248.251 71.1361 246.907 71.6161 245.563 71.6161H244.987C243.451 71.4241 242.203 70.3681 241.435 69.0241C240.763 67.7761 240.475 66.4321 240.475 65.0881C240.475 63.7441 240.667 62.4001 240.955 61.1521C240.091 62.8801 239.227 64.6081 238.171 66.0481C237.595 66.8161 237.115 67.3921 236.443 67.9681C235.771 68.5441 234.811 69.0241 233.755 69.0241C233.083 69.0241 232.315 68.6401 231.835 68.1601C231.355 67.6801 231.163 67.1041 231.067 66.6241C230.875 66.0481 230.875 65.3761 230.875 64.8001C230.875 64.4161 230.971 64.0321 230.971 63.6481C231.067 61.4401 231.547 58.6561 231.931 56.0641C232.219 53.9521 232.411 51.9361 232.411 50.4001C232.411 50.0161 232.315 49.6321 232.315 49.2481C232.219 48.4801 232.123 48.0001 232.027 47.9041C232.027 47.9041 231.547 48.0961 230.875 48.7681C230.203 49.4401 229.435 50.5921 228.667 52.0321C227.035 54.8161 225.211 58.5601 223.483 62.4001C221.755 66.2401 220.123 69.9841 218.395 72.9601C217.531 74.4001 216.763 75.7441 215.803 76.7041C214.939 77.5681 213.787 78.4321 212.443 78.4321C212.347 78.4321 212.155 78.3361 212.059 78.3361C211.387 78.2401 210.619 77.8561 210.235 77.3761C209.851 76.8961 209.755 76.3201 209.659 75.8401C209.467 74.8801 209.563 74.0161 209.755 73.0561C210.043 71.0401 210.811 68.7361 211.579 66.4321C213.211 61.7281 215.227 56.9281 215.227 56.9281C215.515 56.2561 216.283 55.6801 216.955 55.6801C218.011 55.6801 218.875 56.5441 218.875 57.6001C218.875 57.7921 218.875 58.2721 218.779 58.4641C218.779 58.4641 216.763 63.1681 215.227 67.6801C214.555 69.6961 213.979 71.7121 213.691 73.2481C214.171 72.6721 214.555 71.9041 215.035 71.0401C216.571 68.3521 218.299 64.7041 220.027 60.8641C221.755 57.0241 223.483 53.1841 225.307 50.1121C226.171 48.5761 227.131 47.2321 228.091 46.1761C229.051 45.1201 230.107 44.1601 231.643 44.0641ZM265.174 80.6401C257.11 87.8401 249.718 95.8081 247.03 101.952C245.494 105.6 244.822 108.48 244.822 110.304C244.822 111.264 245.014 112.032 245.206 112.416C245.398 112.704 245.494 112.704 245.686 112.8H245.974C246.454 112.8 247.51 112.512 248.95 111.36C250.582 109.92 252.694 107.52 254.518 103.872C257.878 97.3441 261.814 88.8001 265.174 80.6401ZM274.87 51.9361C275.638 51.9361 276.502 52.4161 276.886 52.9921C277.366 53.7601 277.558 54.3361 277.558 54.9121C277.558 55.4881 277.462 56.0641 277.366 56.6401C277.174 57.9841 276.79 59.5201 276.31 61.3441C275.734 63.3601 274.966 65.6641 274.102 68.1601C282.646 61.4401 289.654 56.6401 289.654 56.6401C289.942 56.4481 290.422 56.3521 290.71 56.3521C291.766 56.3521 292.63 57.2161 292.63 58.2721C292.63 58.8481 292.246 59.6161 291.766 59.9041C291.766 59.9041 282.358 66.1441 271.99 74.6881C271.798 74.7841 271.702 75.0721 271.51 75.1681C267.574 85.2481 262.39 96.9601 257.878 105.6C255.862 109.536 253.654 112.512 251.446 114.336C249.718 115.776 247.894 116.736 246.07 116.736C245.59 116.736 245.11 116.64 244.63 116.544C243.478 116.256 242.518 115.392 241.942 114.336C241.366 113.28 241.078 112.032 240.982 110.688V110.208C240.982 107.616 241.75 104.352 243.478 100.416C247.414 91.3921 258.07 81.3121 268.246 72.8641C270.07 68.0641 271.606 63.6481 272.566 60.2881C272.758 59.7121 272.854 59.3281 272.95 58.8481C272.182 59.9041 271.51 60.8641 270.55 62.1121C269.014 64.2241 267.382 66.4321 265.75 68.1601C264.118 69.7921 262.582 71.3281 260.278 71.3281H259.894C258.454 71.2321 257.11 70.5601 256.342 69.5041C255.574 68.5441 255.286 67.2961 255.286 66.1441C255.286 63.3601 256.534 60.2881 258.07 57.1201C258.358 56.5441 259.126 56.0641 259.798 56.0641C260.854 56.0641 261.718 56.9281 261.718 57.9841C261.718 58.2721 261.526 58.9441 261.43 59.1361C260.086 61.9201 259.222 64.4161 259.126 65.9521C259.126 66.7201 259.318 67.1041 259.414 67.2001C259.51 67.2961 259.606 67.4881 260.182 67.4881C260.278 67.4881 261.526 66.9121 262.966 65.4721C264.406 64.0321 265.942 61.9201 267.382 59.9041C268.822 57.8881 270.166 55.7761 271.414 54.3361C271.99 53.5681 272.566 52.9921 273.334 52.5121C273.718 52.2241 274.102 51.9361 274.87 51.9361ZM340.123 50.1121C340.795 50.3041 341.179 50.6881 341.371 50.8801C341.659 51.3601 341.659 51.6481 341.755 51.8401C342.043 52.7041 342.331 53.6641 343.003 54.7201C343.675 55.7761 344.827 56.7361 347.035 57.3121C347.995 57.5041 349.243 57.6961 350.683 57.6961C352.507 57.6961 354.811 57.4081 357.691 56.6401C357.883 56.6401 358.075 56.5441 358.267 56.5441C359.323 56.5441 360.187 57.4081 360.187 58.4641C360.187 59.3281 359.515 60.0961 358.747 60.2881C355.579 61.1521 352.891 61.5361 350.683 61.5361C348.955 61.5361 347.419 61.3441 346.075 61.0561C343.003 60.2881 341.083 58.5601 339.931 56.9281C338.683 60.7681 337.339 65.1841 335.707 69.2161C334.651 71.7121 333.403 74.1121 331.867 75.9361C330.331 77.6641 328.315 78.9121 325.915 78.9121H325.723C324.283 78.9121 323.035 78.3361 322.075 77.4721C321.115 76.6081 320.539 75.5521 320.059 74.4001C319.099 72.0961 318.811 69.4081 318.619 66.7201C318.523 64.5121 318.523 62.4961 318.523 60.7681C317.659 62.3041 316.603 64.2241 315.547 66.2401C314.395 68.4481 313.051 70.7521 311.899 72.4801C311.323 73.3441 310.747 74.1121 310.075 74.7841C309.499 75.3601 308.731 75.9361 307.579 75.9361H307.195C306.139 75.8401 305.371 74.8801 305.083 74.2081C304.795 73.4401 304.795 72.8641 304.795 72.0001C304.795 70.7521 304.987 69.3121 305.179 67.7761C305.659 64.4161 306.619 60.1921 307.099 57.4081C307.291 56.5441 308.155 55.8721 309.019 55.8721C310.075 55.8721 310.939 56.7361 310.939 57.7921C310.939 57.8881 310.843 58.0801 310.843 58.1761C310.267 61.0561 309.499 65.1841 309.019 68.3521C308.923 69.1201 308.923 69.6001 308.827 70.1761C309.787 68.6401 310.939 66.5281 312.091 64.4161C313.243 62.2081 314.491 59.9041 315.547 58.1761C316.027 57.3121 316.603 56.5441 317.083 55.8721C317.371 55.5841 317.563 55.2961 317.947 55.0081C318.331 54.7201 318.811 54.4321 319.579 54.4321C320.443 54.4321 321.211 55.1041 321.499 55.5841C321.787 56.0641 321.979 56.4481 322.075 56.8321C322.267 57.6001 322.267 58.5601 322.267 59.5201C322.363 61.5361 322.363 64.0321 322.459 66.5281C322.555 69.0241 322.939 71.4241 323.611 72.9601C323.899 73.7281 324.283 74.4001 324.667 74.6881C325.051 74.9761 325.243 75.0721 325.819 75.0721H325.915C326.971 75.0721 327.931 74.5921 328.987 73.3441C330.139 72.0961 331.195 70.0801 332.155 67.7761C334.075 63.0721 335.611 57.1201 337.339 52.5121C337.435 52.1281 337.627 51.8401 337.723 51.5521C337.819 51.2641 337.819 50.9761 338.395 50.4961C338.683 50.2081 339.451 49.9201 340.123 50.1121ZM360.232 72.0001C357.736 73.8241 355.336 75.6481 353.512 77.4721C350.632 80.3521 349 83.0401 349 84.8641C349 85.7281 349.192 85.9201 349.192 85.9201C349.192 85.9201 349.384 86.1121 349.864 86.0161C350.92 85.9201 353.032 84.7681 354.952 82.8481C357.448 80.3521 359.752 76.5121 360.232 72.0001ZM363.496 48.3841C363.88 48.3841 364.36 48.4801 364.744 48.6721C366.28 49.2481 367.528 50.5921 368.008 52.4161C368.008 52.5121 368.104 52.8001 368.104 52.8961C368.104 53.9521 367.24 54.8161 366.184 54.8161C365.32 54.8161 364.456 54.1441 364.264 53.3761C364.072 52.7041 363.688 52.3201 363.4 52.2241C363.112 52.1281 362.824 52.1281 362.44 52.5121C362.056 52.8961 361.48 53.6641 361.384 55.3921C361.384 55.5841 361.288 55.7761 361.288 55.9681C361.288 57.6961 361.672 60.0001 362.824 63.0721C363.112 63.7441 363.208 64.5121 363.4 65.1841C371.272 60.1921 378.664 56.6401 378.664 56.6401C378.856 56.5441 379.24 56.4481 379.528 56.4481C380.584 56.4481 381.448 57.3121 381.448 58.3681C381.448 59.0401 380.872 59.9041 380.296 60.1921C380.296 60.1921 372.328 63.9361 364.36 69.1201C364.264 69.2161 364.168 69.2161 364.072 69.3121V70.2721C364.072 76.6081 361.192 82.0801 357.736 85.5361C355.432 87.9361 352.84 89.5681 350.344 89.8561H349.672C348.616 89.8561 347.464 89.5681 346.6 88.8001C345.544 87.8401 345.16 86.4001 345.16 84.9601C345.16 81.2161 347.656 77.8561 350.824 74.6881C353.416 72.0961 356.68 69.7921 360.04 67.4881C359.848 66.5281 359.656 65.4721 359.272 64.4161C358.024 61.0561 357.448 58.2721 357.448 55.9681C357.448 55.6801 357.544 55.3921 357.544 55.1041C357.736 52.6081 358.504 50.6881 359.848 49.5361C360.808 48.7681 361.96 48.3841 363.112 48.3841H363.496ZM367.885 97.4401C365.581 103.296 363.661 108.768 362.413 112.992C362.125 113.856 362.029 114.528 361.837 115.296C362.413 113.952 362.893 112.608 363.565 110.88C364.909 107.136 366.445 102.432 367.885 97.4401ZM394.381 53.7601C394.189 53.7601 393.997 53.7601 393.709 53.8561C393.133 53.9521 392.269 54.3361 391.405 55.0081C389.581 56.3521 387.373 58.8481 384.973 62.4001C383.437 64.6081 381.901 67.3921 380.269 70.2721C380.557 70.0801 381.037 69.8881 381.421 69.8881C382.093 69.8881 382.861 69.6001 383.725 69.4081C384.013 69.2161 384.301 69.1201 384.685 68.8321C386.413 67.4881 388.621 65.3761 390.445 63.0721C392.269 60.7681 393.901 58.2721 394.669 56.3521C395.053 55.3921 395.053 54.7201 395.053 54.3361C395.053 54.3361 395.149 54.1441 395.053 54.0481C394.861 53.9521 394.573 53.7601 394.381 53.7601ZM394.957 50.0161C395.629 50.1121 396.301 50.3041 396.877 50.6881C398.221 51.4561 398.989 52.8961 398.989 54.4321C398.989 55.5841 398.701 56.6401 398.221 57.7921C397.261 60.2881 395.437 62.9761 393.421 65.4721L393.325 65.6641C394.957 64.8961 396.589 64.0321 398.125 63.1681C404.173 59.8081 409.261 56.6401 409.261 56.6401C409.549 56.4481 410.029 56.3521 410.317 56.3521C411.373 56.3521 412.237 57.2161 412.237 58.2721C412.237 58.8481 411.853 59.6161 411.373 59.9041C411.373 59.9041 406.189 63.1681 399.949 66.5281C395.149 69.2161 389.869 71.9041 385.261 73.0561C384.781 73.3441 384.301 73.5361 383.821 73.7281C383.341 73.9201 382.861 74.0161 382.285 74.0161C381.517 74.0161 380.845 73.7281 380.173 73.1521C379.885 72.8641 379.501 72.2881 379.501 71.8081L379.597 71.6161C379.117 72.5761 378.541 73.4401 378.061 74.4001C376.813 79.2961 375.469 84.6721 373.933 90.2401C371.725 98.2081 369.421 106.176 367.213 112.224C366.157 115.2 365.101 117.696 364.045 119.616C363.565 120.576 362.989 121.344 362.413 122.016C361.837 122.688 361.069 123.36 359.821 123.36C359.245 123.36 358.477 123.168 357.997 122.688C357.517 122.208 357.421 121.728 357.325 121.344C357.133 120.48 357.133 119.712 357.229 118.848C357.421 117.024 357.901 114.816 358.669 112.032C360.205 106.464 362.893 99.0721 366.061 91.3921C368.845 84.6721 371.629 78.4321 374.413 72.9601C376.621 64.3201 378.157 57.5041 378.157 57.5041C378.349 56.6401 379.213 55.9681 380.077 55.9681C381.133 55.9681 381.997 56.8321 381.997 57.8881C381.997 57.9841 381.901 58.2721 381.901 58.3681C381.901 58.3681 381.421 60.5761 381.325 61.0561C381.517 60.7681 381.613 60.5761 381.805 60.2881C384.301 56.5441 386.797 53.7601 389.197 51.9361C390.445 51.0721 391.597 50.4001 392.941 50.1121C393.613 50.0161 394.285 49.9201 394.957 50.0161ZM411.79 59.5201C410.158 62.0161 409.39 64.4161 409.294 65.9521C409.198 67.4881 409.678 68.3521 410.062 68.7361C410.446 69.1201 410.926 69.1201 411.79 68.7361C412.654 68.3521 413.902 67.2001 414.958 64.9921C415.438 64.0321 415.726 63.1681 415.918 62.4001H415.726C413.998 61.9201 412.654 60.7681 411.79 59.5201ZM414.958 56.4481C414.862 56.4481 414.958 56.4481 414.862 56.6401C414.574 57.1201 414.574 57.2161 414.766 57.5041C414.958 57.7921 415.438 58.0801 416.206 58.4641C416.11 57.8881 415.918 57.4081 415.726 57.1201C415.438 56.6401 415.054 56.4481 414.958 56.4481ZM415.438 52.7041C416.878 52.8961 418.03 53.7601 418.894 55.0081C419.662 56.0641 420.046 57.4081 420.142 59.0401C422.734 59.0401 426.19 58.4641 430.51 56.6401C430.702 56.5441 431.086 56.5441 431.278 56.5441C432.334 56.5441 433.198 57.4081 433.198 58.4641C433.198 59.1361 432.718 59.9041 432.046 60.1921C427.342 62.1121 423.406 62.8801 420.142 62.8801H419.758C419.47 64.0321 418.99 65.3761 418.414 66.6241C417.07 69.4081 415.342 71.2321 413.422 72.1921C412.654 72.5761 411.694 72.7681 410.83 72.7681C409.582 72.7681 408.526 72.3841 407.566 71.6161C406.126 70.4641 405.454 68.5441 405.454 66.4321V65.6641C405.646 63.1681 406.798 60.0961 408.91 57.0241C409.198 56.5441 409.87 56.2561 410.446 56.2561C410.638 56.2561 410.83 56.3521 411.022 56.3521C411.118 55.6801 411.214 55.1041 411.598 54.5281C412.366 53.3761 413.71 52.6081 415.054 52.6081C415.15 52.6081 415.342 52.7041 415.438 52.7041ZM460.145 10.2721C460.145 10.2721 459.569 10.3681 458.705 11.0401C456.977 12.3841 454.193 15.5521 451.121 20.5441C444.785 30.8161 440.081 40.9921 436.721 50.2081C443.345 42.5281 449.105 34.3681 453.329 27.3601C456.017 22.8481 458.033 18.8161 459.185 15.7441C459.761 14.2081 460.145 12.9601 460.337 12.0001C460.529 11.0401 460.433 10.7521 460.433 10.7521C460.145 10.1761 460.145 10.2721 460.145 10.2721ZM460.433 6.4321C461.969 6.5281 463.217 7.6801 463.889 9.0241C464.177 9.6961 464.273 10.2721 464.273 10.9441C464.273 11.5201 464.177 12.0961 464.081 12.6721C463.889 14.0161 463.409 15.4561 462.737 17.1841C461.393 20.5441 459.377 24.6721 456.593 29.2801C451.121 38.4961 443.153 49.5361 433.841 59.1361C433.649 59.7121 433.361 60.3841 433.169 60.9601C431.633 66.7201 430.769 71.8081 430.481 75.6481C430.385 76.3201 430.385 76.9921 430.385 77.6641C430.385 80.4481 430.769 82.2721 431.153 82.8481C431.345 83.2321 431.633 83.3281 431.729 83.3281C431.825 83.3281 432.113 83.5201 432.593 83.3281C433.649 83.0401 435.473 81.6961 437.777 79.5841C442.289 75.2641 448.529 67.3921 456.497 56.6401C456.785 56.1601 457.457 55.8721 458.033 55.8721C459.089 55.8721 459.953 56.7361 459.953 57.7921C459.953 58.1761 459.761 58.6561 459.569 58.9441C451.601 69.7921 445.361 77.7601 440.465 82.3681C437.969 84.6721 435.857 86.3041 433.745 86.9761C433.169 87.1681 432.497 87.2641 431.921 87.2641C431.441 87.2641 430.961 87.1681 430.481 86.9761C429.425 86.5921 428.561 85.9201 427.985 84.9601C426.929 83.3281 426.545 81.1201 426.545 78.4321C426.545 77.4721 426.545 76.5121 426.641 75.3601C426.929 71.1361 427.889 65.9521 429.521 60.0001C432.785 48.0961 438.641 33.3121 447.857 18.5281C451.121 13.3441 453.905 9.8881 456.401 7.9681C457.553 7.1041 458.801 6.4321 460.145 6.4321H460.433ZM470.752 51.5521C471.52 51.5521 472.192 51.7441 472.864 52.2241C473.728 52.8001 474.208 53.6641 474.4 54.5281C474.592 55.3921 474.592 56.2561 474.496 57.0241C474.304 58.6561 473.728 60.3841 473.248 62.0161C472.768 63.6481 472.192 65.2801 471.904 66.5281C471.616 67.7761 472 68.3521 471.808 68.1601C472.192 68.6401 472 68.5441 472.768 68.3521C473.536 68.1601 474.88 67.3921 476.32 66.2401C479.2 63.8401 482.848 60.0961 486.4 56.6401C486.688 56.3521 487.264 56.1601 487.744 56.1601C488.8 56.1601 489.664 57.0241 489.664 58.0801C489.664 58.5601 489.472 59.1361 489.088 59.4241C485.632 62.7841 481.984 66.5281 478.72 69.2161C477.088 70.5601 475.648 71.6161 473.92 72.0961C473.536 72.1921 473.056 72.2881 472.576 72.2881C471.136 72.2881 469.696 71.7121 468.736 70.5601C468.064 69.6961 467.872 68.9281 467.872 68.0641C467.872 67.2961 468.064 66.5281 468.16 65.7601C468.448 64.1281 469.12 62.4961 469.6 60.8641C470.08 59.2321 470.56 57.6001 470.656 56.5441C470.752 55.9681 470.656 55.6801 470.656 55.4881V55.3921C470.56 55.2961 470.56 55.2961 470.176 55.4881C469.696 55.6801 468.928 56.1601 468.064 57.0241C466.432 58.7521 464.512 61.6321 462.688 64.3201C460.864 67.0081 459.328 69.6001 457.6 71.2321C456.832 72.0001 455.968 72.7681 454.624 72.7681H454.144C453.376 72.6721 452.608 72.0961 452.224 71.5201C451.84 70.9441 451.552 70.3681 451.36 69.6961C451.168 68.8321 451.36 68.3521 451.456 67.7761C451.552 67.2001 451.744 66.5281 451.936 65.9521C452.416 64.7041 452.992 63.3601 453.664 62.0161C454.912 59.4241 456.448 56.8321 456.448 56.8321C456.736 56.2561 457.408 55.7761 458.08 55.7761C459.136 55.7761 460 56.6401 460 57.6961C460 57.9841 459.904 58.3681 459.808 58.6561C459.808 58.6561 458.368 61.2481 457.12 63.7441C456.544 64.9921 455.968 66.2401 455.584 67.2961C455.488 67.4881 455.488 67.6801 455.392 67.8721C456.448 66.6241 457.888 64.5121 459.52 62.1121C461.344 59.4241 463.36 56.5441 465.376 54.4321C466.432 53.3761 467.392 52.5121 468.64 51.9361C469.312 51.6481 469.984 51.5521 470.752 51.5521ZM487.796 55.8721C488.852 55.8721 489.716 56.7361 489.716 57.7921C489.716 58.0801 489.62 58.4641 489.524 58.7521C488.66 60.2881 487.508 62.8801 487.124 64.9921C486.932 66.0481 486.932 67.0081 487.028 67.5841C487.124 68.1601 487.22 68.3521 487.508 68.5441C487.796 68.7361 488.564 68.8321 489.812 68.4481C491.06 68.0641 492.692 67.2961 494.42 66.1441C497.972 63.8401 501.908 60.4801 505.748 56.6401C506.036 56.3521 506.612 56.0641 507.092 56.0641C508.148 56.0641 509.012 56.9281 509.012 57.9841C509.012 58.4641 508.724 59.1361 508.436 59.4241C504.5 63.3601 500.372 66.9121 496.532 69.4081C494.612 70.6561 492.692 71.6161 490.868 72.1921C490.004 72.4801 489.14 72.5761 488.276 72.5761C487.316 72.5761 486.548 72.3841 485.684 71.9041C484.34 71.1361 483.572 69.6961 483.284 68.3521C483.188 67.8721 483.092 67.2961 483.092 66.7201C483.092 65.8561 483.188 65.0881 483.38 64.2241C483.956 61.4401 485.108 58.8481 486.164 56.9281C486.452 56.3521 487.124 55.8721 487.796 55.8721ZM490.388 49.9201C491.54 49.9201 492.404 50.7841 492.404 51.9361C492.404 53.0881 491.54 53.9521 490.388 53.9521C489.236 53.9521 488.372 53.0881 488.372 51.9361C488.372 50.7841 489.236 49.9201 490.388 49.9201ZM512.674 56.5441C512.386 56.4481 512.098 56.4481 511.714 56.5441C511.234 56.6401 510.562 57.0241 509.794 57.7921C510.85 58.3681 511.81 58.2721 512.578 57.8881C513.058 57.6001 513.346 57.2161 513.346 57.1201C513.346 57.0241 513.538 57.1201 513.25 56.8321C513.154 56.7361 512.962 56.6401 512.674 56.5441ZM512.29 52.6081C513.826 52.6081 515.074 53.2801 515.938 54.1441C516.802 54.9121 517.186 56.0641 517.186 57.1201C517.186 57.5041 517.09 57.9841 516.994 58.3681C516.514 59.7121 515.554 60.6721 514.306 61.2481C513.442 61.7281 512.386 61.9201 511.33 61.9201C510.082 61.9201 508.834 61.6321 507.586 60.8641C507.202 61.7281 506.914 62.8801 506.914 64.0321C506.914 65.6641 507.394 66.8161 508.258 67.2001C508.834 67.4881 509.602 67.5841 510.466 67.5841C512.386 67.5841 514.882 66.9121 517.762 65.4721C521.986 63.3601 526.69 60.0961 531.49 56.6401C531.778 56.4481 532.258 56.3521 532.642 56.3521C533.698 56.3521 534.562 57.2161 534.562 58.2721C534.562 58.8481 534.274 59.5201 533.794 59.8081C528.994 63.3601 524.098 66.6241 519.49 68.9281C516.418 70.4641 513.346 71.5201 510.562 71.5201C509.122 71.5201 507.778 71.3281 506.53 70.6561C504.13 69.5041 503.17 67.0081 503.074 64.7041V63.9361C503.074 61.9201 503.554 60.0001 504.514 58.3681C506.434 55.1041 508.642 53.3761 510.754 52.8001C511.33 52.7041 511.81 52.6081 512.29 52.6081ZM579.505 10.7521C579.025 10.7521 578.353 10.8481 577.777 11.1361C576.529 11.7121 575.089 13.0561 573.553 14.8801C570.481 18.5281 567.025 24.3841 563.761 31.2961C560.305 38.4961 557.425 45.4081 554.929 52.0321C563.857 44.3521 571.153 35.2321 575.857 27.3601C578.641 22.6561 580.561 18.4321 581.233 15.3601C581.425 14.3041 581.521 13.4401 581.521 12.7681C581.521 12.4801 581.425 12.0961 581.425 11.9041C581.329 11.2321 581.233 11.1361 581.041 11.0401C580.561 10.8481 579.985 10.7521 579.505 10.7521ZM579.313 6.9121H579.697C580.657 6.9121 581.617 7.1041 582.577 7.4881C584.017 8.1601 584.977 9.6001 585.265 11.1361C585.361 11.6161 585.361 12.1921 585.361 12.7681C585.361 13.8241 585.265 14.9761 584.977 16.2241C584.113 19.8721 582.097 24.3841 579.121 29.3761C573.361 39.0721 564.049 50.4001 552.433 59.0401C551.569 61.6321 550.609 64.2241 549.937 66.5281C552.049 63.6481 554.065 60.6721 555.889 58.1761C557.617 55.8721 559.153 53.9521 560.881 52.7041C561.745 52.1281 562.705 51.5521 563.857 51.5521C565.009 51.5521 566.161 52.3201 566.929 53.1841C567.697 54.1441 567.985 55.2961 567.985 56.3521C567.985 57.1201 567.889 57.7921 567.697 58.4641C567.313 60.1921 566.737 62.0161 566.065 63.6481C565.393 65.2801 564.817 66.9121 564.625 67.9681C564.529 68.3521 564.625 68.6401 564.625 68.7361C564.913 68.8321 565.201 68.9281 565.873 68.6401C566.641 68.3521 567.793 67.4881 569.137 66.4321C571.729 64.2241 575.185 60.7681 579.121 56.6401C579.409 56.3521 579.985 55.9681 580.465 55.9681C581.521 55.9681 582.385 56.8321 582.385 57.8881C582.385 58.3681 582.097 58.9441 581.809 59.2321C577.873 63.3601 574.609 66.9121 571.633 69.4081C570.193 70.6561 568.657 71.6161 567.217 72.1921C566.449 72.4801 565.681 72.5761 564.913 72.5761C564.145 72.5761 563.377 72.4801 562.609 72.0961C561.649 71.6161 561.073 70.6561 560.881 69.7921C560.689 68.9281 560.689 68.0641 560.881 67.2961C561.169 65.6641 561.745 63.9361 562.417 62.3041C563.089 60.6721 563.665 58.9441 563.953 57.6961C564.241 56.4481 564.049 55.7761 563.953 55.5841C563.953 55.4881 563.857 55.4881 563.857 55.4881C563.761 55.4881 563.473 55.5841 563.089 55.8721C562.129 56.5441 560.593 58.2721 558.961 60.4801C555.601 64.8961 551.569 71.3281 547.057 76.4161C546.769 76.8001 546.097 77.0881 545.617 77.0881C544.561 77.0881 543.697 76.2241 543.697 75.1681V74.7841C544.753 69.8881 546.673 64.0321 548.785 57.7921C548.785 57.5041 548.977 57.1201 549.073 56.9281C552.049 48.4801 555.697 39.2641 560.305 29.6641C563.665 22.5601 567.025 16.5121 570.577 12.3841C572.305 10.2721 574.129 8.6401 576.145 7.6801C577.105 7.2001 578.257 6.9121 579.313 6.9121ZM580.515 55.8721C581.571 55.8721 582.435 56.7361 582.435 57.7921C582.435 58.0801 582.339 58.4641 582.243 58.7521C581.379 60.2881 580.227 62.8801 579.843 64.9921C579.651 66.0481 579.651 67.0081 579.747 67.5841C579.843 68.1601 579.939 68.3521 580.227 68.5441C580.515 68.7361 581.283 68.8321 582.531 68.4481C583.779 68.0641 585.411 67.2961 587.139 66.1441C590.691 63.8401 594.627 60.4801 598.467 56.6401C598.755 56.3521 599.331 56.0641 599.811 56.0641C600.867 56.0641 601.731 56.9281 601.731 57.9841C601.731 58.4641 601.443 59.1361 601.155 59.4241C597.219 63.3601 593.091 66.9121 589.251 69.4081C587.331 70.6561 585.411 71.6161 583.587 72.1921C582.723 72.4801 581.859 72.5761 580.995 72.5761C580.035 72.5761 579.267 72.3841 578.403 71.9041C577.059 71.1361 576.291 69.6961 576.003 68.3521C575.907 67.8721 575.811 67.2961 575.811 66.7201C575.811 65.8561 575.907 65.0881 576.099 64.2241C576.675 61.4401 577.827 58.8481 578.883 56.9281C579.171 56.3521 579.843 55.8721 580.515 55.8721ZM583.107 49.9201C584.259 49.9201 585.123 50.7841 585.123 51.9361C585.123 53.0881 584.259 53.9521 583.107 53.9521C581.955 53.9521 581.091 53.0881 581.091 51.9361C581.091 50.7841 581.955 49.9201 583.107 49.9201ZM601.169 72.0001C598.673 73.8241 596.273 75.6481 594.449 77.4721C591.569 80.3521 589.937 83.0401 589.937 84.8641C589.937 85.7281 590.129 85.9201 590.129 85.9201C590.129 85.9201 590.321 86.1121 590.801 86.0161C591.857 85.9201 593.969 84.7681 595.889 82.8481C598.385 80.3521 600.689 76.5121 601.169 72.0001ZM604.433 48.3841C604.817 48.3841 605.297 48.4801 605.681 48.6721C607.217 49.2481 608.465 50.5921 608.945 52.4161C608.945 52.5121 609.041 52.8001 609.041 52.8961C609.041 53.9521 608.177 54.8161 607.121 54.8161C606.257 54.8161 605.393 54.1441 605.201 53.3761C605.009 52.7041 604.625 52.3201 604.337 52.2241C604.049 52.1281 603.761 52.1281 603.377 52.5121C602.993 52.8961 602.417 53.6641 602.321 55.3921C602.321 55.5841 602.225 55.7761 602.225 55.9681C602.225 57.6961 602.609 60.0001 603.761 63.0721C604.049 63.7441 604.145 64.5121 604.337 65.1841C612.209 60.1921 619.601 56.6401 619.601 56.6401C619.793 56.5441 620.177 56.4481 620.465 56.4481C621.521 56.4481 622.385 57.3121 622.385 58.3681C622.385 59.0401 621.809 59.9041 621.233 60.1921C621.233 60.1921 613.265 63.9361 605.297 69.1201C605.201 69.2161 605.105 69.2161 605.009 69.3121V70.2721C605.009 76.6081 602.129 82.0801 598.673 85.5361C596.369 87.9361 593.777 89.5681 591.281 89.8561H590.609C589.553 89.8561 588.401 89.5681 587.537 88.8001C586.481 87.8401 586.097 86.4001 586.097 84.9601C586.097 81.2161 588.593 77.8561 591.761 74.6881C594.353 72.0961 597.617 69.7921 600.977 67.4881C600.785 66.5281 600.593 65.4721 600.209 64.4161C598.961 61.0561 598.385 58.2721 598.385 55.9681C598.385 55.6801 598.481 55.3921 598.481 55.1041C598.673 52.6081 599.441 50.6881 600.785 49.5361C601.745 48.7681 602.897 48.3841 604.049 48.3841H604.433ZM635.607 34.6561H635.319H631.959C629.943 38.9761 628.023 43.4881 626.391 48.0001C629.943 43.2961 632.919 38.7841 635.607 34.6561ZM647.703 9.8881C647.511 9.8881 647.031 10.1761 646.263 10.8481C644.727 12.2881 642.423 15.4561 639.447 20.5441C637.527 23.8081 635.607 27.3601 633.687 31.2001H635.319H637.815C639.543 28.4161 640.983 25.8241 642.231 23.4241C644.535 19.0081 646.071 15.4561 646.935 12.8641C647.319 11.6161 647.607 10.5601 647.703 9.9841V9.8881ZM647.703 6.0481H648.183C649.143 6.1441 650.103 6.5281 650.775 7.2001C651.351 7.7761 651.447 8.4481 651.543 8.9281C651.639 9.4081 651.639 9.9841 651.543 10.4641C651.447 11.5201 651.063 12.6721 650.583 14.1121C649.623 16.9921 647.991 20.7361 645.591 25.2481C644.631 27.1681 643.479 29.0881 642.231 31.2001C650.487 31.2961 657.303 31.6801 657.303 31.6801C658.263 31.6801 659.031 32.3521 659.031 33.3121C659.031 34.2721 658.263 35.0401 657.303 35.0401H657.207C657.207 35.0401 649.239 34.7521 640.215 34.6561C635.799 41.7601 630.039 49.9201 623.031 58.5601C621.687 63.6481 620.823 68.6401 620.535 73.4401V74.4001C620.535 76.8961 621.207 77.9521 621.591 78.2401C621.783 78.3361 622.071 78.4321 622.455 78.4321C623.223 78.4321 624.279 78.1441 625.815 77.2801C630.519 74.6881 637.815 67.3921 645.495 56.7361C645.783 56.2561 646.551 55.8721 647.127 55.8721C648.183 55.8721 649.047 56.7361 649.047 57.7921C649.047 58.1761 648.855 58.6561 648.663 58.9441C640.791 69.8881 633.399 77.4721 627.639 80.6401C625.815 81.6961 624.087 82.2721 622.455 82.2721C621.399 82.2721 620.439 82.0801 619.575 81.5041C617.463 80.1601 616.695 77.5681 616.695 74.3041V73.2481C616.983 68.2561 617.847 63.0721 619.191 57.8881C619.191 57.6001 619.287 57.2161 619.479 56.9281C621.495 49.3441 624.375 41.7601 627.639 34.7521C625.047 34.8481 622.647 35.0401 620.631 35.2321C618.711 35.4241 617.079 35.8081 616.215 36.0961C615.927 36.1921 615.927 36.1921 615.831 36.2881C615.639 37.0561 614.871 37.6321 614.103 37.6321C613.335 37.6321 612.663 36.9601 612.471 36.1921C612.279 35.2321 612.663 34.2721 613.239 33.7921C613.815 33.3121 614.391 33.0241 615.063 32.8321C616.407 32.3521 618.231 32.0641 620.247 31.8721C622.839 31.5841 626.007 31.3921 629.367 31.2961C631.575 26.7841 633.879 22.4641 636.087 18.6241C639.159 13.3441 641.463 9.9841 643.671 7.9681C644.727 7.0081 645.879 6.2401 647.127 6.0481H647.703ZM648.133 59.5201C646.501 62.0161 645.733 64.4161 645.637 65.9521C645.541 67.4881 646.021 68.3521 646.405 68.7361C646.789 69.1201 647.269 69.1201 648.133 68.7361C648.997 68.3521 650.245 67.2001 651.301 64.9921C651.781 64.0321 652.069 63.1681 652.261 62.4001H652.069C650.341 61.9201 648.997 60.7681 648.133 59.5201ZM651.301 56.4481C651.205 56.4481 651.301 56.4481 651.205 56.6401C650.917 57.1201 650.917 57.2161 651.109 57.5041C651.301 57.7921 651.781 58.0801 652.549 58.4641C652.453 57.8881 652.261 57.4081 652.069 57.1201C651.781 56.6401 651.397 56.4481 651.301 56.4481ZM651.781 52.7041C653.221 52.8961 654.373 53.7601 655.237 55.0081C656.005 56.0641 656.389 57.4081 656.485 59.0401C659.077 59.0401 662.533 58.4641 666.853 56.6401C667.045 56.5441 667.429 56.5441 667.621 56.5441C668.677 56.5441 669.541 57.4081 669.541 58.4641C669.541 59.1361 669.061 59.9041 668.389 60.1921C663.685 62.1121 659.749 62.8801 656.485 62.8801H656.101C655.813 64.0321 655.333 65.3761 654.757 66.6241C653.413 69.4081 651.685 71.2321 649.765 72.1921C648.997 72.5761 648.037 72.7681 647.173 72.7681C645.925 72.7681 644.869 72.3841 643.909 71.6161C642.469 70.4641 641.797 68.5441 641.797 66.4321V65.6641C641.989 63.1681 643.141 60.0961 645.253 57.0241C645.541 56.5441 646.213 56.2561 646.789 56.2561C646.981 56.2561 647.173 56.3521 647.365 56.3521C647.461 55.6801 647.557 55.1041 647.941 54.5281C648.709 53.3761 650.053 52.6081 651.397 52.6081C651.493 52.6081 651.685 52.7041 651.781 52.7041ZM679.977 48.8641C680.169 48.8641 680.457 48.7681 680.649 48.7681C681.609 48.7681 682.473 49.0561 683.145 49.6321C683.913 50.3041 684.297 51.2641 684.489 52.0321C684.969 53.5681 685.161 55.2001 685.545 56.3521C685.929 57.5041 686.217 57.9841 687.369 58.2721C687.657 58.3681 688.041 58.4641 688.425 58.4641C689.769 58.4641 691.881 57.9841 694.953 56.6401C695.145 56.5441 695.529 56.5441 695.721 56.5441C696.777 56.5441 697.641 57.4081 697.641 58.4641C697.641 59.1361 697.161 59.9041 696.489 60.1921C693.225 61.6321 690.633 62.3041 688.521 62.3041C687.753 62.3041 687.081 62.2081 686.409 62.0161C683.913 61.3441 682.473 59.4241 681.897 57.6001C681.321 55.7761 681.129 54.0481 680.841 53.0881C680.745 52.7041 680.649 52.6081 680.649 52.6081C680.649 52.6081 680.169 52.8961 679.497 53.6641C678.825 54.4321 678.057 55.5841 677.193 56.9281C675.561 59.6161 673.737 63.1681 672.105 66.5281C670.473 69.8881 669.033 72.9601 667.497 74.8801C667.113 75.3601 666.729 75.7441 666.249 76.1281C665.769 76.5121 665.193 76.8961 664.329 76.8961C663.465 76.8961 662.601 76.4161 662.121 75.8401C661.641 75.2641 661.449 74.5921 661.257 73.9201C661.065 72.9601 661.257 72.5761 661.353 71.9041C661.449 71.2321 661.737 70.5601 661.929 69.7921C662.409 68.1601 662.985 66.3361 663.657 64.5121C665.001 60.8641 666.537 57.3121 666.537 57.3121C666.825 56.6401 667.593 56.0641 668.265 56.0641C669.321 56.0641 670.185 56.9281 670.185 57.9841C670.185 58.1761 670.185 58.5601 670.089 58.7521C670.089 58.7521 668.649 62.2081 667.305 65.7601C666.729 67.3921 666.057 69.1201 665.673 70.4641C666.537 68.9281 667.593 67.0081 668.649 64.8001C670.281 61.5361 672.105 57.8881 673.929 54.9121C674.793 53.4721 675.657 52.1281 676.617 51.0721C677.577 50.0161 678.537 49.1521 679.977 48.8641ZM696.39 55.8721C697.446 55.8721 698.31 56.7361 698.31 57.7921C698.31 58.0801 698.214 58.4641 698.118 58.7521C697.254 60.2881 696.102 62.8801 695.718 64.9921C695.526 66.0481 695.526 67.0081 695.622 67.5841C695.718 68.1601 695.814 68.3521 696.102 68.5441C696.39 68.7361 697.158 68.8321 698.406 68.4481C699.654 68.0641 701.286 67.2961 703.014 66.1441C706.566 63.8401 710.502 60.4801 714.342 56.6401C714.63 56.3521 715.206 56.0641 715.686 56.0641C716.742 56.0641 717.606 56.9281 717.606 57.9841C717.606 58.4641 717.318 59.1361 717.03 59.4241C713.094 63.3601 708.966 66.9121 705.126 69.4081C703.206 70.6561 701.286 71.6161 699.462 72.1921C698.598 72.4801 697.734 72.5761 696.87 72.5761C695.91 72.5761 695.142 72.3841 694.278 71.9041C692.934 71.1361 692.166 69.6961 691.878 68.3521C691.782 67.8721 691.686 67.2961 691.686 66.7201C691.686 65.8561 691.782 65.0881 691.974 64.2241C692.55 61.4401 693.702 58.8481 694.758 56.9281C695.046 56.3521 695.718 55.8721 696.39 55.8721ZM698.982 49.9201C700.134 49.9201 700.998 50.7841 700.998 51.9361C700.998 53.0881 700.134 53.9521 698.982 53.9521C697.83 53.9521 696.966 53.0881 696.966 51.9361C696.966 50.7841 697.83 49.9201 698.982 49.9201ZM721.268 56.5441C720.98 56.4481 720.692 56.4481 720.308 56.5441C719.828 56.6401 719.156 57.0241 718.388 57.7921C719.444 58.3681 720.404 58.2721 721.172 57.8881C721.652 57.6001 721.94 57.2161 721.94 57.1201C721.94 57.0241 722.132 57.1201 721.844 56.8321C721.748 56.7361 721.556 56.6401 721.268 56.5441ZM720.884 52.6081C722.42 52.6081 723.668 53.2801 724.532 54.1441C725.396 54.9121 725.78 56.0641 725.78 57.1201C725.78 57.5041 725.684 57.9841 725.588 58.3681C725.108 59.7121 724.148 60.6721 722.9 61.2481C722.036 61.7281 720.98 61.9201 719.924 61.9201C718.676 61.9201 717.428 61.6321 716.18 60.8641C715.796 61.7281 715.508 62.8801 715.508 64.0321C715.508 65.6641 715.988 66.8161 716.852 67.2001C717.428 67.4881 718.196 67.5841 719.06 67.5841C720.98 67.5841 723.476 66.9121 726.356 65.4721C730.58 63.3601 735.284 60.0961 740.084 56.6401C740.372 56.4481 740.852 56.3521 741.236 56.3521C742.292 56.3521 743.156 57.2161 743.156 58.2721C743.156 58.8481 742.868 59.5201 742.388 59.8081C737.588 63.3601 732.692 66.6241 728.084 68.9281C725.012 70.4641 721.94 71.5201 719.156 71.5201C717.716 71.5201 716.372 71.3281 715.124 70.6561C712.724 69.5041 711.764 67.0081 711.668 64.7041V63.9361C711.668 61.9201 712.148 60.0001 713.108 58.3681C715.028 55.1041 717.236 53.3761 719.348 52.8001C719.924 52.7041 720.404 52.6081 720.884 52.6081Z" fill="white"/>
</svg>
