<svg width="511" height="157" viewBox="0 0 511 157" fill="none" xmlns="http://www.w3.org/2000/svg">
<g filter="url(#filter0_d_321_64)">
<path d="M458 23C474.569 23 488 36.4315 488 53L488 103C488 119.569 474.569 133 458 133L257 133L257 23L458 23Z" fill="white"/>
</g>
<g filter="url(#filter1_d_321_64)">
<path d="M342 23C358.569 23 372 36.4315 372 53L372 103C372 119.569 358.569 133 342 133L141 133L141 23L342 23Z" fill="#DBDBDB"/>
</g>
<g filter="url(#filter2_d_321_64)">
<path d="M228 23C244.569 23 258 36.4315 258 53L258 103C258 119.569 244.569 133 228 133L62 133L62 23L228 23Z" fill="#6F5F5A"/>
</g>
<g filter="url(#filter3_d_321_64)">
<rect x="143" y="23" width="111" height="120" rx="30" transform="rotate(90 143 23)" fill="black"/>
</g>
<path d="M413.78 80.328L411.876 80.328L411.524 82.472L413.444 82.472L413.316 83.208L411.396 83.208L410.9 86.2L410.1 86.2L410.596 83.208L408.132 83.208L407.636 86.2L406.836 86.2L407.332 83.208L405.428 83.208L405.54 82.472L407.46 82.472L407.812 80.328L405.892 80.328L406.004 79.592L407.94 79.592L408.436 76.6L409.236 76.6L408.74 79.592L411.204 79.592L411.7 76.6L412.5 76.6L412.004 79.592L413.908 79.592L413.78 80.328ZM410.724 82.472L411.076 80.328L408.612 80.328L408.26 82.472L410.724 82.472ZM422.077 76.6L416.717 76.6L416.717 81.08L421.885 81.08L421.885 81.88L416.717 81.88L416.717 87L415.869 87L415.869 75.8L422.077 75.8L422.077 76.6ZM430.358 76.6L424.998 76.6L424.998 81.08L430.166 81.08L430.166 81.88L424.998 81.88L424.998 87L424.15 87L424.15 75.8L430.358 75.8L430.358 76.6ZM438.639 76.6L433.279 76.6L433.279 81.08L438.447 81.08L438.447 81.88L433.279 81.88L433.279 87L432.431 87L432.431 75.8L438.639 75.8L438.639 76.6ZM446.92 76.6L441.56 76.6L441.56 81.08L446.728 81.08L446.728 81.88L441.56 81.88L441.56 87L440.712 87L440.712 75.8L446.92 75.8L446.92 76.6ZM455.202 76.6L449.842 76.6L449.842 81.08L455.01 81.08L455.01 81.88L449.842 81.88L449.842 87L448.994 87L448.994 75.8L455.202 75.8L455.202 76.6ZM463.483 76.6L458.123 76.6L458.123 81.08L463.291 81.08L463.291 81.88L458.123 81.88L458.123 87L457.275 87L457.275 75.8L463.483 75.8L463.483 76.6Z" fill="black"/>
<path d="M288.233 80.328L286.329 80.328L285.977 82.472L287.897 82.472L287.769 83.208L285.849 83.208L285.353 86.2L284.553 86.2L285.049 83.208L282.585 83.208L282.089 86.2L281.289 86.2L281.785 83.208L279.881 83.208L279.993 82.472L281.913 82.472L282.265 80.328L280.345 80.328L280.457 79.592L282.393 79.592L282.889 76.6L283.689 76.6L283.193 79.592L285.657 79.592L286.153 76.6L286.953 76.6L286.457 79.592L288.361 79.592L288.233 80.328ZM285.177 82.472L285.529 80.328L283.065 80.328L282.713 82.472L285.177 82.472ZM294.53 75.8C297.618 75.8 299.81 78.312 299.81 81.4C299.81 84.488 297.618 87 294.53 87L290.322 87L290.322 75.8L294.53 75.8ZM294.53 86.2C297.17 86.2 298.978 84.056 298.978 81.4C298.978 78.744 297.17 76.6 294.53 76.6L291.17 76.6L291.17 86.2L294.53 86.2ZM307.915 81.192C309.035 81.624 309.835 82.664 309.835 83.944C309.835 85.64 308.475 87 306.779 87L301.947 87L301.947 75.8L306.411 75.8C308.043 75.8 309.355 77.128 309.355 78.744C309.355 79.832 308.779 80.728 307.915 81.192ZM306.411 76.6L302.795 76.6L302.795 80.888L306.411 80.888C307.563 80.888 308.507 79.928 308.507 78.744C308.507 77.56 307.563 76.6 306.411 76.6ZM306.779 86.2C307.995 86.2 308.987 85.192 308.987 83.944C308.987 82.696 307.995 81.688 306.779 81.688L302.795 81.688L302.795 86.2L306.779 86.2ZM316.123 75.8C319.211 75.8 321.403 78.312 321.403 81.4C321.403 84.488 319.211 87 316.123 87L311.915 87L311.915 75.8L316.123 75.8ZM316.123 86.2C318.763 86.2 320.571 84.056 320.571 81.4C320.571 78.744 318.763 76.6 316.123 76.6L312.763 76.6L312.763 86.2L316.123 86.2ZM329.508 81.192C330.628 81.624 331.428 82.664 331.428 83.944C331.428 85.64 330.068 87 328.372 87L323.54 87L323.54 75.8L328.004 75.8C329.636 75.8 330.948 77.128 330.948 78.744C330.948 79.832 330.372 80.728 329.508 81.192ZM328.004 76.6L324.388 76.6L324.388 80.888L328.004 80.888C329.156 80.888 330.1 79.928 330.1 78.744C330.1 77.56 329.156 76.6 328.004 76.6ZM328.372 86.2C329.588 86.2 330.58 85.192 330.58 83.944C330.58 82.696 329.588 81.688 328.372 81.688L324.388 81.688L324.388 86.2L328.372 86.2ZM337.717 75.8C340.805 75.8 342.997 78.312 342.997 81.4C342.997 84.488 340.805 87 337.717 87L333.509 87L333.509 75.8L337.717 75.8ZM337.717 86.2C340.357 86.2 342.165 84.056 342.165 81.4C342.165 78.744 340.357 76.6 337.717 76.6L334.357 76.6L334.357 86.2L337.717 86.2ZM351.102 81.192C352.222 81.624 353.022 82.664 353.022 83.944C353.022 85.64 351.662 87 349.966 87L345.134 87L345.134 75.8L349.598 75.8C351.23 75.8 352.542 77.128 352.542 78.744C352.542 79.832 351.966 80.728 351.102 81.192ZM349.598 76.6L345.982 76.6L345.982 80.888L349.598 80.888C350.75 80.888 351.694 79.928 351.694 78.744C351.694 77.56 350.75 76.6 349.598 76.6ZM349.966 86.2C351.182 86.2 352.174 85.192 352.174 83.944C352.174 82.696 351.182 81.688 349.966 81.688L345.982 81.688L345.982 86.2L349.966 86.2Z" fill="black"/>
<path d="M170.936 80.328L169.032 80.328L168.68 82.472L170.6 82.472L170.472 83.208L168.552 83.208L168.056 86.2L167.256 86.2L167.752 83.208L165.288 83.208L164.792 86.2L163.992 86.2L164.488 83.208L162.584 83.208L162.696 82.472L164.616 82.472L164.968 80.328L163.048 80.328L163.16 79.592L165.096 79.592L165.592 76.6L166.392 76.6L165.896 79.592L168.36 79.592L168.856 76.6L169.656 76.6L169.16 79.592L171.064 79.592L170.936 80.328ZM167.88 82.472L168.232 80.328L165.768 80.328L165.416 82.472L167.88 82.472ZM175.921 79.8C178.097 79.8 179.681 81.304 179.681 83.496C179.681 85.672 178.097 87.176 175.921 87.176C173.745 87.176 172.161 85.672 172.161 83.496C172.161 82.616 172.417 81.864 172.849 81.256L176.609 75.8L177.569 75.8L174.705 79.976C175.089 79.864 175.489 79.8 175.921 79.8ZM175.921 86.36C177.697 86.36 178.833 85.16 178.833 83.496C178.833 81.816 177.697 80.616 175.921 80.616C174.145 80.616 173.025 81.816 173.025 83.496C173.025 85.16 174.145 86.36 175.921 86.36ZM187.827 76.6L182.467 76.6L182.467 81.08L187.635 81.08L187.635 81.88L182.467 81.88L182.467 87L181.619 87L181.619 75.8L187.827 75.8L187.827 76.6ZM192.764 80.36C194.78 80.36 196.492 81.608 196.492 83.768C196.492 85.928 194.78 87.176 192.764 87.176C191.164 87.176 189.74 86.392 189.228 84.92L189.948 84.504C190.316 85.704 191.388 86.36 192.764 86.36C194.428 86.36 195.644 85.384 195.644 83.768C195.644 82.152 194.428 81.176 192.764 81.176L189.772 81.176L190.156 75.8L196.076 75.8L196.076 76.6L190.908 76.6L190.652 80.36L192.764 80.36ZM204.764 76.6L199.404 76.6L199.404 81.08L204.572 81.08L204.572 81.88L199.404 81.88L199.404 87L198.556 87L198.556 75.8L204.764 75.8L204.764 76.6ZM209.701 80.36C211.717 80.36 213.429 81.608 213.429 83.768C213.429 85.928 211.717 87.176 209.701 87.176C208.101 87.176 206.677 86.392 206.165 84.92L206.885 84.504C207.253 85.704 208.325 86.36 209.701 86.36C211.365 86.36 212.581 85.384 212.581 83.768C212.581 82.152 211.365 81.176 209.701 81.176L206.709 81.176L207.093 75.8L213.013 75.8L213.013 76.6L207.845 76.6L207.589 80.36L209.701 80.36ZM222.873 87L221.785 84.152L216.169 84.152L215.081 87L214.185 87L218.537 75.8L219.433 75.8L223.769 87L222.873 87ZM216.489 83.352L221.481 83.352L218.985 76.84L216.489 83.352Z" fill="white"/>
<path d="M56.8893 80.328L54.9853 80.328L54.6333 82.472L56.5533 82.472L56.4253 83.208L54.5053 83.208L54.0093 86.2L53.2093 86.2L53.7053 83.208L51.2413 83.208L50.7453 86.2L49.9453 86.2L50.4413 83.208L48.5373 83.208L48.6493 82.472L50.5693 82.472L50.9213 80.328L49.0013 80.328L49.1133 79.592L51.0493 79.592L51.5453 76.6L52.3453 76.6L51.8493 79.592L54.3133 79.592L54.8093 76.6L55.6093 76.6L55.1133 79.592L57.0173 79.592L56.8893 80.328ZM53.8333 82.472L54.1853 80.328L51.7213 80.328L51.3693 82.472L53.8333 82.472ZM62.6259 87.176C59.9379 87.176 58.4339 84.856 58.4339 81.4C58.4339 77.944 59.9379 75.624 62.6259 75.624C65.3139 75.624 66.8179 77.944 66.8179 81.4C66.8179 84.856 65.3139 87.176 62.6259 87.176ZM62.6259 86.36C64.7059 86.36 65.9539 84.536 65.9539 81.4C65.9539 78.264 64.7059 76.44 62.6259 76.44C60.5459 76.44 59.2979 78.264 59.2979 81.4C59.2979 84.536 60.5459 86.36 62.6259 86.36ZM72.7041 87.176C70.0161 87.176 68.5121 84.856 68.5121 81.4C68.5121 77.944 70.0161 75.624 72.7041 75.624C75.3921 75.624 76.8961 77.944 76.8961 81.4C76.8961 84.856 75.3921 87.176 72.7041 87.176ZM72.7041 86.36C74.7841 86.36 76.0321 84.536 76.0321 81.4C76.0321 78.264 74.7841 76.44 72.7041 76.44C70.6241 76.44 69.3761 78.264 69.3761 81.4C69.3761 84.536 70.6241 86.36 72.7041 86.36ZM82.7822 87.176C80.0942 87.176 78.5902 84.856 78.5902 81.4C78.5902 77.944 80.0942 75.624 82.7822 75.624C85.4702 75.624 86.9742 77.944 86.9742 81.4C86.9742 84.856 85.4702 87.176 82.7822 87.176ZM82.7822 86.36C84.8622 86.36 86.1102 84.536 86.1102 81.4C86.1102 78.264 84.8622 76.44 82.7822 76.44C80.7022 76.44 79.4542 78.264 79.4542 81.4C79.4542 84.536 80.7022 86.36 82.7822 86.36ZM92.8603 87.176C90.1723 87.176 88.6683 84.856 88.6683 81.4C88.6683 77.944 90.1723 75.624 92.8603 75.624C95.5483 75.624 97.0523 77.944 97.0523 81.4C97.0523 84.856 95.5483 87.176 92.8603 87.176ZM92.8603 86.36C94.9403 86.36 96.1883 84.536 96.1883 81.4C96.1883 78.264 94.9403 76.44 92.8603 76.44C90.7803 76.44 89.5323 78.264 89.5323 81.4C89.5323 84.536 90.7803 86.36 92.8603 86.36ZM102.938 87.176C100.25 87.176 98.7464 84.856 98.7464 81.4C98.7464 77.944 100.25 75.624 102.938 75.624C105.626 75.624 107.13 77.944 107.13 81.4C107.13 84.856 105.626 87.176 102.938 87.176ZM102.938 86.36C105.018 86.36 106.266 84.536 106.266 81.4C106.266 78.264 105.018 76.44 102.938 76.44C100.858 76.44 99.6104 78.264 99.6104 81.4C99.6104 84.536 100.858 86.36 102.938 86.36ZM113.017 87.176C110.329 87.176 108.825 84.856 108.825 81.4C108.825 77.944 110.329 75.624 113.017 75.624C115.705 75.624 117.209 77.944 117.209 81.4C117.209 84.856 115.705 87.176 113.017 87.176ZM113.017 86.36C115.097 86.36 116.345 84.536 116.345 81.4C116.345 78.264 115.097 76.44 113.017 76.44C110.937 76.44 109.689 78.264 109.689 81.4C109.689 84.536 110.937 86.36 113.017 86.36Z" fill="white"/>
<defs>
<filter id="filter0_d_321_64" x="234" y="0" width="277" height="156" filterUnits="userSpaceOnUse" color-interpolation-filters="sRGB">
<feFlood flood-opacity="0" result="BackgroundImageFix"/>
<feColorMatrix in="SourceAlpha" type="matrix" values="0 0 0 0 0 0 0 0 0 0 0 0 0 0 0 0 0 0 127 0" result="hardAlpha"/>
<feMorphology radius="3" operator="dilate" in="SourceAlpha" result="effect1_dropShadow_321_64"/>
<feOffset/>
<feGaussianBlur stdDeviation="10"/>
<feComposite in2="hardAlpha" operator="out"/>
<feColorMatrix type="matrix" values="0 0 0 0 0 0 0 0 0 0 0 0 0 0 0 0 0 0 0.25 0"/>
<feBlend mode="normal" in2="BackgroundImageFix" result="effect1_dropShadow_321_64"/>
<feBlend mode="normal" in="SourceGraphic" in2="effect1_dropShadow_321_64" result="shape"/>
</filter>
<filter id="filter1_d_321_64" x="118" y="0" width="277" height="156" filterUnits="userSpaceOnUse" color-interpolation-filters="sRGB">
<feFlood flood-opacity="0" result="BackgroundImageFix"/>
<feColorMatrix in="SourceAlpha" type="matrix" values="0 0 0 0 0 0 0 0 0 0 0 0 0 0 0 0 0 0 127 0" result="hardAlpha"/>
<feMorphology radius="3" operator="dilate" in="SourceAlpha" result="effect1_dropShadow_321_64"/>
<feOffset/>
<feGaussianBlur stdDeviation="10"/>
<feComposite in2="hardAlpha" operator="out"/>
<feColorMatrix type="matrix" values="0 0 0 0 0 0 0 0 0 0 0 0 0 0 0 0 0 0 0.25 0"/>
<feBlend mode="normal" in2="BackgroundImageFix" result="effect1_dropShadow_321_64"/>
<feBlend mode="normal" in="SourceGraphic" in2="effect1_dropShadow_321_64" result="shape"/>
</filter>
<filter id="filter2_d_321_64" x="39" y="0" width="242" height="156" filterUnits="userSpaceOnUse" color-interpolation-filters="sRGB">
<feFlood flood-opacity="0" result="BackgroundImageFix"/>
<feColorMatrix in="SourceAlpha" type="matrix" values="0 0 0 0 0 0 0 0 0 0 0 0 0 0 0 0 0 0 127 0" result="hardAlpha"/>
<feMorphology radius="3" operator="dilate" in="SourceAlpha" result="effect1_dropShadow_321_64"/>
<feOffset/>
<feGaussianBlur stdDeviation="10"/>
<feComposite in2="hardAlpha" operator="out"/>
<feColorMatrix type="matrix" values="0 0 0 0 0 0 0 0 0 0 0 0 0 0 0 0 0 0 0.25 0"/>
<feBlend mode="normal" in2="BackgroundImageFix" result="effect1_dropShadow_321_64"/>
<feBlend mode="normal" in="SourceGraphic" in2="effect1_dropShadow_321_64" result="shape"/>
</filter>
<filter id="filter3_d_321_64" x="0" y="0" width="166" height="157" filterUnits="userSpaceOnUse" color-interpolation-filters="sRGB">
<feFlood flood-opacity="0" result="BackgroundImageFix"/>
<feColorMatrix in="SourceAlpha" type="matrix" values="0 0 0 0 0 0 0 0 0 0 0 0 0 0 0 0 0 0 127 0" result="hardAlpha"/>
<feMorphology radius="3" operator="dilate" in="SourceAlpha" result="effect1_dropShadow_321_64"/>
<feOffset/>
<feGaussianBlur stdDeviation="10"/>
<feComposite in2="hardAlpha" operator="out"/>
<feColorMatrix type="matrix" values="0 0 0 0 0 0 0 0 0 0 0 0 0 0 0 0 0 0 0.25 0"/>
<feBlend mode="normal" in2="BackgroundImageFix" result="effect1_dropShadow_321_64"/>
<feBlend mode="normal" in="SourceGraphic" in2="effect1_dropShadow_321_64" result="shape"/>
</filter>
</defs>
</svg>
