<svg width="23" height="20" viewBox="0 0 23 20" fill="none" xmlns="http://www.w3.org/2000/svg">
<g clip-path="url(#clip0_15_2)">
<path d="M22.0911 0H0.908927C0.406941 0 0 0.45511 0 1.01652C0 1.57792 0.406941 2.03303 0.908927 2.03303H22.0911C22.5931 2.03303 23 1.57792 23 1.01652C23 0.45511 22.5931 0 22.0911 0Z" fill="white"/>
<path d="M22.0911 8.98425H0.908927C0.406941 8.98425 0 9.43936 0 10.0008C0 10.5622 0.406941 11.0173 0.908927 11.0173H22.0911C22.5931 11.0173 23 10.5622 23 10.0008C23 9.43936 22.5931 8.98425 22.0911 8.98425Z" fill="white"/>
<path d="M22.0911 17.967H0.908927C0.406941 17.967 0 18.4221 0 18.9835C0 19.5449 0.406941 20 0.908927 20H22.0911C22.5931 20 23 19.5449 23 18.9835C23 18.4221 22.5931 17.967 22.0911 17.967Z" fill="white"/>
</g>
<defs>
<clipPath id="clip0_15_2">
<rect width="23" height="20" fill="white"/>
</clipPath>
</defs>
</svg>
