<svg width="512" height="340" viewBox="0 0 512 340" fill="none" xmlns="http://www.w3.org/2000/svg">
<g clip-path="url(#clip0_312_63)">
<path d="M511.94 113.65V224.65C344.1 225.53 168.16 225.53 0.0700073 224.65V113.65L1.03001 111.65H510.69L511.94 113.65Z" fill="#E5211C"/>
<path d="M511.94 225.65V305.65C513.18 319.05 495.14 338.2 482.37 338.35C331.13 340.07 180.05 340.16 28.82 338.16C16.65 338 -1.25998 318.5 0.0800217 305.65V225.65C167.92 224.77 343.86 224.77 511.95 225.65H511.94Z" fill="#F6E94C"/>
<path d="M511.94 33.65V113.65H0.07003V32.65C-0.63997 19.69 17.22 1.00997 29.63 0.929974C180.62 -0.0700262 331.39 -0.520026 482.39 0.929974C495.05 1.04997 513.11 20.37 511.94 33.65Z" fill="black"/>
</g>
<defs>
<clipPath id="clip0_312_63">
<rect width="512" height="339.65" fill="white"/>
</clipPath>
</defs>
</svg>
