<svg width="11" height="22" viewBox="0 0 11 22" fill="none" xmlns="http://www.w3.org/2000/svg">
<path d="M7.33971 12.2805V20.8555C7.33971 20.9872 7.09762 21.115 6.96788 21.1299C5.87873 21.2566 4.55196 21.0324 3.43646 21.1299C3.23016 21.1637 3.06463 20.8629 3.06463 20.7064V12.2805H0.305709C0.141665 12.2805 0.0427412 12.0026 0.0298166 11.8604C-0.0661243 10.8016 0.106867 9.60108 0.0313079 8.52634C0.00197882 8.40455 0.211259 8.15451 0.305709 8.15451H3.06463C3.09445 7.37157 3.02536 6.57323 3.06264 5.79128C3.13969 4.16775 3.63679 2.59044 5.03763 1.65191C6.75959 0.497638 8.68636 0.923655 10.6479 0.844616C10.7901 0.846604 10.8885 0.97088 10.9581 1.08124C10.9064 2.1172 11.062 3.2839 10.9705 4.30445C10.9512 4.52119 10.8811 4.68424 10.642 4.72152C9.92763 4.83337 8.93889 4.67976 8.16341 4.77819C7.91039 4.8105 7.62505 4.9815 7.4953 5.20371C7.43615 5.30512 7.33872 5.69037 7.33872 5.79278V8.07945L7.41328 8.15401H10.5947C10.7528 8.15401 10.8532 8.49204 10.8681 8.62626C10.9507 9.36794 10.9333 11.0009 10.8696 11.76C10.8532 11.9539 10.8 12.28 10.5445 12.28H7.33822L7.33971 12.2805Z" fill="white"/>
</svg>
