<svg width="30" height="25" viewBox="0 0 30 25" fill="none" xmlns="http://www.w3.org/2000/svg">
<g clip-path="url(#clip0_489_2)">
<path d="M23.1996 4.27101L19.1745 0.229551C18.6863 -0.260659 17.8513 0.0865287 17.8513 0.779831V22.3148C17.8513 23.7979 19.0484 25 20.5254 25C22.0025 25 23.1996 23.7979 23.1996 22.3148V20.1526V11.9116L25.4123 14.1335C26.4566 15.1822 28.1498 15.1822 29.1938 14.1335L29.2166 14.1106C30.261 13.0619 30.261 11.3617 29.2166 10.3134L23.1996 4.27137V4.27101Z" fill="white"/>
<path d="M6.80039 20.729L10.8251 24.7704C11.3133 25.2607 12.1483 24.9135 12.1483 24.2202V2.68525C12.1483 1.20211 10.9512 0 9.47418 0C7.99717 0 6.80003 1.20211 6.80003 2.68525V4.84739V13.0884L4.58736 10.8665C3.54298 9.81779 1.84982 9.81779 0.805799 10.8665L0.78301 10.8894C-0.261369 11.9381 -0.261369 13.6383 0.78301 14.6866L6.80003 20.7286L6.80039 20.729Z" fill="white"/>
</g>
<defs>
<clipPath id="clip0_489_2">
<rect width="30" height="25" fill="white"/>
</clipPath>
</defs>
</svg>
