<svg width="512" height="340" viewBox="0 0 512 340" fill="none" xmlns="http://www.w3.org/2000/svg">
<g clip-path="url(#clip0_312_63)">
<path d="M511.94 113.65V224.65C344.1 225.53 168.16 225.53 0.0703125 224.65V113.65L1.03031 111.65H510.69L511.94 113.65Z" fill="#E5211C"/>
<path d="M511.941 225.65V305.65C513.181 319.05 495.141 338.2 482.371 338.35C331.131 340.07 180.051 340.16 28.8208 338.16C16.6508 338 -1.25918 318.5 0.0808151 305.65V225.65C167.921 224.77 343.861 224.77 511.951 225.65H511.941Z" fill="#F6E94C"/>
<path d="M511.939 33.65V113.65H0.0693586V32.65C-0.640641 19.69 17.2194 1.00997 29.6294 0.929974C180.619 -0.0700262 331.389 -0.520026 482.389 0.929974C495.049 1.04997 513.109 20.37 511.939 33.65Z" fill="black"/>
</g>
<defs>
<clipPath id="clip0_312_63">
<rect width="512" height="339.65" fill="white"/>
</clipPath>
</defs>
</svg>
