<svg width="20" height="20" viewBox="0 0 20 20" fill="none" xmlns="http://www.w3.org/2000/svg">
<path d="M13.1778 0.0479034C14.7604 0.0963411 16.4106 0.23306 17.7366 1.19713C19.2672 2.31002 19.8798 4.05378 19.9618 5.8948C19.8747 8.5538 20.079 11.287 19.9638 13.9374C19.818 17.296 18.105 19.5363 14.6397 19.8597C12.1801 20.0894 9.13676 19.9886 6.64859 19.8972C4.93824 19.8343 3.52206 19.7562 2.12503 18.6546C0.403353 17.2976 0.101366 15.3464 0.0361241 13.2773C0.179109 10.5905 -0.198668 7.66044 0.159576 5.00613C0.668227 1.23931 3.34236 0.156107 6.78337 0.0479034C8.8418 -0.0169406 11.119 -0.0149875 13.1778 0.0479034ZM6.65835 1.88541C4.13229 1.97486 2.28989 2.53932 1.95353 5.35574C1.74608 7.09247 1.86485 9.00263 1.87227 10.7491C1.88633 14.0421 1.3097 17.6659 5.63363 18.073C6.14736 18.1214 6.68023 18.0952 7.19435 18.1105C9.44421 18.1785 11.7347 18.2031 13.9775 18.0738C16.9009 17.905 17.9745 16.7503 18.13 13.8589C18.2667 11.3194 18.2628 8.70654 18.13 6.16629C17.9616 2.94479 16.7118 2.0526 13.5857 1.91432C11.3546 1.81549 8.89571 1.80611 6.65835 1.88541Z" fill="white"/>
<path d="M9.85435 4.87713C13.8653 4.75877 16.4735 9.08926 14.4556 12.5694C12.5207 15.9073 7.65722 15.9553 5.63473 12.6709C3.57981 9.33379 5.94297 4.99276 9.85396 4.87713H9.85435ZM9.65979 6.70292C7.365 6.91776 6.01563 9.44863 7.04817 11.4959C8.20963 13.799 11.5651 13.9209 12.8715 11.6901C14.2607 9.31738 12.3941 6.44706 9.65979 6.70292Z" fill="white"/>
<path d="M15.3412 3.48912C16.8656 3.47154 16.9426 5.73522 15.4967 5.87506C13.7989 6.03913 13.6875 3.50826 15.3412 3.48912Z" fill="white"/>
</svg>
