<svg width="20" height="20" viewBox="0 0 20 20" fill="none" xmlns="http://www.w3.org/2000/svg">
<path d="M20.0007 12.3439V20.0001H15.8605L15.8621 12.5181C15.7554 10.9099 15.1933 9.84275 13.4175 9.95916C11.8039 10.065 11.3 11.3115 11.2109 12.7525L11.2125 20.0001H7.07227V6.67988H11.0562V8.47674C11.1277 8.49198 11.1328 8.45526 11.1668 8.41151C11.2968 8.24432 11.3945 8.02831 11.5441 7.85135C12.7699 6.40019 14.732 6.0998 16.5257 6.46386C19.3905 7.0455 19.9835 9.6865 19.9597 12.2494L20.0003 12.3439H20.0007Z" fill="white"/>
<path d="M4.45466 6.67969H0.353516V19.9999H4.45466V6.67969Z" fill="white"/>
<path d="M2.54158 0C2.69978 0.0597653 2.88025 0.0527341 3.05017 0.0968745C4.72789 0.530466 5.32789 2.6492 4.21969 3.96365C3.04548 5.35661 0.796666 4.95544 0.168155 3.25233C0.0806553 3.01483 0.0591711 2.78163 0.0025308 2.53905C0.00799952 2.44921 -0.00528165 2.35507 0.0025308 2.26561C0.0927646 1.25742 0.776354 0.371873 1.75994 0.0972651L2.26814 0H2.54158Z" fill="white"/>
</svg>
