<!-- <svg width="1112" height="417" viewBox="0 0 1112 417" fill="none" xmlns="http://www.w3.org/2000/svg"> -->
<svg width="418" height="156" viewBox="0 0 1112 417" fill="none" xmlns="http://www.w3.org/2000/svg">
<g clip-path="url(#clip0_8_150)">
<path d="M289.18 277.83V341H0V292.94L176.81 155.61H89.43V92.44H274.58L289.17 140.45L113.01 277.83H289.17H289.18Z" fill="white"/>
<path d="M431.371 65.65C473.091 65.65 507.981 80.11 536.031 109.03C564.081 137.95 578.111 173.84 578.111 216.72C578.111 259.6 564.081 295.49 536.031 324.4C507.981 353.31 473.081 367.78 431.371 367.78L306.211 339.63V65.65H431.371ZM431.371 284.05C448.921 284.05 463.381 277.79 474.751 265.28C486.111 252.76 491.801 236.58 491.801 216.73C491.801 196.88 486.111 180.69 474.751 168.17C463.381 155.66 448.921 149.4 431.371 149.4H396.841V284.06H431.371V284.05Z" fill="white"/>
<path d="M696.8 288.36H796.281V367.78H610.48V65.65H806.86V144.2H696.8V177H796.07V254.69H696.8V288.35V288.36Z" fill="white"/>
<path d="M918.211 367.78L821.961 65.66H916.911L966.541 257.73L1016.18 65.66H1111.13L1014.88 367.78H918.201H918.211Z" fill="white"/>
<path d="M480.681 404.8C480.471 403.27 479.911 401.84 479.081 400.59C477.751 398.46 474.571 395.83 450.311 377.96C438.071 368.95 425.781 360.03 424.711 359.25L420.401 356C422.531 341.07 424.591 307.61 407.311 278.5L396.491 260.27L394.901 264.68C393.071 258.22 390.741 251.17 387.771 243.73L387.651 243.42L387.511 243.12C381.921 231.42 375.471 219.06 368.341 206.38C368.201 206.13 368.061 205.89 367.921 205.64L367.681 205.22L353.731 180.66L352.091 190.57C346.631 177.08 338.241 161.11 325.361 143.41L325.261 143.27L325.151 143.13C322.861 140.21 320.441 137.16 317.931 134.06L317.731 133.81L317.511 133.57C315.701 131.6 310.171 125.62 307.881 122.04L307.711 121.78L307.531 121.53L306.711 120.41L306.421 120.19C296.801 108.89 286.801 97.84 276.671 87.34L249.581 59.24L251.081 64.77C245.911 58.39 239.881 52.13 232.941 45.87C218.561 32.19 202.431 20.76 185.801 9.27999L172.341 -0.0100098L170.211 16.21C164.381 60.63 168.661 110.49 171.741 136.26C171.871 137.38 172.051 138.5 172.261 139.62L165.891 132.21L176.691 173.88C183.191 198.96 192.491 222.08 204.341 242.59C207.531 248.12 210.821 253.59 214.121 258.85L214.191 258.97L214.271 259.08L226.151 276.94L226.391 277.3L226.661 277.64C235.161 288.3 244.361 296.41 253.391 302.57L243.621 302.09L261.551 320.34C298.641 358.09 339.581 377.5 386.611 379.6C392.721 384.56 399.241 389.52 406.031 394.37L406.061 394.39L406.091 394.41C433.901 413.96 459.421 416.18 466.581 416.4C467.121 416.42 467.621 416.42 468.071 416.42C471.001 416.42 474.101 416.24 476.881 414.09C479.711 411.9 481.181 408.33 480.701 404.78L480.681 404.8Z" fill="white"/>
<path d="M470.699 406.1C470.699 406.1 470.729 406.17 470.739 406.21C470.789 406.17 470.789 406.14 470.699 406.1Z" fill="#098EFF"/>
<path d="M470.24 405.96C469.81 405.84 469.14 405.68 468.25 405.47C469.13 405.68 469.81 405.85 470.24 405.96Z" fill="#00539E"/>
<path d="M470.57 406.06C470.48 406.03 470.37 406 470.24 405.96C470.38 406 470.49 406.03 470.57 406.06Z" fill="#00539E"/>
<path d="M345.279 321.42C343.969 320.04 342.659 318.64 341.359 317.25C342.659 318.65 343.959 320.04 345.279 321.42Z" fill="#00539E"/>
<path d="M330.95 305.75C329.88 304.53 328.81 303.31 327.75 302.09C328.81 303.31 329.88 304.54 330.95 305.75Z" fill="#00539E"/>
<path d="M340.44 316.26C339.23 314.95 338.02 313.63 336.82 312.31C338.02 313.63 339.22 314.95 340.44 316.26Z" fill="#00539E"/>
<path d="M416.401 384.8C416.061 384.57 415.721 384.34 415.391 384.11C415.721 384.34 416.061 384.58 416.401 384.8Z" fill="#00539E"/>
<path d="M226.15 53.21C212.24 39.97 196.23 28.62 180.13 17.52C174.72 58.71 178.11 105.26 181.67 135.08C185.69 168.77 233.96 196.6 235.55 197.14C235.55 197.14 205.35 193.43 186.37 171.37C192.14 193.61 200.65 216.2 213 237.59C216.17 243.09 219.37 248.4 222.59 253.55L234.47 271.41C265.52 310.34 306.76 312.07 306.76 312.07C285.98 313.55 274.74 313.64 268.68 313.34C304.8 350.1 344.59 368.52 390.33 369.74C397.09 375.33 404.26 380.84 411.84 386.25C435.53 402.91 458.05 406.16 466.88 406.43C469.2 406.5 470.56 406.36 470.76 406.21C470.75 406.17 470.74 406.14 470.72 406.1C470.69 406.09 470.64 406.07 470.59 406.05C470.5 406.02 470.39 405.99 470.26 405.95C469.83 405.83 469.16 405.67 468.27 405.46C468.22 405.45 468.18 405.44 468.13 405.43C460.04 403.48 435.24 397.51 416.42 384.8C416.08 384.57 415.74 384.34 415.41 384.11C415.39 384.1 415.37 384.09 415.36 384.07C415.04 383.84 414.72 383.62 414.4 383.39C414.37 383.37 414.34 383.35 414.32 383.33C414.31 383.33 414.3 383.31 414.28 383.3C408.51 378.91 402.83 374.41 397.24 369.81C395.08 368.04 392.95 366.24 390.82 364.44C390.82 364.44 390.79 364.42 390.78 364.4C375.05 351.07 360.07 336.91 345.88 322C345.69 321.8 345.5 321.61 345.31 321.41C344 320.03 342.69 318.63 341.39 317.24C341.08 316.91 340.77 316.58 340.47 316.25C339.26 314.94 338.05 313.62 336.85 312.3C336.46 311.87 336.07 311.45 335.69 311.02C334.55 309.76 333.43 308.5 332.3 307.23C331.86 306.73 331.41 306.24 330.97 305.74C329.9 304.52 328.83 303.3 327.77 302.08C327.28 301.52 326.8 300.96 326.31 300.4C325.29 299.22 324.28 298.03 323.27 296.84C322.75 296.23 322.24 295.62 321.72 295.01C320.75 293.85 319.78 292.69 318.82 291.52C318.28 290.87 317.74 290.21 317.2 289.55C316.27 288.41 315.34 287.27 314.42 286.12C313.86 285.43 313.3 284.74 312.75 284.04C311.85 282.92 310.96 281.79 310.07 280.66C309.5 279.93 308.92 279.2 308.36 278.47C307.5 277.36 306.64 276.25 305.78 275.14C305.19 274.38 304.61 273.61 304.03 272.85C303.2 271.76 302.37 270.66 301.55 269.57C300.95 268.77 300.36 267.98 299.77 267.18C298.97 266.1 298.17 265.02 297.38 263.94C296.78 263.11 296.17 262.28 295.57 261.46C294.8 260.39 294.03 259.33 293.26 258.25C292.65 257.39 292.04 256.53 291.44 255.67C290.7 254.61 289.95 253.56 289.21 252.5C288.59 251.61 287.98 250.72 287.37 249.83C286.65 248.79 285.94 247.75 285.23 246.7C284.61 245.78 283.99 244.86 283.37 243.94C282.68 242.91 281.99 241.88 281.31 240.85C280.68 239.9 280.06 238.95 279.44 237.99C278.78 236.98 278.12 235.96 277.46 234.94C276.83 233.96 276.2 232.97 275.57 231.98C274.94 230.98 274.3 229.98 273.67 228.98C273.03 227.97 272.41 226.95 271.77 225.93C271.16 224.95 270.55 223.97 269.95 222.98C269.31 221.93 268.67 220.87 268.03 219.81C267.45 218.85 266.87 217.89 266.3 216.93C265.64 215.82 264.99 214.71 264.34 213.6C263.8 212.68 263.26 211.76 262.72 210.84C262.03 209.65 261.36 208.46 260.68 207.26C260.19 206.41 259.7 205.55 259.22 204.7C258.46 203.35 257.71 201.99 256.96 200.63C256.57 199.92 256.17 199.22 255.79 198.51C254.66 196.44 253.54 194.36 252.43 192.28C233.98 158.07 217.51 122.43 205.79 85.34C219.99 114.58 241.07 157.37 257.69 184.77C287.91 240.34 333.22 298.02 380.57 340.72C322.46 273.8 349.55 228.23 312.07 150.51C308.31 143.31 304.14 135.64 299.51 127.43C290.27 116.54 280.25 105.39 269.52 94.26C275.95 117.92 271.61 134.45 265.97 146.87C268.1 106.13 255.88 79.93 226.2 53.19L226.15 53.21ZM279.91 197.29C279.64 196.95 279.37 196.62 279.11 196.28C275.39 190.89 271.7 185.27 268.04 179.43L279.91 197.29Z" fill="#0A84FF"/>
<path d="M415.339 384.07C415.019 383.84 414.699 383.62 414.379 383.39C414.699 383.62 415.019 383.85 415.339 384.07Z" fill="#00539E"/>
<path d="M256.93 200.66C256.54 199.95 256.14 199.25 255.76 198.54C256.15 199.25 256.54 199.95 256.93 200.66Z" fill="#00539E"/>
<path d="M279.4 238.01C278.74 237 278.08 235.98 277.42 234.96C278.08 235.98 278.74 236.99 279.4 238.01Z" fill="#00539E"/>
<path d="M380.53 340.75C333.19 298.05 287.88 240.37 257.65 184.8C241.03 157.4 219.96 114.61 205.75 85.37C217.48 122.46 233.94 158.1 252.39 192.31C253.5 194.4 254.62 196.47 255.75 198.54C256.14 199.25 256.53 199.95 256.92 200.66C257.67 202.02 258.42 203.38 259.18 204.73C259.66 205.59 260.15 206.44 260.64 207.29C261.32 208.48 262 209.68 262.68 210.87C263.21 211.79 263.76 212.71 264.3 213.63C264.95 214.74 265.6 215.86 266.26 216.96C266.83 217.92 267.41 218.88 267.99 219.84C268.63 220.9 269.26 221.96 269.91 223.01C270.51 224 271.12 224.98 271.73 225.96C272.36 226.98 272.99 228 273.63 229.01C274.26 230.01 274.9 231.01 275.53 232.01C276.16 233 276.78 233.98 277.42 234.97C278.08 235.99 278.74 237 279.4 238.02C280.02 238.97 280.64 239.93 281.27 240.88C281.95 241.91 282.64 242.94 283.33 243.97C283.95 244.89 284.57 245.81 285.19 246.73C285.9 247.78 286.62 248.82 287.33 249.86C287.94 250.75 288.55 251.64 289.17 252.53C289.91 253.59 290.65 254.65 291.4 255.7C292.01 256.56 292.61 257.42 293.22 258.28C293.98 259.35 294.75 260.42 295.53 261.49C296.13 262.32 296.73 263.15 297.34 263.97C298.13 265.05 298.93 266.13 299.73 267.21C300.32 268.01 300.92 268.81 301.51 269.6C302.33 270.7 303.16 271.79 303.99 272.88C304.57 273.65 305.16 274.41 305.74 275.17C306.6 276.28 307.45 277.39 308.32 278.5C308.89 279.23 309.46 279.96 310.03 280.69C310.92 281.82 311.81 282.95 312.71 284.07C313.27 284.76 313.82 285.46 314.38 286.15C315.3 287.29 316.23 288.44 317.16 289.58C317.7 290.24 318.24 290.89 318.78 291.55C319.74 292.72 320.71 293.88 321.68 295.04C322.19 295.65 322.71 296.26 323.23 296.87C324.24 298.06 325.25 299.25 326.27 300.43C326.75 300.99 327.24 301.55 327.73 302.11C328.79 303.33 329.86 304.56 330.93 305.77C331.37 306.27 331.81 306.76 332.26 307.26C333.39 308.53 334.51 309.79 335.65 311.05C336.04 311.48 336.43 311.9 336.81 312.33C338.01 313.65 339.21 314.97 340.43 316.28C340.74 316.61 341.05 316.94 341.35 317.27C342.65 318.67 343.95 320.06 345.27 321.44C345.46 321.64 345.65 321.83 345.84 322.03C360.03 336.93 375.01 351.1 390.74 364.43C390.75 364.44 390.77 364.45 390.78 364.47C392.91 366.27 395.05 368.07 397.2 369.84C402.79 374.44 408.47 378.94 414.24 383.33C414.25 383.33 414.26 383.35 414.28 383.36C414.31 383.38 414.34 383.4 414.36 383.42C414.68 383.65 415 383.88 415.32 384.1C415.34 384.11 415.36 384.12 415.37 384.14C415.7 384.37 416.04 384.61 416.38 384.83C435.19 397.53 460 403.51 468.09 405.46C468.14 405.47 468.18 405.48 468.23 405.49C469.11 405.7 469.79 405.87 470.22 405.98C470.36 406.02 470.47 406.05 470.55 406.08C470.6 406.1 470.65 406.11 470.68 406.13C469.74 404.32 418.74 367.33 418.74 367.33L409.5 360.36C409.59 359.93 409.67 359.48 409.76 359.02C412.79 342.76 414.55 310.36 398.69 283.64C398.25 284.86 397.36 287.6 396.3 290.69C395.97 291.64 395.63 292.61 395.28 293.59C394.98 294.49 394.68 295.31 394.39 296.01C393.41 298.62 392.42 301.01 391.57 302.48C391.57 302.48 390.88 278.64 378.45 247.46C373.14 236.35 366.9 224.32 359.59 211.31C359.38 210.94 359.16 210.56 358.95 210.19C358.93 210.32 356.15 226.97 352.14 235.1C352.14 235.1 354.22 200.14 317.24 149.31C314.94 146.36 312.56 143.38 310.13 140.37C305.3 135.13 301.55 130.76 299.44 127.47C304.3 135.49 308.43 143.16 312 150.55C349.48 228.26 322.39 273.84 380.5 340.76L380.53 340.75Z" fill="#00539E"/>
<path d="M260.649 207.29C260.159 206.44 259.669 205.58 259.189 204.73C259.669 205.59 260.159 206.44 260.649 207.29Z" fill="#00539E"/>
<path d="M264.319 213.63C263.779 212.71 263.239 211.79 262.699 210.87C263.229 211.79 263.779 212.71 264.319 213.63Z" fill="#00539E"/>
<path d="M416.41 384.81C435.22 397.51 460.03 403.49 468.12 405.44C460.03 403.49 435.23 397.51 416.41 384.81Z" fill="#00539E"/>
<path d="M317.18 289.56C316.25 288.42 315.32 287.28 314.4 286.13C315.32 287.27 316.25 288.42 317.18 289.56Z" fill="#00539E"/>
<path d="M287.329 249.85C286.609 248.81 285.899 247.77 285.189 246.72C285.899 247.77 286.619 248.81 287.329 249.85Z" fill="#00539E"/>
<path d="M295.529 261.47C294.759 260.4 293.989 259.33 293.219 258.26C293.979 259.33 294.749 260.4 295.529 261.47Z" fill="#00539E"/>
<path d="M291.4 255.69C290.66 254.63 289.91 253.58 289.17 252.52C289.91 253.58 290.65 254.64 291.4 255.69Z" fill="#00539E"/>
<path d="M303.99 272.87C303.16 271.78 302.33 270.68 301.51 269.59C302.33 270.69 303.16 271.78 303.99 272.87Z" fill="#00539E"/>
</g>
<defs>
<clipPath id="clip0_8_150">
<rect width="1111.14" height="416.45" fill="white"/>
</clipPath>
</defs>
</svg>
