<svg width="241" height="50" viewBox="0 0 241 50" fill="none" xmlns="http://www.w3.org/2000/svg">
<path d="M27.5854 40.4848L-2.47955e-05 29.5228L0.0540771 20.268L27.7646 9.6936L27.7187 17.5642L6.80065 24.9425L27.6307 32.6572L27.5854 40.4848Z" fill="white"/>
<path d="M213.415 9.6936L241 20.6556L240.946 29.9104L213.235 40.4848L213.281 32.6141L234.199 25.2358L213.369 17.5212L213.415 9.6936Z" fill="white"/>
<path d="M197.732 49.773L206.778 0.239854L213.273 0L204.227 49.5332L197.732 49.773Z" fill="white"/>
<path d="M60.3499 11.9145C62.9146 13.2755 64.8996 15.1827 66.3066 17.6394C67.712 20.096 68.4155 22.9323 68.4155 26.1448C68.4155 29.3574 67.712 32.1555 66.3066 34.6281C64.8996 37.1006 62.9067 39.0174 60.3261 40.3767C57.7456 41.7377 54.7553 42.4158 51.3569 42.4158H39.1656V9.87549H51.3569C54.7871 9.87549 57.7837 10.5552 60.3499 11.9145ZM57.8472 33.0988C59.5162 31.4616 60.3499 29.143 60.3499 26.1464C60.3499 23.1498 59.5146 20.8154 57.8472 19.1464C56.1782 17.4774 53.8454 16.6437 50.8472 16.6437H47.0931V35.5571H50.8472C53.8438 35.5571 56.1782 34.7392 57.8472 33.1004V33.0988Z" fill="#312783"/>
<path d="M80.7927 16.226V22.8084H91.4086V28.9271H80.7927V36.0652H92.7982V42.4158H72.8652V9.87549H92.7982V16.226H80.7927Z" fill="#312783"/>
<path d="M127.387 9.91378C123.525 20.6917 119.661 31.4697 115.799 42.2476C112.876 42.3032 109.952 42.3588 107.027 42.4144L95.4867 9.87567H103.924L111.989 34.4441C115.237 26.2276 118.486 18.0095 121.734 9.7915C123.619 9.83279 125.504 9.87408 127.389 9.91378H127.387Z" fill="#312783"/>
<path d="M131.565 36.6147H119.42L117.473 42.3634H109.175L120.949 9.82153H130.128L141.902 42.3634H133.512L131.565 36.6147ZM129.526 30.4961L125.492 18.5827L121.507 30.4961H129.526Z" fill="white"/>
<path d="M159.748 42.3634L152.98 30.08H151.079V42.3634H143.151V9.82153H156.456C159.02 9.82153 161.207 10.2694 163.014 11.1666C164.821 12.0638 166.174 13.2914 167.07 14.8524C167.966 16.4134 168.414 18.1523 168.414 20.0675C168.414 22.2304 167.804 24.163 166.583 25.8622C165.361 27.5614 163.562 28.7667 161.182 29.4781L168.692 42.365H159.745L159.748 42.3634ZM151.08 24.4711H155.994C157.445 24.4711 158.534 24.117 159.262 23.4055C159.988 22.6957 160.351 21.6905 160.351 20.393C160.351 19.0956 159.988 18.1841 159.262 17.4727C158.534 16.7628 157.447 16.4071 155.994 16.4071H151.08V24.4727V24.4711Z" fill="white"/>
<path d="M194.468 9.82153V16.1721H185.847V42.3634H177.92V16.1721H169.298V9.82153H194.468Z" fill="white"/>
</svg>


