<svg width="735" height="781" viewBox="0 0 735 781" fill="none" xmlns="http://www.w3.org/2000/svg">
<path d="M148.82 556.984C67.3523 434.452 92.9799 274.34 205.826 199.312C318.672 124.284 476.23 162.601 557.698 285.134C639.166 407.666 613.539 567.779 500.692 642.807C387.846 717.835 230.288 679.517 148.82 556.984Z" stroke="white" stroke-width="2"/>
<path d="M148.82 494.984C67.3523 372.452 92.9799 212.34 205.826 137.312C318.672 62.284 476.23 100.601 557.698 223.134C639.166 345.666 613.539 505.779 500.692 580.807C387.846 655.835 230.288 617.517 148.82 494.984Z" stroke="white" stroke-width="2"/>
<path d="M176.723 496.721C95.2546 374.188 120.882 214.076 233.728 139.048C346.574 64.0204 504.132 102.338 585.601 224.87C667.069 347.403 641.441 507.516 528.595 582.544C415.748 657.571 258.191 619.253 176.723 496.721Z" stroke="white" stroke-width="2"/>
</svg>
