<svg width="1726" height="926" viewBox="0 0 1726 926" fill="none" xmlns="http://www.w3.org/2000/svg">
<path d="M1589.47 904.787C1574.7 908.289 1560.29 911.34 1546.26 913.938C1496.52 923.148 1450.27 926.867 1408.79 924.997C1371.55 923.315 1337.16 917.083 1306.58 906.47C1280 897.244 1255.55 884.441 1233.91 868.419C1217.19 856.041 1202.6 842.231 1189.32 826.202C1177.55 812.002 1167.11 796.415 1157.42 778.552C1139.63 745.786 1127.35 710.656 1115.47 676.682C1104.2 644.442 1093.19 612.975 1077.97 584.361C1073.47 598.62 1067.76 612.859 1060.94 626.828C1052.48 644.131 1042.31 661.058 1030.68 677.137C1005.09 712.538 972.867 743.335 937.491 766.199C919.282 777.968 900.359 787.561 881.247 794.717C861.316 802.178 841.153 806.994 821.314 809.028C804.876 810.714 761.632 813.044 715.243 798.322C694.885 791.861 676.853 782.956 661.646 771.853C644.133 759.067 630.35 743.338 620.678 725.103C603.879 693.435 600.122 655.319 609.813 614.881C617.794 581.572 634.946 547.753 656.869 522.09C693.046 479.743 749.402 451.767 815.55 443.315C846.381 439.376 877.624 439.849 908.414 444.723C939.739 449.679 968.809 458.921 994.814 472.187C1015.72 482.853 1033.7 495.609 1049.78 511.183C1056.24 517.436 1062.31 524.079 1068.07 531.192C1070.53 508.744 1069.55 486.733 1064.93 465.855C1051.01 402.909 1004.96 349.773 928.064 307.924C902.999 294.284 875.518 282.38 846.384 272.545C822.87 264.605 806.512 260.877 804.726 260.479C711.097 239.584 636.089 258.431 569.908 275.06C536.219 283.525 504.397 291.52 474.997 292.476C458.87 293.001 444.498 291.421 431.063 287.645C416.111 283.444 402.573 276.629 389.679 266.813C350.912 237.302 341.409 197.871 332.221 159.739C323.08 121.81 314.445 85.9857 278.713 57.1925C222.85 12.1805 131.445 9.83464 7.03656 50.2178L0.589535 30.364C25.1022 22.4079 48.6659 15.9812 70.6243 11.2675C97.8997 5.41087 123.725 1.95971 147.39 1.0098C175.271 -0.109841 200.946 2.20946 223.703 7.89996C249.798 14.4274 272.716 25.5417 291.825 40.9386C310.383 55.8909 324.286 73.9702 334.329 96.2064C343.048 115.511 347.867 135.506 352.528 154.844C361.246 191.02 369.48 225.188 402.339 250.203C447.211 284.363 499.113 271.322 564.822 254.813C597.393 246.63 634.311 237.354 674.716 233C721.341 227.979 765.359 230.301 809.284 240.105C815.849 241.571 875.239 255.406 938.06 289.591C974.109 309.208 1004.37 331.815 1027.99 356.782C1057.62 388.105 1076.92 423.285 1085.33 461.346C1089.28 479.215 1090.89 497.967 1090.1 517.085C1089.57 529.72 1088 542.591 1085.41 555.526C1086.23 556.827 1087.05 558.145 1087.85 559.475C1108.55 593.6 1122.1 632.332 1135.19 669.791C1158.28 735.83 1182.16 804.12 1246.35 851.644C1289.41 883.53 1344.39 901.194 1409.74 904.144C1493.93 907.944 1597.72 887.668 1718.24 843.885L1725.37 863.504C1677.59 880.863 1632.06 894.689 1589.47 904.789L1589.47 904.787ZM787.318 469.599C742.719 480.175 701.771 501.67 672.751 535.641C633.224 581.91 608.984 658.487 639.133 715.32C675.433 783.752 769.391 793.368 819.187 788.261C890.471 780.953 963.206 734.841 1013.75 664.916C1038.08 631.259 1054.78 595.268 1063.15 559.637C1044.61 532.308 1020.26 508.609 985.31 490.78C929.883 462.505 854.465 453.676 787.316 469.599L787.318 469.599Z" fill="white"/>
</svg>
