<svg width="568" height="231" viewBox="0 0 568 231" fill="none" xmlns="http://www.w3.org/2000/svg">
<g clip-path="url(#clip0_49_29)">
<path d="M459.111 80.9354C460.544 82.1001 461.95 82.6824 463.33 82.6824C464.285 82.6824 465.731 82.3383 467.655 81.6501C469.579 80.9618 471.53 80.1147 473.52 79.0824C475.51 78.0632 477.248 76.925 478.761 75.6941C480.273 74.4632 481.029 73.3646 481.029 72.4117C481.029 70.6381 480.167 69.0234 478.455 67.5939C476.744 66.1645 475.125 65.4365 473.626 65.4365C472.936 65.4365 472.259 65.6748 471.569 66.1512C470.879 66.6277 469.99 67.2763 468.902 68.0969C467.801 68.9175 466.461 69.8704 464.896 70.969C463.317 72.0675 461.22 73.2323 458.62 74.4632C457.519 75.1514 456.975 75.972 456.975 76.925C456.975 78.4338 457.691 79.7706 459.137 80.9221L459.111 80.9354Z" fill="white"/>
<path d="M566.461 102.271C565.439 101.384 564.364 100.934 563.276 100.934C562.865 100.934 562.454 101.146 562.042 101.543C558.062 105.103 554.029 108.32 549.902 111.192C545.789 114.064 541.198 116.049 536.13 117.148C536.409 115.917 536.608 114.66 536.74 113.349C536.873 112.052 536.953 110.782 536.953 109.551C536.953 106.401 536.435 103.436 535.414 100.63C534.379 97.8239 532.946 95.3356 531.088 93.1385C529.244 90.9547 527.002 89.2473 524.401 88.0031C521.801 86.7722 518.855 86.1501 515.552 86.1501C511.85 86.1501 508.427 87.3149 505.269 89.6311C502.111 91.9606 500.532 95.0974 500.532 99.068V101.424C500.532 102.165 500.599 102.867 500.731 103.528C498.476 105.951 495.676 108.823 492.306 112.184C488.06 116.42 483.496 120.523 478.627 124.494C473.758 128.464 468.888 131.879 464.032 134.751C459.163 137.623 454.811 138.986 450.976 138.854C450.432 138.854 450.154 138.378 450.154 137.411C450.154 134.672 450.565 131.707 451.388 128.491C452.21 125.274 453.206 122.058 454.373 118.842C455.541 115.626 456.801 112.489 458.181 109.405C459.548 106.321 460.715 103.489 461.684 100.895C461.962 100.206 462.268 99.3857 462.612 98.4327C462.957 97.4798 463.13 96.5798 463.13 95.7592C463.13 93.9856 462.267 92.3709 460.556 90.9414C458.844 89.512 457.226 88.784 455.726 88.784C454.081 88.784 452.98 89.5385 452.436 91.0473C452.025 92.1459 451.64 93.3371 451.308 94.6341C450.963 95.9312 450.512 97.2018 449.968 98.4327C449.039 100.934 448.097 103.356 447.102 105.726C439.898 114.024 433.304 121.039 427.346 126.744C420.487 133.308 414.529 138.576 409.461 142.534C404.393 146.504 400.134 149.31 396.711 150.951C393.288 152.593 390.674 153.413 388.896 153.413C388.206 153.413 387.861 152.725 387.861 151.362C387.861 148.344 388.272 144.903 389.095 140.998C389.918 137.094 390.873 133.097 391.974 128.994C393.075 124.891 394.309 120.96 395.676 117.201C397.042 113.442 398.21 110.12 399.165 107.248C406.701 99.3195 413.999 90.7694 421.071 81.5971C428.129 72.4381 434.365 63.5174 439.792 54.8216C445.205 46.1391 449.557 38.1051 452.847 30.7197C456.138 23.3342 457.783 17.5238 457.783 13.2885C457.783 9.7281 456.549 6.61775 454.081 3.9574C451.613 1.29706 448.602 -0.0397339 445.032 -0.0397339C441.463 -0.0397339 438.478 0.886754 436.09 2.7265C433.688 4.57947 431.459 6.65745 429.403 8.98691C426.935 11.7267 424.361 15.5253 421.694 20.3695C419.014 25.2269 416.307 30.627 413.574 36.583C410.828 42.5258 408.121 48.8656 405.454 55.5628C402.774 62.26 400.24 68.7983 397.838 75.1514C395.437 81.5177 393.248 87.4605 391.258 93.0062C389.586 97.6651 388.14 101.715 386.892 105.156C384.292 107.301 381.678 109.299 379.011 111.165C374.898 114.037 370.307 116.023 365.239 117.121C365.518 115.89 365.717 114.633 365.849 113.323C365.982 112.026 366.062 110.755 366.062 109.524C366.062 106.374 365.544 103.409 364.523 100.603C363.488 97.7974 362.055 95.3092 360.197 93.112C358.353 90.9282 356.111 89.2208 353.51 87.9767C350.91 86.7458 347.964 86.1237 344.661 86.1237C340.959 86.1237 337.536 87.2884 334.378 89.6046C331.22 91.9341 329.641 95.0709 329.641 99.0416V101.397C329.641 102.086 329.708 102.748 329.827 103.383C327.266 105.911 324.281 108.558 320.805 111.351C316.559 114.765 312.234 117.915 307.855 120.788C303.464 123.66 299.284 126.095 295.304 128.067C291.323 130.052 288.179 131.177 285.844 131.455C292.013 115.732 297.944 99.9681 303.636 84.1648C307.988 72.0675 312.128 59.8776 316.042 47.5818C317.368 47.595 318.762 47.6215 320.301 47.6479C324.069 47.7141 327.916 47.9524 331.817 48.3627C335.718 48.773 339.393 49.4215 342.816 50.3083C346.239 51.1951 348.986 52.5319 351.042 54.3054C352.276 55.2584 353.232 56.3966 353.922 57.6937C354.612 58.9908 355.845 59.6394 357.623 59.6394C359.136 59.6394 359.892 58.9511 359.892 57.5878C359.892 56.6349 359.507 55.576 358.764 54.4113C358.008 53.2466 357.292 52.3333 356.602 51.6451C354.134 48.3627 350.711 45.795 346.319 43.9552C341.927 42.1022 337.204 40.6728 332.136 39.6404C327.784 38.7669 323.445 38.1845 319.093 37.8536C319.252 37.3242 319.425 36.7948 319.597 36.2654C319.876 35.1668 320.208 33.9359 320.632 32.5727C321.044 31.2094 321.243 29.9785 321.243 28.8799C321.243 27.2387 320.42 25.7034 318.775 24.2607C317.13 22.8313 315.484 22.1033 313.839 22.1033C312.473 22.1033 311.504 22.7122 310.96 23.9431C310.549 24.896 310.164 25.8887 309.832 26.9211C309.487 27.9535 309.182 28.9461 308.904 29.8991C308.068 32.3874 307.205 34.8359 306.356 37.311C305.467 37.2977 304.591 37.2845 303.769 37.2845C299.934 37.2845 296.126 37.3904 292.358 37.5889C288.59 37.8007 284.782 38.0389 280.948 38.3036C281.638 36.2521 282.315 34.1742 283.005 32.0432C283.694 29.9255 284.265 27.9137 284.756 25.9946C285.234 24.0754 285.645 22.4078 285.99 20.9651C286.335 19.5356 286.507 18.3974 286.507 17.5768C286.507 15.8032 285.645 14.1885 283.933 12.759C282.222 11.3296 280.603 10.6016 279.104 10.6016C276.769 10.6016 275.614 11.4222 275.614 13.0635C275.614 13.6061 275.309 15.0488 274.686 17.3782C274.075 19.7077 273.345 22.2754 272.523 25.0681C271.7 27.874 270.878 30.6403 270.055 33.38C269.232 36.1198 268.542 38.2375 267.998 39.7331C262.784 40.2757 256.508 41.0963 249.185 42.1949C241.847 43.2934 234.311 44.5243 226.563 45.8876C218.814 47.2509 211.318 48.7597 204.047 50.4009C196.776 52.0421 190.607 53.7495 185.538 55.5363C184.026 56.0922 183.269 57.0452 183.269 58.4084C183.269 61.4129 184.092 63.3321 185.737 64.1527C187.383 64.9733 189.784 65.3836 192.929 65.3836C197.732 65.3836 203.185 65.7674 209.275 66.5086C215.378 67.263 221.096 68.6925 226.443 70.8234C231.79 72.9411 236.315 75.9191 240.016 79.7441C243.718 83.5692 245.576 88.6384 245.576 94.9253C245.576 99.0151 245.178 102.417 244.395 105.156C242.643 106.784 240.64 108.531 238.384 110.411C235.505 112.807 232.387 114.99 229.031 116.976C225.674 118.961 222.476 119.954 219.464 119.954C217.952 119.954 217.196 118.789 217.196 116.46C217.196 114.276 217.567 112.052 218.323 109.789C219.08 107.526 219.862 105.421 220.685 103.436C221.508 101.45 222.29 99.7166 223.047 98.2077C223.803 96.6989 224.175 95.6797 224.175 95.1239C224.175 93.4827 223.352 91.8811 221.707 90.3061C220.061 88.7311 218.35 87.9502 216.559 87.9502C215.603 87.9502 213.812 89.1811 211.212 91.6429C208.611 94.1047 205.891 96.9106 203.092 100.061C200.279 103.211 197.705 106.255 195.383 109.193C193.048 112.132 191.615 114.09 191.058 115.043C191.469 113.945 192.013 112.515 192.703 110.742C193.393 108.968 194.07 107.115 194.76 105.209C195.449 103.29 196.033 101.49 196.511 99.7695C196.989 98.0621 197.227 96.7254 197.227 95.7724C197.227 93.9988 196.365 92.3841 194.653 90.9547C192.942 89.5252 191.323 88.7973 189.824 88.7973C187.635 88.7973 186.533 89.5517 186.533 91.0605C186.533 91.8811 186.188 93.3503 185.498 95.468C184.835 97.5327 184.026 99.8886 183.11 102.523C179.501 105.673 175.853 108.558 172.138 111.152C168.025 114.024 163.434 116.01 158.366 117.108C158.644 115.877 158.843 114.62 158.976 113.309C159.109 112.012 159.188 110.742 159.188 109.511C159.188 106.361 158.671 103.396 157.649 100.59C156.614 97.7842 155.181 95.2959 153.324 93.0988C151.48 90.9149 149.237 89.2076 146.637 87.9634C144.036 86.7325 141.091 86.1104 137.787 86.1104C134.085 86.1104 130.662 87.2752 127.504 89.5914C124.347 91.9209 122.768 95.0577 122.768 99.0283V101.384C122.768 102.112 122.834 102.8 122.967 103.462C112.936 112.965 103.768 120.496 95.5287 126.002C86.8249 131.813 78.8376 136.154 71.5668 139.026C74.7246 136.842 77.6302 134.341 80.3104 131.535C82.9772 128.729 85.3522 125.791 87.4087 122.707C89.4652 119.623 91.0707 116.446 92.2382 113.164C93.4058 109.881 93.9896 106.599 93.9896 103.317C93.9896 99.346 92.9547 95.9048 90.8982 92.9532C88.8417 90.0149 85.4185 88.5458 80.6155 88.5458C77.0464 88.5458 73.3447 90.5708 69.5103 94.5944C65.6758 98.6313 62.0006 103.383 58.5112 108.849C55.0084 114.315 51.8905 119.755 49.1573 125.155C46.4108 130.555 44.3543 134.698 42.9877 137.57C46.1455 129.086 48.8521 121.873 51.1077 115.93C53.3765 109.987 55.2207 105.064 56.6536 101.159C58.0866 97.2548 59.148 94.29 59.8379 92.2385C60.5279 90.187 60.8729 88.8899 60.8729 88.334C60.8729 86.5604 59.9441 84.9457 58.0999 83.5163C56.2556 82.0868 54.5706 81.3589 53.058 81.3589C51.5455 81.3589 50.5239 81.9677 49.9666 83.1986C49.2767 84.5751 48.7592 85.9384 48.4275 87.3016C48.0826 88.6649 47.6315 90.0414 47.0875 91.4047C40.0953 111.642 33.6869 129.536 27.8622 145.048C22.0376 160.574 17.0622 173.769 12.9491 184.649C8.83604 195.515 5.65173 204.211 3.38292 210.697C1.1141 217.182 -0.0136719 221.603 -0.0136719 223.932C-0.0136719 225.706 0.80894 227.32 2.45416 228.75C4.09939 230.193 5.74461 230.907 7.38983 230.907C8.07977 230.907 8.79623 230.801 9.5525 230.603C10.3088 230.404 10.8262 229.954 11.0916 229.266C29.189 184.411 44.2349 151.243 56.2291 129.761C68.2233 108.293 76.9005 97.5592 82.2475 97.5592C82.3802 97.5592 82.5261 97.7313 82.6588 98.0754C82.7915 98.4195 82.8711 99.4783 82.8711 101.252C82.8711 105.487 82.0087 109.63 80.2971 113.667C78.5855 117.704 76.3831 121.463 73.7162 124.957C71.0494 128.451 68.0641 131.628 64.7736 134.5C61.4832 137.372 58.2591 139.767 55.1013 141.687C54.0001 142.507 53.4561 143.262 53.4561 143.95C53.4561 145.723 54.146 147.192 55.5126 148.357C56.8792 149.522 58.3917 150.104 60.037 150.104C65.6626 150.104 71.6199 148.768 77.9354 146.107C84.2377 143.434 90.4869 139.992 96.6432 135.744C102.295 131.866 107.748 127.538 113.056 122.799C112.538 125.221 112.273 127.697 112.273 130.211C112.273 132.541 112.684 134.83 113.507 137.081C114.329 139.331 115.457 141.329 116.903 143.037C118.336 144.744 120.061 146.147 122.051 147.245C124.041 148.344 126.27 148.887 128.738 148.887C131.75 148.887 134.629 148.238 137.376 146.941C140.122 145.644 142.656 143.937 144.978 141.806C147.313 139.688 149.396 137.186 151.254 134.314C153.111 131.442 154.651 128.438 155.884 125.288C162.598 124.467 168.807 122.349 174.499 118.935C175.614 118.273 176.675 117.545 177.737 116.817C177.432 117.677 177.126 118.524 176.861 119.345C176.45 120.298 175.866 121.873 175.11 124.07C174.353 126.254 173.597 128.517 172.841 130.847C172.085 133.176 171.434 135.4 170.891 137.517C170.347 139.635 170.068 141.104 170.068 141.925C170.068 143.698 170.917 145.313 172.642 146.742C174.353 148.185 175.959 148.9 177.471 148.9C178.294 148.9 178.904 148.728 179.316 148.384C179.727 148.04 180.205 147.523 180.749 146.848C184.729 140.416 188.975 133.851 193.499 127.154C198.023 120.457 202.826 114.024 207.895 107.87C207.762 108.412 207.696 109.233 207.696 110.331C207.696 115.123 208.93 119.252 211.397 122.746C213.865 126.227 217.7 127.974 222.914 127.974C225.661 127.974 228.5 127.22 231.445 125.711C233.9 124.454 236.275 122.958 238.597 121.224C237.257 124.811 235.837 128.649 234.324 132.792C232.202 138.603 230.039 144.625 227.85 150.846C225.661 157.066 223.67 162.956 221.879 168.488C220.101 174.034 218.629 178.918 217.461 183.153C216.293 187.389 215.71 190.393 215.71 192.18C215.71 193.821 216.532 195.357 218.177 196.799C219.823 198.229 221.402 198.957 222.901 198.957C224.267 198.957 225.236 198.414 225.78 197.316C233.316 180.215 242.537 164.319 253.444 149.615C260.98 139.45 269.06 129.483 277.671 119.676L269.577 141.713C258.883 170.712 253.536 190.473 253.536 200.995C253.536 203.999 253.948 206.739 254.77 209.201C255.593 211.663 256.721 213.82 258.167 215.66C259.613 217.5 261.258 218.942 263.103 219.975C264.96 220.994 266.91 221.51 268.967 221.51C271.979 221.51 274.858 220.478 277.604 218.426C280.351 216.375 282.845 213.714 285.114 210.432C287.383 207.15 289.439 203.43 291.284 199.248C293.141 195.079 294.68 190.87 295.914 186.634C297.148 182.386 298.103 178.296 298.793 174.325C299.483 170.355 299.828 166.874 299.828 163.869C299.828 159.766 299.311 155.531 298.289 151.15C297.254 146.769 295.171 143.156 292.013 140.284C295.994 139.463 300.2 137.716 304.658 135.055C309.116 132.395 313.401 129.417 317.514 126.135C318.244 125.552 318.947 124.97 319.651 124.374C319.332 126.307 319.16 128.252 319.16 130.238C319.16 132.567 319.571 134.857 320.394 137.107C321.216 139.357 322.344 141.356 323.79 143.063C325.223 144.77 326.948 146.173 328.938 147.272C330.928 148.37 333.157 148.913 335.625 148.913C338.637 148.913 341.516 148.265 344.263 146.967C347.009 145.67 349.543 143.963 351.865 141.832C354.2 139.714 356.283 137.213 358.141 134.341C359.998 131.469 361.537 128.464 362.771 125.314C369.485 124.494 375.694 122.376 381.386 118.961C381.744 118.749 382.076 118.511 382.421 118.286C381.612 120.907 380.842 123.541 380.152 126.241C379.263 129.722 378.534 133.15 377.99 136.498C377.446 139.847 377.167 142.891 377.167 145.631C377.167 148.781 377.645 151.441 378.6 153.625C379.555 155.809 380.683 157.622 381.997 159.065C383.297 160.494 384.637 161.527 386.003 162.135C387.37 162.744 388.538 163.062 389.493 163.062C393.885 163.062 398.608 161.659 403.69 158.853C408.758 156.047 414.105 152.156 419.731 147.166C425.356 142.176 431.247 136.194 437.417 129.219C438.253 128.279 439.088 127.299 439.924 126.333C439.5 128.636 439.274 130.952 439.274 133.322C439.274 137.703 440.813 141.422 443.905 144.506C446.996 147.59 450.724 149.125 455.116 149.125C459.919 149.125 464.855 147.59 469.923 144.506C474.991 141.435 479.927 137.663 484.73 133.216C486.601 131.482 488.392 129.722 490.157 127.922C490.104 128.689 490.077 129.457 490.077 130.238C490.077 132.567 490.488 134.857 491.311 137.107C492.134 139.357 493.261 141.356 494.708 143.063C496.141 144.77 497.865 146.173 499.856 147.272C501.846 148.37 504.075 148.913 506.543 148.913C509.554 148.913 512.434 148.265 515.18 146.967C517.926 145.67 520.461 143.963 522.783 141.832C525.118 139.714 527.201 137.213 529.058 134.341C530.916 131.469 532.455 128.464 533.689 125.314C540.402 124.494 546.612 122.376 552.304 118.961C557.996 115.546 563.024 111.364 567.416 106.44C567.827 105.752 568.039 105.342 568.039 105.209C568.039 104.111 567.522 103.131 566.5 102.231L566.461 102.271ZM411.916 73.1396C413.84 68.0042 415.962 62.5776 418.298 56.8334C420.633 51.0892 423.061 45.3847 425.595 39.7066C428.129 34.0286 430.703 28.9329 433.304 24.4196C435.904 19.9062 438.412 16.2135 440.813 13.3414C443.215 10.4693 445.444 9.03985 447.5 9.03985C448.19 9.03985 448.535 9.51633 448.535 10.4693C448.535 14.44 447.301 19.3901 444.833 25.346C442.366 31.302 439.181 37.6948 435.267 44.5244C431.353 51.3671 426.935 58.3687 421.999 65.5556C417.064 72.7293 412.128 79.6118 407.192 86.1766C408.426 82.6163 410.005 78.275 411.916 73.1528V73.1396ZM139.127 128.941C137.827 130.648 136.354 132.223 134.709 133.653C133.064 135.082 131.352 136.353 129.561 137.451C127.783 138.55 126.071 139.092 124.413 139.092C123.869 139.092 123.418 138.616 123.073 137.663C122.728 136.71 122.555 135.479 122.555 133.97C122.555 130.41 123.073 127.167 124.095 124.229C125.129 121.291 126.523 118.458 128.314 115.718C131.737 120.232 136.407 123.17 142.298 124.546C141.476 125.777 140.414 127.247 139.114 128.954L139.127 128.941ZM145.602 117.955C142.723 117.677 140.149 116.923 137.893 115.692C135.638 114.461 134.019 112.343 133.064 109.339C134.165 108.24 134.921 107.42 135.332 106.877C135.876 106.334 136.155 105.646 136.155 104.826C136.155 102.906 135.2 101.265 133.276 99.9019C134.231 98.5386 135.505 97.4798 137.084 96.7254C138.663 95.9709 140.268 95.6003 141.913 95.6003C144.925 95.6003 146.783 96.6592 147.473 98.7769C148.163 100.895 148.494 103.118 148.494 105.448C148.494 109.551 147.539 113.72 145.615 117.968L145.602 117.955ZM245.032 76.8323C242.352 73.894 239.34 71.3263 235.983 69.1425C232.626 66.9586 229.031 65.1453 225.183 63.7027C221.348 62.2732 217.501 61.135 213.666 60.3144C222.025 58.3952 230.397 56.6614 238.756 55.0863C247.115 53.5113 255.553 52.1877 264.045 51.0892C261.855 57.1114 259.693 63.0541 257.57 68.9307C255.447 74.8073 253.284 80.8295 251.095 86.984C249.729 83.1589 247.699 79.7706 245.032 76.8323ZM283.801 101.755C276.662 108.32 269.431 115.639 262.108 123.699C254.77 131.773 247.606 140.588 240.613 150.17C247.194 133.626 253.497 116.87 259.534 99.9019C265.57 82.9472 271.461 66.1248 277.22 49.4347C285.632 48.5083 294.136 47.9259 302.707 47.7009C301.487 51.0892 300.266 54.4907 299.019 57.8525C295.596 67.0116 291.894 76.1044 287.914 85.1442C287.635 85.6869 287.502 86.1634 287.502 86.5737C287.502 87.5266 287.914 88.559 288.736 89.6443L284.464 101.292C284.225 101.397 284.013 101.543 283.801 101.742V101.755ZM288.219 169.044C287.608 172.605 286.786 176.284 285.751 180.123C284.716 183.948 283.482 187.746 282.049 191.505C280.616 195.264 279.037 198.613 277.313 201.551C275.601 204.489 273.783 206.885 271.859 208.738C269.936 210.591 267.945 211.438 265.889 211.305C265.199 211.305 264.761 210.657 264.549 209.36C264.35 208.063 264.244 206.66 264.244 205.151C264.244 201.736 264.788 197.488 265.889 192.432C266.99 187.376 268.397 182.002 270.108 176.324C271.82 170.646 273.704 164.862 275.76 158.985C277.817 153.109 279.807 147.563 281.731 142.375C285.3 143.884 287.423 146.279 288.099 149.548C288.789 152.831 289.134 156.246 289.134 159.806C289.134 162.4 288.829 165.484 288.206 169.044H288.219ZM346.001 128.941C344.7 130.648 343.228 132.223 341.582 133.653C339.937 135.082 338.226 136.353 336.434 137.451C334.657 138.55 332.945 139.092 331.286 139.092C330.743 139.092 330.291 138.616 329.946 137.663C329.601 136.71 329.429 135.479 329.429 133.97C329.429 130.41 329.946 127.167 330.968 124.229C332.003 121.291 333.396 118.458 335.187 115.718C338.61 120.232 343.281 123.17 349.172 124.546C348.349 125.777 347.288 127.247 345.987 128.954L346.001 128.941ZM352.475 117.955C349.596 117.677 347.022 116.923 344.767 115.692C342.511 114.461 340.892 112.343 339.937 109.339C341.038 108.24 341.795 107.42 342.206 106.877C342.75 106.334 343.029 105.646 343.029 104.826C343.029 102.906 342.073 101.265 340.149 99.9019C341.105 98.5386 342.378 97.4798 343.957 96.7254C345.536 95.9709 347.142 95.6003 348.787 95.6003C351.799 95.6003 353.656 96.6592 354.346 98.7769C355.036 100.895 355.368 103.118 355.368 105.448C355.368 109.551 354.413 113.72 352.489 117.968L352.475 117.955ZM516.892 128.941C515.591 130.648 514.119 132.223 512.473 133.653C510.828 135.082 509.117 136.353 507.325 137.451C505.547 138.55 503.836 139.092 502.177 139.092C501.633 139.092 501.182 138.616 500.837 137.663C500.492 136.71 500.32 135.479 500.32 133.97C500.32 130.41 500.837 127.167 501.859 124.229C502.894 121.291 504.287 118.458 506.078 115.718C509.501 120.232 514.172 123.17 520.063 124.546C519.24 125.777 518.179 127.247 516.878 128.954L516.892 128.941ZM523.38 117.955C520.5 117.677 517.926 116.923 515.671 115.692C513.415 114.461 511.797 112.343 510.841 109.339C511.943 108.24 512.699 107.42 513.11 106.877C513.654 106.334 513.933 105.646 513.933 104.826C513.933 102.906 512.978 101.265 511.054 99.9019C512.009 98.5386 513.283 97.4798 514.862 96.7254C516.44 95.9709 518.046 95.6003 519.691 95.6003C522.703 95.6003 524.56 96.6592 525.25 98.7769C525.94 100.895 526.272 103.118 526.272 105.448C526.272 109.551 525.317 113.72 523.393 117.968L523.38 117.955Z" fill="white"/>
</g>
<defs>
<clipPath id="clip0_49_29">
<rect width="568" height="231" fill="white"/>
</clipPath>
</defs>
</svg>
