<svg width="20" height="20" viewBox="0 0 20 20" fill="none" xmlns="http://www.w3.org/2000/svg">
<path d="M18.8943 17.9232C17.6956 19.1815 16.9553 20.102 15.0388 19.9909C11.4711 19.7839 6.93671 16.5043 4.60929 13.9235C2.54595 11.6363 -0.694529 6.81158 0.132151 3.61457C0.37653 2.67087 1.81147 1.24214 2.57236 0.603632C3.33324 -0.0348762 4.20558 -0.227187 5.09357 0.322082C5.64499 0.662977 7.66895 2.73333 8.14562 3.30313C9.63875 5.08747 7.68596 6.40955 6.51733 7.57413C6.45825 7.80214 7.53647 9.32769 7.74593 9.59139C8.98349 11.1508 10.5831 12.5573 12.36 13.4706C12.4701 13.4813 13.7189 12.1262 13.9404 11.9366C14.7832 11.2173 15.7173 11.0973 16.6228 11.8072C17.6715 12.6291 18.7412 13.9971 19.6887 14.9529C20.4214 16.2219 19.7397 17.0349 18.8934 17.9232H18.8943ZM3.85915 1.03912C3.76784 1.05295 3.61746 1.11497 3.53376 1.16049C3.05395 1.4224 1.42521 3.12643 1.22201 3.63019C0.472312 5.49039 2.16148 8.80385 3.18107 10.3945C4.80444 12.9272 7.09426 15.242 9.64859 16.8421C11.2062 17.8179 14.5451 19.5411 16.3578 18.808C16.898 18.5894 17.7664 17.6542 18.196 17.2049C18.6919 16.6859 19.3015 16.1367 18.7492 15.3995C18.0362 14.4474 16.7311 13.5527 15.9563 12.6063C15.7607 12.4426 15.4886 12.3301 15.2281 12.3716C14.6566 12.4636 13.5877 13.8593 13.0677 14.2787C12.7109 14.566 12.4455 14.6428 12.0006 14.4527C9.84374 13.5322 6.82795 10.5619 5.77882 8.47411C5.53847 7.99579 5.23949 7.52505 5.61769 7.03066C5.95696 6.58669 6.5782 6.13157 6.97699 5.70858C7.63314 5.01251 7.95809 4.66626 7.22898 3.81581C6.63325 3.12108 5.55145 2.05377 4.85636 1.45141C4.5426 1.17967 4.30941 0.970407 3.85915 1.03912Z" fill="#004AD4"/>
</svg>
