<svg width="23" height="20" viewBox="0 0 23 20" fill="none" xmlns="http://www.w3.org/2000/svg">
<path d="M19.7079 16.401L4.72987 1.42298C4.37491 1.06802 3.76535 1.10208 3.36837 1.49906C2.9714 1.89603 2.93734 2.5056 3.2923 2.86055L18.2703 17.8386C18.6253 18.1935 19.2349 18.1595 19.6318 17.7625C20.0288 17.3655 20.0629 16.756 19.7079 16.401Z" fill="white"/>
<path d="M18.2702 1.64292L3.29212 16.621C2.93716 16.9759 2.97123 17.5855 3.3682 17.9825C3.76517 18.3794 4.37474 18.4135 4.72969 18.0585L19.7077 3.0805C20.0627 2.72554 20.0286 2.11598 19.6317 1.719C19.2347 1.32203 18.6251 1.28797 18.2702 1.64292Z" fill="white"/>
</svg>
