<svg width="512" height="338" viewBox="0 0 512 338" fill="none" xmlns="http://www.w3.org/2000/svg">
<g clip-path="url(#clip0_312_68)">
<path d="M0 142.61C75.9 142 152.16 141.84 228.76 142.11C229.22 140.84 229.63 141.1 230 142.61C227.72 142.45 227.27 141.77 229.5 141.39C229.23 94.64 229.39 48.05 230 1.61C246.63 0.739998 265.15 0.749998 282 1.61C282.61 47.86 282.77 94.45 282.5 141.39C283.77 141.85 283.5 142.25 282 142.61C282.17 140.33 282.84 139.88 283.24 142.11C359.66 141.84 435.91 142 512 142.61V194.61C436.1 195.22 359.84 195.38 283.24 195.11C282.78 196.38 282.37 196.12 282 194.61C284.28 194.77 284.73 195.45 282.5 195.83C282.77 242.58 282.61 289.17 282 335.61C265.37 336.48 246.85 336.47 230 335.61C229.39 289.36 229.23 242.77 229.5 195.83C228.23 195.37 228.5 194.97 230 194.61C229.83 196.89 229.16 197.34 228.76 195.11C152.34 195.38 76.09 195.22 0 194.61V142.61Z" fill="#EA4D58"/>
<path d="M49 0.609985L55.08 2.20999C106.71 36.33 158.35 70.09 209.99 103.49V1.82999L212 0.609985C217.65 0.609985 223.35 0.609985 229 0.609985C231.28 0.769985 231.73 1.44999 229.5 1.82999V141.93C152.87 142.42 76.37 142.32 0 141.61V124.61L0.69 122.61L132.83 121.86L1.19 36.76L0 33.61V31.61C1.72 28.77 2.54 25.61 4 22.61L5.68 21.31C57.63 54.95 109.59 88.6 161.55 122.26L161.5 124.61C161.59 123.83 161.83 122.68 162.41 122.61C171.25 121.6 184.56 122.17 193 124.61L186.34 122.64C129.47 85.36 72.67 48.14 15.93 10.95L16 8.59999C28.54 -0.230014 34.12 0.989985 49 0.609985Z" fill="#F5F5F5"/>
<path d="M512.001 195.61V212.61L511.311 214.61L379.171 215.36L510.821 300.46L512.011 303.61V305.61C510.071 309.16 508.941 313.03 507.011 316.61L505.341 317.91C399.421 249.28 346.461 214.96 346.461 214.96L346.511 212.61C346.421 213.39 346.171 214.56 345.601 214.61C336.491 215.49 323.651 215.17 315.011 212.61L321.671 214.61C379.211 252.54 436.681 290.43 494.081 328.26L494.011 330.61C483.021 337.02 475.191 336.29 463.011 336.61L456.891 334.97L302.511 233.3L302.021 335.39L300.011 336.6C294.361 336.6 288.661 336.6 283.011 336.6C280.731 336.44 280.281 335.76 282.511 335.38V195.28C359.141 194.79 435.641 194.89 512.011 195.6L512.001 195.61Z" fill="#F5F5F5"/>
<path d="M0.000234375 195.61C76.1102 195 152.55 194.84 229.32 195.11L229.5 335.39C230.77 335.85 230.5 336.25 229 336.61C223.35 336.61 217.65 336.61 212 336.61L210 335.92V233.74C158.35 267.13 106.71 300.89 55.0802 335.02L49.0002 336.62C41.1402 336.42 33.6802 337.01 26.0002 334.62L25.4802 332.57C85.2002 293.17 145.01 253.74 204.89 214.28L211 212.63C202.16 215.22 189.02 215.52 179.68 214.63L178.5 212.63L179 214.69C123.05 251 67.0902 287.32 11.1102 323.64L8.99023 322.63C4.30023 316.98 2.70023 312.32 -0.00976562 305.63V303.63L1.18023 300.48L132.83 215.38L1.22023 214.63L0.000234375 212.63V195.63V195.61Z" fill="#F5F5F5"/>
<path d="M300 0.609976L302 1.28998L302.5 103.91L456.88 2.23998L463 0.599976C471.1 0.799976 478.02 0.299976 486 2.59998L486.52 4.64998C426.8 44.05 366.99 83.48 307.11 122.94L301 124.59C304.35 121.89 330.4 121.93 331.83 123.26C332.17 123.58 332.36 124.06 332.5 124.59C335.06 122.33 337.64 120.1 340.3 117.98C342.96 115.86 345.63 113.77 348.46 111.91C393.67 82.16 439.1 52.73 484.74 23.65C490.53 20.08 496.78 17.32 503 14.6C507.73 20.24 509.66 25.76 512 32.6V33.6L510.81 36.75L379.16 121.85L510.77 122.6L511.99 124.6V141.6C435.88 142.21 359.44 142.37 282.67 142.1L282.49 1.81998C281.22 1.35998 281.49 0.959976 282.99 0.599976C288.64 0.599976 294.34 0.599976 299.99 0.599976L300 0.609976Z" fill="#F5F5F5"/>
<path d="M0 33.61L140.01 124.11L0 124.61V33.61Z" fill="#424898"/>
<path d="M0 212.61L140.01 213.11L0 303.61V212.61Z" fill="#424898"/>
<path d="M512 33.61V124.61L371.99 124.11L512 33.61Z" fill="#424898"/>
<path d="M512 212.61V303.61L371.99 213.11L512 212.61Z" fill="#424898"/>
<path d="M283 0.609971V141.62H512V142.62H282V1.60997H230V142.61H0V141.61H229.01V0.609971C246.99 0.589971 265.03 0.589971 283.01 0.609971H283Z" fill="#ED6C79"/>
<path d="M0.000234375 194.61H230V335.61H282V194.61H512V195.61H282.99V336.61C265.01 336.63 246.97 336.63 228.99 336.61V195.6H-0.00976562V194.6L0.000234375 194.61Z" fill="#ED6C79"/>
<path d="M463 0.609999L300.51 107.62L300 0.609999C354.05 0.679999 409.08 -0.750001 463 0.609999Z" fill="#424898"/>
<path d="M212 0.610017V107.61L49 0.610017C102.9 -0.789983 157.97 0.670017 212 0.610017Z" fill="#424898"/>
<path d="M486 2.60999C491.1 4.07999 499.51 10.45 503 14.61C445.58 50.22 389.38 88.05 332.5 124.61H301L486 2.60999Z" fill="#EA4D58"/>
<path d="M16 8.60999L193 124.61H161.5L4 22.61C7.75 14.91 9.31 13.32 16 8.60999Z" fill="#EA4D58"/>
<path d="M463 336.61C409.1 338.01 354.03 336.54 300 336.61L300.51 229.6L463 336.61Z" fill="#424898"/>
<path d="M212 336.61C157.95 336.55 102.92 337.97 49 336.61L211.99 229.61V336.61H212Z" fill="#424898"/>
<path d="M9 322.61L178.5 212.61H211L26 334.61C19.26 332.51 13.41 327.93 9 322.61Z" fill="#EA4D58"/>
<path d="M507 316.61C504.1 321.98 499.38 327.47 494 330.61L315 212.61H346.5L507 316.61Z" fill="#EA4D58"/>
</g>
<defs>
<clipPath id="clip0_312_68">
<rect width="512" height="337.21" fill="white"/>
</clipPath>
</defs>
</svg>
