<svg width="20" height="20" viewBox="0 0 20 20" fill="none" xmlns="http://www.w3.org/2000/svg">
<path d="M19.9999 9.28757V10.655C19.9394 10.88 19.9477 11.1374 19.9164 11.3718C19.3498 15.5733 16.0449 19.0479 11.8772 19.8227L10.6976 19.9914C10.2355 19.9705 9.7493 20.0196 9.29029 19.9914C0.530497 19.451 -3.25593 8.40468 3.34773 2.509C9.49708 -2.981 19.4945 1.104 19.9999 9.28705V9.28757ZM9.5634 6.24053V0.84973C7.47567 1.21103 6.18115 3.17052 5.46261 5.00626C6.2835 5.53098 7.30439 5.89176 8.26574 6.07293C8.69603 6.15386 9.13102 6.18414 9.56392 6.24053H9.5634ZM10.4234 6.24053C10.8563 6.18414 11.2913 6.15386 11.7216 6.07293C12.4313 5.93927 13.1963 5.69127 13.8506 5.38792C13.9629 5.33571 14.507 5.08614 14.5221 5.00469C13.8041 3.16947 12.5169 1.20633 10.4234 0.84973V6.24053ZM6.6318 1.51386C5.83494 1.76656 5.12162 2.22967 4.44642 2.70845L3.50648 3.52294C3.85896 3.91818 4.28037 4.23615 4.69708 4.55985C5.20517 3.46029 5.7848 2.39257 6.6318 1.51386ZM16.2339 3.28538C16.0595 3.10369 15.7477 2.86612 15.5399 2.70949C14.8903 2.21818 14.1279 1.76917 13.355 1.51438C14.202 2.39309 14.7817 3.46081 15.2898 4.56038L16.4255 3.58403C16.4558 3.52555 16.2866 3.34072 16.2339 3.28538ZM3.73937 9.56116C3.77071 8.16347 3.99838 6.77517 4.40413 5.44118L2.89916 4.16984C1.68298 5.69806 0.906475 7.59019 0.846423 9.56116H3.73885H3.73937ZM16.2475 9.56116H19.1399C19.0788 7.5928 18.3033 5.69545 17.0872 4.16984L15.5822 5.44118C15.9895 6.77517 16.213 8.16399 16.2469 9.56116H16.2475ZM9.5634 7.06077C8.01509 7.02683 6.5117 6.55014 5.14668 5.84999C4.84277 7.06338 4.5895 8.30183 4.59943 9.56116H9.5634V7.06129V7.06077ZM10.4234 7.06077V9.56064H15.3874C15.3984 8.30183 15.1409 7.06286 14.8402 5.84947C13.4757 6.54962 11.9723 7.02892 10.4234 7.06025V7.06077ZM3.73937 10.4206H0.846423C0.905431 12.3936 1.68402 14.2816 2.89916 15.8119L4.40413 14.5405C3.99786 13.2065 3.77071 11.8177 3.73937 10.4206ZM9.5634 10.4206H4.59943C4.5895 11.6794 4.84329 12.9183 5.14668 14.1317C6.51118 13.4326 8.01561 12.9528 9.5634 12.9209V10.4211V10.4206ZM15.3874 10.4206H10.4234V12.9204C11.9754 12.9491 13.4736 13.4316 14.8402 14.1312C15.143 12.9178 15.3952 11.6788 15.3874 10.42V10.4206ZM19.1399 10.4206H16.2475C16.2146 11.8177 15.9869 13.206 15.5827 14.5405L17.0877 15.8119C18.3013 14.2826 19.0814 12.3905 19.1404 10.4206H19.1399ZM9.5634 19.1315V13.7407C9.1305 13.7971 8.69551 13.8273 8.26522 13.9083C7.30386 14.0894 6.28298 14.4507 5.46209 14.9749C6.18063 16.8102 7.47514 18.7702 9.56287 19.1315H9.5634ZM10.4234 19.1315C12.5075 18.7743 13.8088 16.8086 14.5221 14.9765C14.507 14.8951 13.9629 14.645 13.8506 14.5933C13.1958 14.2899 12.4313 14.0424 11.7216 13.9083C11.2913 13.8273 10.8563 13.7971 10.4234 13.7407V19.1315ZM6.67097 18.5065C5.80308 17.6215 5.21248 16.5376 4.69708 15.4213C4.45217 15.6317 4.17332 15.8082 3.93415 16.0254C3.86366 16.0896 3.54877 16.3852 3.52214 16.4363C3.49394 16.4911 3.5117 16.4943 3.54094 16.5355C3.59107 16.606 4.00674 16.9355 4.1117 17.0211C4.86731 17.6387 5.74773 18.1838 6.67097 18.506V18.5065ZM13.3159 18.5065C14.0161 18.2668 14.695 17.8888 15.2986 17.4607C15.4882 17.326 16.3556 16.6634 16.425 16.5136C16.4809 16.3925 16.1509 16.1152 16.0527 16.0254C15.8151 15.8077 15.5373 15.6271 15.2898 15.4213C14.7749 16.5376 14.1838 17.6215 13.3159 18.5065Z" fill="#004AD4"/>
</svg>
